<svg id="Layer_2" xmlns="http://www.w3.org/2000/svg" viewBox="0 0 180.5 336.2"><style>.st0{fill:none}</style><path class="st0" d="M182.5 11.4c.3-.2.4-.6.5-.9 0-.3-.1-.7-.3-1-.4-.6-1.3-.6-1.9-.1-.3.2-.4.6-.5.9 0 .3.1.7.3 1 .2.3.6.4.9.4.4 0 .7-.1 1-.3m1.2 312.1c-.2.3-.3.6-.3 1 0 .3.2.7.5.9.5.4 1.4.4 1.9-.2.2-.3.3-.6.3-1 0-.3-.2-.7-.5-.9-.3-.2-.6-.3-1-.3-.3.1-.7.3-.9.5m-3.2-260.2c-.3.2-.5.6-.5.9 0 .3.1.7.3 1 .2.3.5.5.9.5.3 0 .7-.1 1-.3.3-.2.5-.5.5-.9 0-.3 0-.7-.3-1-.4-.5-1.3-.6-1.9-.2m2.6 208.1c.2-.3.3-.6.2-1-.1-.3-.2-.7-.5-.9-.3-.2-.6-.3-1-.3-.3 0-.7.2-.9.5-.2.3-.3.7-.3 1 0 .3.2.7.5.9.7.5 1.6.4 2-.2M193.2 93l-2.5.6c-1.1-2.4-2.2-3.2-4.8-2.6l-23 5 11.6 53.1c.6 2.8 1.6 3.2 4.3 3.4l.6 2.5-22.6 5-.6-2.5c2.3-1.2 3.2-2.4 2.6-4.9l-11.6-53.1-23 5c-2.7.6-3.2 1.6-3.3 4.3l-2.5.6-4.4-20 2.5-.6c1.2 2.4 2.2 3.1 4.8 2.5L183 77.8c2.7-.6 3.2-1.6 3.3-4.3l2.5-.6 4.4 20.1z"/><path class="st0" d="M172 179.4l-5.2-23.8-41.1-32.6c-1.2-1.5-1.6-4 .8-5l-.5-2.5-27.4 6 .5 2.5c2.2-.1 3.7.7 4.3 3.3l.8 104.5c.6 2.7-.3 3.5-2.5 4.8l.5 2.5 20.7-4.5-.6-2.5c-2.8-.1-3.6-.6-4.2-3.3l2.3-90.2 51.6 40.8z"/><path class="st0" d="M172 179.4l-5.2-23.8 23.7-46.8c.4-1.9-.2-4.3-2.8-4.2l-.5-2.5 27.4-6 .6 2.5c-2 .9-3.1 2.2-2.5 4.8l42.9 95.3c.6 2.7 1.7 3.1 4.3 3.3l.5 2.5-20.7 4.5-.5-2.5c2.5-1.3 3-2 2.4-4.7l-39.8-81-29.8 58.6z"/><path class="st0" d="M192.6 231.6l-18.6-85-15.7 3.4 18.6 85.1c.6 2.5-.4 3.7-2.6 4.9l.6 2.5 22.6-5-.6-2.5c-2.8-.1-3.7-.6-4.3-3.4M14.1 194.4c-.3-.2-.7-.3-1-.2-.3.1-.7.3-.9.5-.4.6-.2 1.4.4 1.8.3.2.7.3 1 .2.3-.1.7-.3.9-.5.2-.3.3-.6.2-1-.1-.3-.3-.6-.6-.8m-.9-5.8c-.3-.2-.6-.3-1-.2-.3 0-.7.2-.9.5-.4.5-.3 1.4.3 1.9.3.2.6.3 1 .2.3-.1.7-.2.9-.5.2-.3.3-.6.3-1-.1-.4-.3-.7-.6-.9m-.7-5.8c-.3-.2-.6-.3-1-.3-.3 0-.7.2-.9.5-.4.5-.4 1.4.2 1.9.3.2.6.3 1 .3.3 0 .7-.2.9-.5.2-.3.3-.6.3-1s-.2-.7-.5-.9M12 177c-.3-.2-.6-.3-1-.3-.3 0-.7.2-.9.4-.5.5-.4 1.4.1 1.9.3.2.6.3 1 .3.3 0 .7-.2.9-.4.2-.3.3-.6.3-.9 0-.5-.1-.8-.4-1m-.2-5.9c-.3-.2-.6-.4-1-.4-.3 0-.7.2-.9.4-.5.5-.4 1.4.1 1.9.3.2.6.4 1 .3.3 0 .7-.2.9-.4.2-.3.4-.6.3-.9 0-.3-.2-.7-.4-.9m0-5.9c-.3-.2-.6-.4-.9-.4-.3 0-.7.1-1 .4-.5.5-.5 1.4 0 1.9.3.2.6.4.9.4.3 0 .7-.1 1-.4.2-.2.4-.6.4-.9 0-.4-.2-.7-.4-1m2.4 34.8c-.3.1-.7.3-.9.6-.2.3-.3.7-.2 1l2.6-.6c-.1-.3-.3-.6-.6-.8-.2-.2-.6-.3-.9-.2m-6.9 2.8l2.6-.6C7 188.4 5.6 174.1 6.3 160l-2.7-.1c-.7 14.4.7 28.9 3.7 42.9m3.6-41.2c.3 0 .7-.1 1-.3.3-.2.4-.6.4-.9l-2.7-.1c0 .3.1.7.3 1 .3.1.6.3 1 .3m10.7 38.1c-2.7-12.8-4-26-3.3-39.1l-2.7-.1c-.6 13.3.6 26.7 3.4 39.8l2.6-.6zm-9.3-46.2c-.2-.3-.6-.4-.9-.5-.3 0-.7.1-1 .3-.6.4-.6 1.3-.1 1.9.2.3.6.4.9.5.3 0 .7-.1 1-.3.3-.2.4-.6.4-.9.1-.4 0-.7-.3-1m.7-5.8c-.2-.3-.6-.5-.9-.5-.3 0-.7.1-1 .3-.5.4-.6 1.3-.2 1.9.2.3.6.4.9.5.3 0 .7-.1 1-.3.3-.2.4-.5.5-.9 0-.4-.1-.7-.3-1m.9-5.8c-.2-.3-.5-.5-.9-.5-.3-.1-.7 0-1 .2-.6.4-.7 1.3-.3 1.8.2.3.5.5.9.5.3.1.7 0 1-.2.3-.2.5-.5.5-.9 0-.3 0-.6-.2-.9m1-5.8c-.2-.3-.5-.5-.9-.6-.3-.1-.7 0-1 .2-.6.4-.8 1.2-.4 1.8.2.3.5.5.9.6.3.1.7 0 1-.2.3-.2.5-.5.6-.8.1-.3 0-.7-.2-1m1.3-5.7c-.2-.3-.5-.5-.8-.6-.3-.1-.7 0-1 .1-.6.4-.8 1.2-.4 1.8.2.3.5.5.8.6.3.1.7 0 1-.2.3-.2.5-.5.6-.8 0-.2 0-.6-.2-.9m1.5-5.7c-.2-.3-.5-.5-.8-.6-.3-.1-.7-.1-1 .1-.6.3-.8 1.2-.5 1.8.2.3.5.5.8.6.3.1.7 0 1-.1.3-.2.5-.5.6-.8.1-.3.1-.6-.1-1M11 158.9c-.3 0-.7.1-1 .3-.3.2-.4.6-.4.9l2.7.1c0-.3-.1-.7-.3-.9-.3-.2-.6-.3-1-.4m-7.4 1l2.7.1.3-5.3c.1-1.8.4-3.5.5-5.3.3-3.5.9-7 1.5-10.5 1.3-7 2.9-13.9 5.1-20.6l-2.5-.8c-2.2 6.8-3.9 13.9-5.2 21-.6 3.6-1.2 7.1-1.5 10.7-.2 1.8-.5 3.6-.5 5.4l-.4 5.3zM17.8 121c.3.1.7.1 1-.1.3-.2.5-.4.6-.8l-2.5-.8c-.1.3-.1.7.1 1 .2.3.5.6.8.7m.5 39.6l.3-4.9c.1-1.6.3-3.3.5-4.9.3-3.3.9-6.5 1.4-9.7 1.2-6.4 2.7-12.8 4.8-19.1l-2.5-.8c-2.1 6.3-3.6 12.9-4.8 19.4-.5 3.3-1.1 6.6-1.4 9.9-.2 1.7-.4 3.3-.5 5l-.3 5 2.5.1zm3-47c-.2-.3-.4-.6-.8-.7-.3-.1-.7-.1-1 0-.6.3-.9 1.1-.6 1.8.2.3.4.6.8.7.3.1.7.1 1 0 .3-.2.6-.4.7-.7.1-.4.1-.8-.1-1.1m2.2-5.5c-.1-.3-.4-.6-.7-.7-.3-.1-.7-.1-1 0-.6.3-1 1.1-.7 1.7.2.3.4.6.8.7.3.1.7.1 1 0 .3-.1.6-.4.7-.7 0-.3 0-.6-.1-1m2.3-5.3c-.1-.3-.4-.6-.7-.7-.3-.1-.7-.2-1 0-.7.3-1 1.1-.7 1.7.1.3.4.6.7.7.3.1.7.1 1 0 .3-.1.6-.4.7-.7.1-.3.1-.7 0-1m2.5-5.3c-.1-.3-.4-.6-.7-.8-.3-.2-.7-.2-1-.1-.7.2-1 1-.8 1.7.1.3.4.6.7.8.3.2.7.2 1 .1.3-.1.6-.4.7-.7.2-.3.2-.7.1-1m2.7-5.2c-.1-.3-.3-.6-.7-.8-.3-.2-.7-.2-1-.1-.7.2-1.1 1-.9 1.6.1.3.3.6.7.8.3.2.7.2 1 .1.3-.1.6-.3.8-.6.2-.3.2-.7.1-1m2.9-5.1c-.1-.3-.3-.6-.6-.8-.3-.2-.7-.2-1-.2-.7.2-1.1.9-1 1.6.1.3.3.6.6.8.3.2.7.2 1 .2.3-.1.6-.3.8-.6.3-.3.3-.7.2-1"/><path class="st0" d="M18.6 118.5c-.3-.1-.7-.1-1 .1-.3.2-.5.4-.6.8l2.5.8c.1-.3.1-.7-.1-1-.2-.4-.4-.6-.8-.7m-7.4-1l2.5.8c4.2-13.5 10.5-26.4 18-38.4l-2.3-1.4c-7.5 12.2-13.9 25.3-18.2 39M35 83.6c.3.2.7.2 1 .2.3-.1.6-.3.8-.6l-2.2-1.4c-.2.3-.3.7-.2 1 .1.3.3.6.6.8M25.2 122c3.9-12.5 9.7-24.4 16.7-35.5L39.7 85c-7.1 11.3-13 23.4-17 36.2l2.5.8zm15.1-44.6c-.1-.3-.3-.7-.6-.9-.3-.2-.6-.3-1-.2-.7.1-1.2.9-1 1.6.1.3.3.7.6.9.3.2.7.3 1 .2.3-.1.6-.3.8-.5.2-.4.3-.8.2-1.1m3.5-4.8c-.1-.3-.3-.7-.5-.9-.3-.2-.6-.3-1-.3-.7.1-1.2.8-1.1 1.5.1.3.3.7.5.9.3.2.6.3 1 .3.3-.1.7-.2.9-.5.1-.3.2-.6.2-1m3.6-4.6c0-.3-.2-.7-.5-.9-.3-.2-.6-.3-1-.3-.7.1-1.3.7-1.2 1.4 0 .3.2.7.5.9.3.2.6.3 1 .3.3 0 .7-.2.9-.5.3-.2.4-.5.3-.9m3.8-4.4c0-.3-.2-.7-.5-.9-.3-.2-.6-.4-1-.3-.7 0-1.3.7-1.3 1.4 0 .4.2.7.5.9.3.2.6.3 1 .3.3 0 .7-.2.9-.4.3-.3.4-.7.4-1m4-4.4c0-.3-.2-.7-.4-.9-.3-.2-.6-.4-1-.4-.7 0-1.3.7-1.3 1.4 0 .3.2.7.4.9.3.2.6.4.9.4.3 0 .7-.2.9-.4.3-.3.5-.6.5-1m4.1-4.1c0-.3-.2-.7-.4-.9-.2-.3-.6-.4-.9-.4-.7 0-1.3.6-1.3 1.3 0 .3.2.7.4.9s.6.4.9.4c.3 0 .7-.1.9-.4.3-.2.4-.6.4-.9M36.4 81.4c-.3-.2-.7-.3-1-.2-.3.1-.6.3-.8.6l2.2 1.4c.2-.3.3-.6.2-1-.1-.3-.3-.6-.6-.8m-6.9-2.9l2.3 1.4C39.5 68 48.6 57 59.1 47.5l-1.8-2c-10.7 9.7-19.9 21-27.8 33m31.8-26.6c.2.3.6.4.9.4.3 0 .7-.1.9-.3l-1.8-2c-.3.2-.4.6-.4.9 0 .4.2.7.4 1M41.9 86.4c7.2-11 15.6-21.2 25.3-30l-1.8-2C55.5 63.4 47 73.8 39.7 85l2.2 1.4zM68 47.3c0-.3-.1-.7-.3-1-.2-.3-.6-.4-.9-.5-.7-.1-1.4.5-1.4 1.2 0 .3.1.7.3 1 .2.3.6.4.9.5.3 0 .7-.1 1-.3.2-.3.4-.6.4-.9m4.6-3.7c0-.3-.1-.7-.3-1-.2-.3-.5-.5-.9-.5-.7-.1-1.4.5-1.5 1.2 0 .4.1.7.3 1 .2.3.5.5.9.5.3 0 .7-.1 1-.3.2-.3.4-.6.5-.9m4.7-3.5c0-.3 0-.7-.2-1-.2-.3-.5-.5-.9-.5-.7-.1-1.4.4-1.5 1.1 0 .3 0 .7.3 1 .2.3.5.5.9.5.3 0 .7 0 1-.2.1-.3.3-.6.4-.9m4.8-3.3c.1-.3 0-.7-.2-1-.2-.3-.5-.5-.8-.6-.7-.1-1.4.4-1.6 1-.1.3 0 .7.2 1 .2.3.5.5.8.6.3.1.7 0 1-.2.3-.2.5-.5.6-.8m5-3.2c.1-.3 0-.7-.2-1-.2-.3-.5-.5-.8-.6-.7-.2-1.4.3-1.6 1-.1.3 0 .7.2 1 .2.3.5.5.8.6.3.1.7 0 1-.1.3-.2.5-.5.6-.9m5-2.9c.1-.3 0-.7-.1-1-.2-.3-.5-.5-.8-.7-.7-.2-1.5.2-1.6.9-.1.3 0 .7.1 1 .2.3.5.5.8.6.3.1.7 0 1-.1.3-.1.5-.4.6-.7M63.2 50.1c-.2-.3-.6-.4-.9-.4-.3 0-.7.1-.9.4l1.8 2c.3-.2.4-.6.4-.9 0-.4-.1-.8-.4-1.1"/><path class="st0" d="M57.3 45.6l1.8 2c5.2-4.8 10.8-9.2 16.6-13.3 2.9-2 5.9-4 8.9-5.8 1.5-.9 3-1.9 4.6-2.7l4.7-2.5-1.2-2.4-4.8 2.6c-1.6.8-3.1 1.8-4.7 2.7-3.1 1.8-6.1 3.9-9.1 5.9-5.8 4.2-11.5 8.6-16.8 13.5m37.6-17.5c.2.3.5.5.8.7.3.1.7.1 1-.1l-1.2-2.4c-.3.2-.5.4-.7.8-.1.3-.1.7.1 1M67.2 56.5C72 52 77.2 48 82.6 44.2c2.7-1.8 5.4-3.7 8.3-5.3 1.4-.8 2.8-1.7 4.2-2.5l4.3-2.3-1.2-2.4-4.4 2.3c-1.5.8-2.9 1.7-4.3 2.5-2.9 1.7-5.6 3.6-8.4 5.4-5.4 3.9-10.7 7.9-15.6 12.5l1.7 2.1zm35.4-31.1c.1-.3.1-.7-.1-1-.1-.3-.4-.6-.7-.7-.6-.2-1.5.1-1.7.8-.1.3-.1.7.1 1 .2.3.4.6.8.7.3.1.7.1 1 0 .2-.2.4-.5.6-.8m5.3-2.4c.1-.3.1-.7 0-1-.1-.3-.4-.6-.7-.7-.6-.3-1.5.1-1.7.7-.1.3-.1.7 0 1 .1.3.4.6.7.7.3.1.7.1 1 0 .3-.1.6-.4.7-.7m5.5-2.2c.1-.3.1-.7 0-1-.1-.3-.4-.6-.7-.8-.6-.3-1.5 0-1.8.6-.1.3-.1.7 0 1 .1.3.4.6.7.7.3.1.7.1 1 0 .4.1.6-.2.8-.5m5.5-1.9c.1-.3.2-.7.1-1-.1-.3-.4-.6-.7-.8-.6-.3-1.5 0-1.8.6-.1.3-.2.7 0 1 .1.3.4.6.7.8.3.1.7.2 1 .1.3-.2.5-.4.7-.7m5.6-1.8c.2-.3.2-.7.1-1-.1-.3-.3-.6-.6-.8-.6-.3-1.5-.1-1.8.5-.2.3-.2.7-.1 1 .1.3.3.6.6.8.3.2.7.2 1 .1.4 0 .6-.3.8-.6m5.7-1.5c.2-.3.2-.7.1-1-.1-.3-.3-.6-.6-.8-.6-.4-1.5-.2-1.8.4-.2.3-.2.7-.1 1 .1.3.3.6.6.8.3.2.7.2 1 .2.3-.1.6-.3.8-.6"/><path class="st0" d="M97.2 26.9c-.2-.3-.4-.6-.8-.7-.3-.1-.7 0-1 .1l1.2 2.4c.3-.2.5-.5.6-.8.2-.4.1-.7 0-1m-4.5-6l1.2 2.4C106.5 16.8 120 12 133.8 8.9l-.6-2.6c-14 3.2-27.8 8-40.5 14.6m40.8-7.1c.1.3.3.6.6.8.3.2.7.2 1 .2l-.6-2.6c-.3.1-.6.3-.8.6-.2.3-.3.7-.2 1M99.4 34c11.6-6 24.1-10.4 36.9-13.3l-.6-2.6c-13 3-25.7 7.4-37.6 13.6l1.3 2.3zm42.2-20.8c.2-.3.3-.7.2-1-.1-.3-.3-.7-.5-.9-.6-.4-1.4-.2-1.8.4-.2.3-.3.7-.2 1 .1.3.3.7.5.9.3.2.6.3 1 .2.3-.2.6-.4.8-.6m5.8-.9c.2-.3.3-.6.2-1 0-.3-.2-.7-.5-.9-.5-.4-1.4-.3-1.9.3-.2.3-.3.6-.2 1 .1.3.2.7.5.9.3.2.6.3 1 .3.4-.2.7-.4.9-.6m5.8-.7c.2-.3.3-.6.3-1 0-.3-.2-.7-.5-.9-.5-.4-1.4-.4-1.9.2-.2.3-.3.6-.3 1 0 .3.2.7.5.9.3.2.6.3 1 .3.4-.1.7-.3.9-.5m5.9-.5c.2-.3.3-.6.3-1 0-.3-.2-.7-.4-.9-.5-.5-1.4-.4-1.9.1-.2.3-.3.6-.3 1 0 .3.2.7.4.9.3.2.6.3.9.3.4 0 .7-.2 1-.4m5.8-.2c.2-.3.4-.6.4-1 0-.3-.2-.7-.4-.9-.5-.5-1.4-.4-1.9.1-.2.3-.4.6-.3 1 0 .3.2.7.4.9.3.2.6.4.9.3.4 0 .7-.2.9-.4m5.9-.1c.2-.3.4-.6.4-.9 0-.3-.1-.7-.4-1-.5-.5-1.4-.5-1.9 0-.2.3-.4.6-.4.9 0 .3.1.7.4 1 .2.2.6.4.9.4.4 0 .7-.1 1-.4"/><path class="st0" d="M136 13.3c-.1-.3-.3-.7-.6-.9-.3-.2-.7-.3-1-.2l.6 2.6c.3-.1.6-.3.8-.6.2-.2.3-.6.2-.9m-2.8-7l.6 2.6c13.8-2.9 28-4.2 42.2-3.6l.1-2.7c-14.4-.6-28.8.7-42.9 3.7m41.3 3.6c0 .3.1.7.3 1 .2.3.6.4.9.4l.1-2.7c-.3 0-.7.1-1 .3-.2.4-.3.7-.3 1m-38.2 10.8c12.8-2.7 26-4 39.1-3.3l.1-2.7c-13.3-.6-26.7.6-39.8 3.4l.6 2.6zm40.8-10.6c0-.3-.1-.7-.3-1-.2-.3-.6-.4-.9-.4l-.1 2.7c.3 0 .7-.1.9-.3.2-.3.4-.7.4-1m-1-7.4l-.1 2.6 5.3.3c1.8.1 3.5.4 5.3.5 3.5.3 7 .9 10.5 1.5 7 1.3 13.9 2.9 20.6 5.1l.8-2.5c-6.8-2.3-13.9-3.9-20.9-5.2-3.6-.6-7.1-1.2-10.7-1.5-1.8-.2-3.6-.5-5.4-.5l-5.4-.3zm-.7 14.7l4.9.3c1.6.1 3.3.3 4.9.5 3.3.3 6.5.9 9.7 1.4 6.4 1.2 12.8 2.7 19.1 4.8l.8-2.5c-6.3-2.1-12.9-3.6-19.4-4.8-3.3-.5-6.6-1.1-9.9-1.4-1.7-.2-3.3-.4-5-.5l-5-.3-.1 2.5zm2.5 306.6c-.2.3-.3.6-.3 1 0 .3.2.7.4.9.5.5 1.4.4 1.9-.1.2-.3.3-.6.3-1 0-.3-.2-.7-.4-.9-.3-.2-.6-.3-.9-.3-.5 0-.8.2-1 .4m-5.9.2c-.2.3-.4.6-.4 1 0 .3.2.7.4.9.5.5 1.4.4 1.9-.1.2-.3.4-.6.3-1 0-.3-.2-.7-.4-.9-.3-.2-.6-.4-.9-.3-.3 0-.6.2-.9.4m-5.8.1c-.2.3-.4.6-.4.9 0 .3.1.7.4 1 .5.5 1.4.5 1.9 0 .2-.3.4-.6.4-.9 0-.3-.1-.7-.4-1-.2-.2-.6-.4-.9-.4-.4 0-.8.1-1 .4m37.6 4.5l-.6-2.6c-13.8 2.9-28.1 4.3-42.2 3.6l-.1 2.7c14.3.6 28.8-.7 42.9-3.7m-41.3-3.6c0-.3-.1-.7-.3-1-.2-.3-.6-.4-.9-.4l-.1 2.7c.3 0 .7-.1 1-.3.1-.4.3-.7.3-1m38.1-10.8c-12.8 2.7-26 4-39.1 3.3l-.1 2.7c13.3.6 26.7-.6 39.8-3.4l-.6-2.6zm-46.1 9.3c-.3.2-.4.6-.5.9 0 .3.1.7.3 1 .4.6 1.3.6 1.9.1.3-.2.4-.6.5-.9 0-.3-.1-.7-.3-1-.2-.3-.6-.4-.9-.4-.4 0-.8.1-1 .3m-5.9-.7c-.3.2-.5.6-.5.9 0 .3.1.7.3 1 .4.5 1.3.6 1.9.2.3-.2.4-.6.5-.9 0-.3-.1-.7-.3-1-.2-.3-.5-.4-.9-.5-.3 0-.7.1-1 .3m-5.8-.8c-.3.2-.5.5-.5.9-.1.3 0 .7.2 1 .4.6 1.3.7 1.8.3.3-.2.5-.5.5-.9.1-.3 0-.7-.2-1-.2-.3-.5-.5-.9-.5-.2-.1-.6 0-.9.2m-5.7-1.1c-.3.2-.5.5-.6.9-.1.3 0 .7.2 1 .4.6 1.2.8 1.8.4.3-.2.5-.5.6-.9.1-.3 0-.7-.2-1-.2-.3-.5-.5-.8-.6-.4-.1-.7 0-1 .2m-5.7-1.3c-.3.2-.5.5-.6.8-.1.3 0 .7.1 1 .4.6 1.2.8 1.8.4.3-.2.5-.5.6-.8.1-.3 0-.7-.2-1-.2-.3-.5-.5-.8-.6-.3 0-.7.1-.9.2m-5.7-1.5c-.3.2-.5.5-.6.8-.1.3-.1.7.1 1 .3.6 1.2.8 1.8.5.3-.2.5-.5.6-.8s0-.7-.1-1c-.2-.3-.5-.5-.8-.6-.3-.1-.7 0-1 .1m34.2 6.7c0 .3.1.7.3 1 .2.3.6.4.9.4l.1-2.7c-.3 0-.7.1-.9.3-.2.3-.4.7-.4 1m1 7.4l.1-2.7-5.3-.3c-1.8-.1-3.5-.4-5.3-.5-3.5-.3-7-.9-10.5-1.5-7-1.3-13.9-2.9-20.6-5.1l-.8 2.5c6.8 2.3 13.9 3.9 20.9 5.2 3.6.6 7.1 1.2 10.7 1.5 1.8.2 3.6.5 5.4.5l5.4.4zm-39-14.2c.1-.3.1-.7-.1-1-.2-.3-.4-.5-.8-.6l-.8 2.5c.3.1.7.1 1-.1.4-.2.6-.5.7-.8m39.6-.5l-4.9-.3c-1.6-.1-3.3-.3-4.9-.5-3.3-.3-6.5-.9-9.7-1.4-6.4-1.2-12.8-2.7-19.1-4.8l-.8 2.5c6.3 2.1 12.9 3.6 19.4 4.8 3.3.5 6.6 1.1 9.9 1.4 1.7.2 3.3.4 5 .5l5 .3.1-2.5zm-47-3c-.3.2-.6.4-.7.8-.1.3-.1.7 0 1 .3.6 1.1.9 1.8.6.3-.2.6-.4.7-.8.1-.3.1-.7 0-1-.2-.3-.4-.6-.7-.7-.4-.1-.7 0-1.1.1m-5.4-2.1c-.3.1-.6.4-.7.7-.1.3-.1.7 0 1 .3.6 1.1 1 1.7.7.3-.2.6-.4.7-.8.1-.3.1-.7 0-1-.1-.3-.4-.6-.7-.7-.3-.1-.7 0-1 .1m-5.4-2.3c-.3.1-.6.4-.7.7-.1.3-.2.7 0 1 .3.7 1.1 1 1.7.7.3-.1.6-.4.7-.7.1-.3.1-.7 0-1-.1-.3-.4-.6-.7-.7-.3-.1-.7-.1-1 0m-5.3-2.6c-.3.1-.6.4-.8.7-.2.3-.2.7-.1 1 .2.7 1 1 1.7.8.3-.1.6-.4.8-.7.2-.3.2-.7.1-1-.1-.3-.4-.6-.7-.7-.3-.2-.7-.2-1-.1m-5.2-2.7c-.3.1-.6.3-.8.7-.2.3-.2.7-.1 1 .2.7 1 1.1 1.6.9.3-.1.6-.3.8-.7.2-.3.2-.7.1-1-.1-.3-.3-.6-.6-.8-.3-.2-.6-.2-1-.1m-5.1-2.9c-.3.1-.6.3-.8.6-.2.3-.2.7-.2 1 .2.7.9 1.1 1.6 1 .3-.1.6-.3.8-.6.2-.3.2-.7.2-1-.1-.3-.3-.6-.6-.8-.3-.2-.6-.3-1-.2"/><path class="st0" d="M119.4 317.4c-.1.3-.1.7.1 1 .2.3.4.5.8.6l.8-2.5c-.3-.1-.7-.1-1 .1-.3.2-.6.5-.7.8m-1 7.4l.8-2.5c-13.5-4.2-26.4-10.5-38.4-18l-1.4 2.3c12.2 7.6 25.3 13.9 39 18.2M84.5 301c.2-.3.2-.7.2-1-.1-.3-.3-.6-.6-.8l-1.4 2.2c.3.2.7.3 1 .2.3-.1.6-.3.8-.6m38.4 9.8c-12.5-3.9-24.4-9.7-35.5-16.7l-1.4 2.3c11.3 7.1 23.4 13 36.2 17l.7-2.6zm-44.6-15.1c-.3.1-.7.3-.9.6-.2.3-.3.6-.2 1 .1.7.9 1.2 1.6 1 .3-.1.7-.3.9-.6.2-.3.3-.7.2-1-.1-.3-.3-.6-.5-.8-.4-.2-.8-.2-1.1-.2m-4.7-3.5c-.3.1-.7.3-.9.5-.2.3-.3.6-.3 1 .1.7.8 1.2 1.5 1.1.3-.1.7-.3.9-.5.2-.3.3-.6.3-1-.1-.3-.2-.7-.5-.9-.3-.1-.7-.2-1-.2m-4.6-3.6c-.3 0-.7.2-.9.5-.2.3-.3.6-.3 1 .1.7.7 1.3 1.4 1.2.3 0 .7-.2.9-.5.2-.3.3-.6.3-1 0-.3-.2-.7-.5-.9-.2-.2-.6-.3-.9-.3m-4.5-3.8c-.3 0-.7.2-.9.5-.2.3-.4.6-.3 1 0 .7.7 1.3 1.4 1.3.4 0 .7-.2.9-.5.2-.3.3-.6.3-1 0-.3-.2-.7-.4-.9-.3-.3-.6-.4-1-.4m-4.3-3.9c-.3 0-.7.2-.9.4-.2.3-.4.6-.4 1 0 .7.7 1.3 1.4 1.3.3 0 .7-.2.9-.4.2-.3.4-.6.4-.9 0-.3-.2-.7-.4-.9-.3-.4-.7-.5-1-.5m-4.2-4.2c-.3 0-.7.2-1 .4-.2.2-.4.6-.4.9 0 .7.6 1.3 1.3 1.3.3 0 .7-.2.9-.4.2-.2.4-.6.4-.9 0-.3-.1-.7-.4-.9-.1-.2-.4-.4-.8-.4"/><path class="st0" d="M82.3 299.6c-.2.3-.3.7-.2 1 .1.3.3.6.6.8l1.4-2.2c-.3-.2-.6-.3-1-.2-.3.1-.6.3-.8.6m-2.9 6.9l1.4-2.3C69 296.5 58 287.4 48.5 276.9l-2 1.8c9.7 10.7 20.9 19.9 32.9 27.8m-26.6-31.8c.3-.2.4-.6.4-.9 0-.3-.1-.7-.3-.9l-2 1.8c.2.3.6.4.9.4.4 0 .8-.1 1-.4m34.6 19.4c-11-7.2-21.2-15.6-30-25.3l-2 1.8c8.9 9.9 19.3 18.5 30.5 25.8l1.5-2.3zM48.2 268c-.3 0-.7.1-1 .3-.3.2-.4.6-.5.9-.1.7.5 1.4 1.2 1.4.3 0 .7-.1 1-.3.3-.2.4-.6.5-.9 0-.3-.1-.7-.3-1-.2-.2-.6-.3-.9-.4m-3.7-4.5c-.3 0-.7.1-1 .3-.3.2-.5.5-.5.9-.1.7.5 1.4 1.2 1.5.4 0 .7-.1 1-.3.3-.2.5-.5.5-.9 0-.3-.1-.7-.3-1-.3-.3-.6-.5-.9-.5m-3.5-4.7c-.3 0-.7 0-1 .2-.3.2-.5.5-.5.9-.1.7.4 1.4 1.1 1.5.3 0 .7-.1 1-.3.3-.2.5-.5.5-.9 0-.3 0-.7-.2-1-.2-.2-.6-.4-.9-.4m-3.3-4.9c-.3-.1-.7 0-1 .2-.3.2-.5.5-.6.8-.1.7.4 1.4 1 1.6.3.1.7 0 1-.2.3-.2.5-.5.6-.8.1-.3 0-.7-.2-1-.2-.3-.5-.5-.8-.6m-3.1-4.9c-.3-.1-.7 0-1 .2-.3.2-.5.5-.6.8-.2.7.3 1.4 1 1.6.3.1.7 0 1-.2.3-.2.5-.5.6-.8.1-.3 0-.7-.1-1-.3-.3-.6-.5-.9-.6m-3-5.1c-.3-.1-.7 0-1 .1-.3.2-.5.5-.7.8-.2.7.2 1.5.9 1.6.3.1.7 0 1-.1.3-.2.5-.5.6-.8.1-.3 0-.7-.1-1-.1-.3-.4-.5-.7-.6"/><path class="st0" d="M51.1 272.8c-.3.2-.4.6-.4.9 0 .3.1.7.4.9l2-1.8c-.2-.3-.6-.4-.9-.4-.5 0-.9.2-1.1.4m-4.6 5.9l2-1.8c-4.8-5.2-9.2-10.8-13.3-16.6-2-2.9-4-5.9-5.8-8.9-.9-1.5-1.9-3-2.7-4.6l-2.5-4.7-2.4 1.2 2.6 4.8c.8 1.6 1.8 3.1 2.7 4.7 1.8 3.1 3.9 6.1 5.9 9.1 4.2 5.8 8.6 11.6 13.5 16.8M29 241.2c.3-.2.5-.5.7-.8.1-.3.1-.7-.1-1l-2.4 1.2c.2.3.4.5.8.7.3 0 .7 0 1-.1m28.4 27.6c-4.5-4.8-8.5-10-12.3-15.3-1.8-2.7-3.7-5.4-5.3-8.3-.8-1.4-1.7-2.8-2.5-4.2l-2.3-4.3-2.4 1.2 2.4 4.4c.8 1.5 1.7 2.9 2.5 4.3 1.7 2.9 3.6 5.6 5.4 8.4 3.9 5.4 8 10.7 12.5 15.6l2-1.8zm-31.1-35.3c-.3-.1-.7-.1-1 .1-.3.1-.6.4-.7.7-.2.6.1 1.5.8 1.7.3.1.7.1 1-.1.3-.2.6-.4.7-.8.1-.3.1-.7 0-1-.2-.3-.5-.5-.8-.6m-2.4-5.4c-.3-.1-.7-.1-1 0-.3.1-.6.4-.7.7-.3.6.1 1.5.7 1.7.3.1.7.1 1 0 .3-.1.6-.4.7-.7.1-.3.1-.7 0-1-.1-.3-.4-.6-.7-.7m-2.1-5.4c-.3-.1-.7-.1-1 0-.3.1-.6.4-.8.7-.3.6 0 1.5.6 1.8.3.1.7.1 1 0 .3-.1.6-.4.7-.7.1-.3.1-.7 0-1 0-.4-.2-.7-.5-.8m-2-5.6c-.3-.1-.7-.2-1-.1-.3.1-.6.4-.8.7-.3.6 0 1.5.6 1.8.3.1.7.2 1 0 .3-.1.6-.4.8-.7.1-.3.2-.7.1-1-.1-.2-.4-.5-.7-.7m-1.7-5.6c-.3-.2-.7-.2-1-.1-.3.1-.6.3-.8.6-.3.6-.1 1.5.5 1.8.3.2.7.2 1 .1.3-.1.6-.3.8-.6.2-.3.2-.7.1-1-.1-.3-.3-.6-.6-.8m-1.6-5.6c-.3-.2-.7-.2-1-.1-.3.1-.6.3-.8.6-.4.6-.1 1.5.4 1.8.3.2.7.2 1 .1.3-.1.6-.3.8-.6.2-.3.2-.7.2-1 0-.4-.3-.7-.6-.8"/><path class="st0" d="M27.8 238.8c-.3.2-.6.4-.7.8-.1.3-.1.7.1 1l2.4-1.2c-.2-.3-.5-.5-.8-.6-.3-.1-.7-.1-1 0m-5.9 4.6l2.4-1.2c-6.5-12.6-11.3-26.1-14.4-39.9l-2.6.6c3.1 14 7.9 27.7 14.6 40.5m-7.1-40.9c.3-.1.6-.3.8-.6.2-.3.2-.7.2-1l-2.6.6c.1.3.3.6.6.8.2.3.6.3 1 .2m20.1 34.1c-6-11.6-10.4-24.1-13.3-36.9l-2.6.6c3 13 7.4 25.7 13.6 37.6l2.3-1.3zm30.4-50c.3.2.7.3 1 .2.3-.1.7-.3.9-.6.2-.3.3-.7.2-1-.1-.3-.3-.6-.6-.9-.3-.2-.6-.3-1-.2-.3.1-.7.3-.9.5-.3.7-.2 1.6.4 2m-.7-4.4c.3.2.6.3 1 .2.4-.1.7-.2.9-.5.2-.3.3-.6.3-1 0-.3-.2-.7-.5-.9-.3-.2-.7-.3-1-.3-.3 0-.7.2-.9.5-.5.6-.4 1.5.2 2m-.5-4.5c.3.2.6.3 1 .3.3 0 .7-.2.9-.5.2-.3.3-.6.3-1 0-.3-.2-.7-.5-.9-.3-.2-.6-.3-1-.3-.3 0-.7.2-.9.5-.5.6-.4 1.5.2 1.9m1.5 12.4l2.6-.6c-.1-.3-.3-.6-.6-.8-.3-.2-.7-.3-1-.2-.3.1-.7.3-.9.6-.1.3-.2.6-.1 1m-1.9-16.8c.3.2.6.4 1 .3.3 0 .7-.2.9-.4.2-.3.4-.6.4-1l-2.7.1c0 .4.1.8.4 1m-.2-4.5c.3.2.6.4 1 .4s.7-.2.9-.4c.3-.3.4-.6.4-.9 0-.3-.1-.7-.4-.9-.2-.2-.6-.4-.9-.4-.3 0-.7.1-1 .4-.4.4-.5 1.4 0 1.8m.1-4.4c.2.2.6.4.9.4.4 0 .7-.1 1-.4.2-.2.4-.6.4-.9 0-.3-.1-.7-.3-1-.2-.2-.6-.4-.9-.4-.3 0-.7.1-1 .3-.6.6-.6 1.5-.1 2m.2-4.5c.2.3.6.4.9.5.3 0 .7-.1 1-.3.3-.2.4-.6.4-.9 0-.3-.1-.7-.3-1-.2-.3-.6-.4-.9-.5-.3 0-.7.1-1 .3-.5.5-.5 1.4-.1 1.9"/><path class="st0" d="M63.3 172.4l2.7-.1c0-.3-.2-.7-.4-.9-.3-.2-.6-.4-1-.4-.3 0-.7.2-.9.4-.3.2-.4.6-.4 1m.9-16.9c.2.3.6.5.9.5.3 0 .7-.1 1-.3.3-.2.5-.5.5-.9l-2.6-.3c-.1.4 0 .7.2 1m.6-4.4c.2.3.5.5.9.5.3.1.7 0 1-.2.3-.2.5-.5.5-.9.1-.3 0-.7-.2-1-.2-.3-.5-.5-.9-.5-.3-.1-.7 0-1 .2-.5.4-.7 1.3-.3 1.9m.8-4.4c.2.3.5.5.8.6.4.1.7 0 1-.2.3-.2.5-.5.6-.8.1-.3 0-.7-.2-1-.2-.3-.5-.5-.8-.6-.3-.1-.7 0-1 .2-.6.3-.7 1.2-.4 1.8m1-4.3c.2.3.5.5.8.6.3.1.7 0 1-.1.3-.2.5-.5.6-.8.1-.3 0-.7-.1-1-.2-.3-.5-.5-.8-.6-.3-.1-.7 0-1 .1-.6.3-.8 1.2-.5 1.8"/><path class="st0" d="M64 154.5l2.6.3c0-.3-.1-.7-.3-1-.2-.3-.5-.5-.9-.5-.3 0-.7.1-1 .3-.2.2-.4.6-.4.9m3.8-16.4c.2.3.5.5.8.6.3.1.7.1 1-.1.3-.2.6-.5.7-.8l-2.5-.8c-.2.4-.2.8 0 1.1m1.3-4.3c.2.3.5.6.8.7.3.1.7.1 1-.1.3-.2.6-.4.7-.8.1-.3.1-.7 0-1-.2-.3-.4-.6-.8-.7-.3-.1-.7-.1-1 0-.7.4-1 1.3-.7 1.9m1.5-4.2c.2.3.4.6.7.7.3.1.7.1 1 0 .3-.1.6-.4.7-.7.1-.3.1-.7 0-1-.1-.3-.4-.6-.7-.7-.3-.1-.7-.1-1 0-.6.2-1 1.1-.7 1.7m1.7-4.1c.1.3.4.6.7.7.3.1.7.1 1 0 .3-.1.6-.4.7-.7.1-.3.1-.7 0-1-.1-.3-.4-.6-.7-.7-.3-.1-.7-.2-1 0-.6.2-.9 1.1-.7 1.7"/><path class="st0" d="M67.7 137l2.5.8c.1-.3.1-.7-.1-1-.2-.3-.5-.5-.8-.7-.3-.1-.7-.1-1 .1-.3.2-.5.5-.6.8m6.5-15.5c.1.3.4.6.7.8.3.2.7.2 1 .1.3-.1.6-.4.8-.7l-2.4-1.2c-.1.3-.2.6-.1 1m2.1-4c.1.3.3.6.6.8.3.2.7.2 1 .1.3-.1.6-.3.8-.6.2-.3.2-.7.1-1-.1-.3-.3-.6-.6-.8-.3-.2-.7-.2-1-.1-.7.1-1.1.9-.9 1.6m2.2-3.8c.1.3.3.6.6.8.3.2.7.2 1 .2.3-.1.6-.3.8-.6.2-.3.2-.7.2-1-.1-.3-.3-.6-.6-.8-.3-.2-.7-.2-1-.2-.7.1-1.2.9-1 1.6m2.3-3.8c.1.3.3.7.6.8.3.2.7.3 1 .2.3-.1.7-.3.8-.6.2-.3.3-.6.2-1-.1-.3-.3-.7-.6-.9-.3-.2-.7-.3-1-.2-.6.2-1.1 1-1 1.7"/><path class="st0" d="M74.3 120.5l2.4 1.2c.1-.3.2-.7.1-1-.1-.3-.4-.6-.7-.8-.3-.2-.7-.2-1-.1-.4.1-.6.3-.8.7m9.1-14.3c.1.3.3.7.5.9.3.2.7.3 1 .2.4-.1.7-.2.9-.5l-2.1-1.6c-.3.3-.4.7-.3 1m2.6-3.6c0 .3.2.7.5.9.3.2.6.3 1 .3s.7-.2.9-.5c.2-.3.3-.6.3-1 0-.3-.2-.7-.5-.9-.3-.2-.6-.3-1-.3-.7.1-1.2.8-1.2 1.5m2.9-3.4c0 .4.2.7.5.9.3.2.6.3 1 .3.3 0 .7-.2.9-.5.2-.3.3-.6.3-1 0-.3-.2-.7-.5-.9-.3-.2-.6-.4-1-.3-.7.1-1.3.8-1.2 1.5m2.9-3.3c0 .4.2.7.4.9.3.2.6.4 1 .4.3 0 .7-.2.9-.4.2-.2.4-.6.4-.9 0-.3-.2-.7-.4-.9-.2-.2-.6-.4-1-.4-.7-.1-1.3.6-1.3 1.3"/><path class="st0" d="M83.6 105.2l2.1 1.6c.2-.3.3-.6.2-1-.1-.3-.3-.7-.5-.9-.3-.2-.6-.3-1-.3-.2.1-.6.3-.8.6M95 92.7c0 .4.1.7.4.9.2.2.6.4.9.4.4 0 .7-.1.9-.4l-1.8-1.9c-.3.3-.5.6-.4 1m3.2-3.1c0 .3.1.7.3 1 .2.3.6.4.9.4.4 0 .7-.1 1-.3.3-.2.4-.6.4-.9 0-.4-.1-.7-.3-1-.2-.3-.6-.4-.9-.5-.7 0-1.4.6-1.4 1.3m3.4-2.9c0 .3.1.7.3 1 .2.3.6.4.9.5.3 0 .7-.1 1-.3.3-.2.4-.6.5-.9 0-.3-.1-.7-.3-1-.2-.3-.5-.4-.9-.5-.8-.1-1.5.5-1.5 1.2M105 84c0 .3.1.7.3 1 .2.3.5.5.9.5.3 0 .7 0 1-.2.3-.2.5-.5.5-.9 0-.3 0-.7-.3-1-.2-.3-.5-.5-.9-.5-.6-.2-1.3.4-1.5 1.1"/><path class="st0" d="M95.4 91.8l1.8 1.9c.2-.2.4-.6.4-.9 0-.3-.1-.7-.4-.9-.2-.3-.6-.4-.9-.4-.4-.2-.7 0-.9.3m13.2-10.5c-.1.3 0 .7.2 1 .2.3.5.5.9.6.4.1.7 0 1-.2l-1.5-2.2c-.3.2-.5.5-.6.8m3.8-2.4c-.1.3 0 .7.2 1 .2.3.5.5.8.6.4.1.7 0 1-.2.3-.2.5-.5.6-.8.1-.3 0-.7-.2-1-.2-.3-.5-.5-.8-.6-.7-.2-1.5.3-1.6 1m3.8-2.3c-.1.3 0 .7.1 1 .2.3.5.5.8.6.3.1.7 0 1-.1.3-.2.5-.5.6-.8.1-.3 0-.7-.1-1-.2-.3-.5-.5-.8-.6-.6-.3-1.5.2-1.6.9m3.9-2.2c-.1.3-.1.7.1 1 .2.3.5.5.8.7.3.1.7.1 1-.1.3-.2.5-.4.7-.8.1-.3.1-.7-.1-1-.2-.3-.4-.6-.8-.7-.7-.2-1.5.3-1.7.9"/><path class="st0" d="M109.2 80.5l1.5 2.2c.3-.2.5-.5.6-.8.1-.3 0-.7-.2-1-.2-.3-.5-.5-.8-.6-.4-.1-.8 0-1.1.2m14.9-8c-.1.3-.1.7.1 1 .1.3.4.6.7.7.3.1.7.1 1 0l-1.1-2.4c-.3.1-.6.3-.7.7m4.1-1.8c-.1.3-.1.7 0 1 .1.3.4.6.7.7.3.1.7.1 1 0 .3-.1.6-.4.7-.7.1-.3.1-.7 0-1-.1-.3-.4-.6-.7-.7-.6-.3-1.5 0-1.7.7m4.1-1.6c-.1.3-.2.7 0 1 .1.3.4.6.7.8.3.1.7.2 1 .1.3-.1.6-.4.8-.7.1-.3.2-.7.1-1-.1-.3-.4-.6-.7-.8-.7-.4-1.6-.1-1.9.6m4.2-1.5c-.2.3-.2.7-.1 1 .1.3.4.6.7.8.3.2.7.2 1 .1.3-.1.6-.3.8-.6.2-.3.2-.7.1-1-.1-.3-.3-.6-.6-.8-.7-.4-1.5-.1-1.9.5m-11.7 4.1l1.1 2.4c.3-.1.6-.4.7-.8.1-.3.1-.7 0-1-.1-.3-.4-.6-.7-.7-.4-.1-.8 0-1.1.1m16-5.4c-.2.3-.2.7-.1 1 .1.3.3.6.6.8.3.2.7.2 1 .2l-.7-2.6c-.3.1-.6.3-.8.6m4.3-1c-.2.3-.2.7-.2 1 .1.3.3.6.6.8.3.2.7.2 1 .2.3-.1.6-.3.8-.6.2-.3.3-.7.2-1-.1-.3-.3-.7-.6-.9-.5-.3-1.4-.1-1.8.5m4.4-.9c-.2.3-.3.7-.2 1 .1.4.3.7.6.9.3.2.7.3 1 .2.3-.1.6-.3.9-.6.2-.3.3-.6.2-1-.1-.3-.3-.7-.5-.9-.7-.4-1.6-.2-2 .4m4.4-.7c-.2.3-.3.6-.2 1 .1.3.2.7.5.9.3.2.6.3 1 .3.3 0 .7-.2.9-.5.2-.3.3-.7.3-1 0-.3-.2-.7-.5-.9-.7-.5-1.6-.4-2 .2"/><path class="st0" d="M141.6 65.7l.7 2.6c.3-.1.6-.3.8-.6.2-.3.2-.7.1-1-.1-.3-.3-.6-.6-.8-.3-.2-.6-.2-1-.2m16.7-2.6c-.2.3-.3.6-.3 1 0 .3.2.7.5.9.3.2.6.3 1 .3l-.2-2.6c-.4 0-.8.2-1 .4m4.4-.3c-.2.3-.4.6-.3 1 0 .3.2.7.4.9.3.2.6.4 1 .4.3 0 .7-.2.9-.4.2-.3.4-.6.3-1 0-.3-.2-.7-.4-.9-.5-.6-1.4-.5-1.9 0m4.5-.2c-.2.3-.4.6-.4 1s.2.7.4.9c.3.2.6.4.9.4.3 0 .7-.1.9-.4.2-.2.4-.6.4-.9 0-.3-.1-.7-.4-1-.4-.5-1.3-.5-1.8 0m4.4 0c-.2.3-.4.6-.4.9 0 .3.1.7.4 1 .2.2.6.4.9.4.3 0 .7-.1 1-.3.2-.2.4-.6.4-.9 0-.3-.1-.7-.3-1-.5-.5-1.4-.6-2-.1"/><path class="st0" d="M159.2 62.7l.2 2.6c.3 0 .7-.2.9-.5.2-.3.3-.6.3-1 0-.3-.2-.7-.5-.9-.2-.2-.5-.3-.9-.2m16.9.2c-.3.2-.4.6-.5.9 0 .3.1.7.3 1 .2.3.6.4.9.4l.2-2.6c-.3-.1-.6.1-.9.3m1-.3l-.2 2.6c.3 0 .7-.1 1-.3.3-.2.4-.6.5-.9 0-.3-.1-.7-.3-1-.3-.3-.7-.4-1-.4m1.6 209.4c.2-.3.3-.6.3-1s-.2-.7-.5-.9c-.3-.2-.6-.3-1-.3-.3 0-.7.2-.9.5-.2.3-.3.6-.3 1 0 .3.2.7.5.9.5.4 1.4.3 1.9-.2m-4.5.3c.2-.3.4-.6.3-1 0-.3-.2-.7-.4-.9-.3-.2-.6-.4-1-.4-.3 0-.7.2-.9.4-.2.3-.4.6-.3 1 0 .3.2.7.4.9.5.6 1.4.5 1.9 0m-4.4.2c.2-.3.4-.6.4-1s-.2-.7-.4-.9c-.3-.3-.6-.4-.9-.4v2.7c.3 0 .6-.2.9-.4m-4.5 0c.2-.2.4-.6.4-.9 0-.3-.1-.7-.4-1-.2-.3-.6-.4-.9-.4-.3 0-.7.1-.9.3-.2.2-.4.6-.4.9 0 .3.1.7.3 1 .5.5 1.4.6 1.9.1m-4.4-.3c.3-.2.4-.6.5-.9 0-.4-.1-.7-.3-1-.2-.3-.6-.4-.9-.4-.3 0-.7.1-1 .3-.3.2-.4.6-.5.9 0 .3.1.7.3 1 .4.5 1.3.6 1.9.1m-4.5-.4c.3-.2.5-.6.5-.9 0-.3-.1-.7-.3-1-.2-.3-.5-.5-.9-.5-.3 0-.7.1-1 .3-.3.2-.5.5-.5.9 0 .3.1.7.3 1 .5.5 1.4.6 1.9.2m12.4 1.1v-2.7c-.3 0-.7.1-.9.4-.2.2-.4.6-.4.9 0 .3.1.7.4 1 .2.2.6.4.9.4m-16.8-1.7c.3-.2.5-.5.5-.9.1-.3 0-.7-.2-1-.2-.3-.5-.5-.9-.5l-.4 2.6c.4.1.7 0 1-.2m-4.4-.8c.3-.2.5-.5.6-.8.1-.3 0-.7-.2-1-.2-.3-.5-.5-.8-.6-.3-.1-.7 0-1 .2-.3.2-.5.5-.6.8-.1.3 0 .7.2 1 .4.6 1.3.8 1.8.4m-4.3-1c.3-.2.5-.5.6-.8.1-.4 0-.7-.1-1-.2-.3-.5-.5-.8-.6-.3-.1-.7 0-1 .1-.3.2-.5.5-.6.8-.1.3 0 .7.1 1 .3.6 1.2.9 1.8.5m-4.3-1.1c.3-.2.5-.5.6-.8.1-.3.1-.7-.1-1-.2-.3-.5-.6-.8-.7-.3-.1-.7-.1-1 .1-.3.2-.5.5-.7.8-.1.3-.1.7.1 1 .4.6 1.3.9 1.9.6m12 3.1l.4-2.6c-.3-.1-.7 0-1 .2-.3.2-.5.5-.5.9-.1.3 0 .7.2 1 .2.3.6.4.9.5m-16.3-4.5c.3-.2.6-.5.7-.8.1-.3.1-.7-.1-1-.2-.3-.4-.6-.8-.7l-.9 2.5c.5.2.8.2 1.1 0m-4.1-1.5c.3-.2.6-.4.7-.7.1-.3.1-.7 0-1-.1-.3-.4-.6-.7-.7-.3-.1-.7-.1-1 0-.3.1-.6.4-.7.7-.1.3-.1.7 0 1 .2.6 1 1 1.7.7m-4.2-1.7c.3-.1.6-.4.7-.7.1-.3.1-.7 0-1-.1-.3-.4-.6-.7-.7-.3-.1-.7-.1-1 0-.3.1-.6.4-.7.7-.1.3-.2.7 0 1 .2.6 1.1.9 1.7.7m-4-1.9c.3-.1.6-.4.8-.7.2-.3.2-.7.1-1-.1-.3-.4-.6-.7-.8-.3-.1-.7-.2-1-.1-.3.1-.6.4-.8.7-.2.3-.2.7-.1 1 .2.7 1 1.1 1.7.9"/><path class="st0" d="M133.7 267l.9-2.5c-.3-.1-.7-.1-1 0-.3.2-.6.4-.7.8-.1.3-.1.7 0 1 .2.3.5.5.8.7m-15.2-7.2c.3-.1.6-.3.8-.6.2-.3.2-.7.1-1-.1-.3-.3-.6-.6-.8l-1.3 2.3c.2.1.6.2 1 .1m-3.9-2.2c.3-.1.6-.3.8-.6.2-.3.2-.7.2-1-.1-.3-.3-.6-.6-.8-.3-.2-.7-.2-1-.2-.3.1-.6.3-.8.6-.2.3-.2.7-.2 1 .1.6.9 1.1 1.6 1m-3.8-2.4c.3-.1.7-.3.8-.6.2-.3.3-.7.2-1-.1-.3-.3-.7-.6-.8-.3-.2-.6-.3-1-.2-.3.1-.7.3-.9.6-.2.3-.3.7-.2 1 .3.6 1 1.1 1.7 1m-3.7-2.5c.3-.1.7-.3.9-.5.2-.3.3-.7.2-1-.1-.3-.2-.7-.5-.9-.3-.2-.6-.3-1-.2-.3.1-.7.3-.9.5-.2.3-.3.6-.3 1 .2.6.9 1.2 1.6 1.1m10.3 6.9l1.3-2.3c-.3-.2-.7-.2-1-.1-.3.1-.6.3-.8.6-.2.3-.2.7-.1 1 .1.4.3.7.6.8m-13.8-9.6c.3 0 .7-.2.9-.5.2-.3.3-.6.3-1s-.2-.7-.5-.9l-1.7 2.1c.3.2.6.3 1 .3m-3.5-2.8c.4 0 .7-.2.9-.5.2-.3.3-.6.3-1s-.2-.7-.5-.9c-.3-.2-.6-.4-.9-.3-.3 0-.7.2-.9.5-.2.3-.4.6-.3 1 0 .6.7 1.2 1.4 1.2m-3.3-3c.4 0 .7-.2.9-.4.2-.3.4-.6.4-1 0-.3-.2-.7-.4-.9-.2-.2-.6-.4-.9-.4-.3 0-.7.2-.9.4-.2.2-.4.6-.4 1-.1.7.6 1.3 1.3 1.3m-3.2-3.1c.4 0 .7-.1.9-.4.2-.2.4-.6.4-.9 0-.3-.1-.7-.4-.9-.2-.2-.6-.4-.9-.4-.3 0-.7.1-.9.4-.3.2-.4.6-.4.9 0 .6.6 1.3 1.3 1.3m9 8.6l1.7-2.1c-.3-.2-.6-.3-1-.3-.3 0-.7.2-.9.5-.2.3-.3.6-.3 1 0 .3.2.7.5.9m-12-11.9c.4 0 .7-.1 1-.3.3-.2.4-.6.4-.9 0-.4-.1-.7-.3-1l-2 1.8c.2.2.5.4.9.4m-2.9-3.3c.3 0 .7-.1 1-.3.3-.2.4-.6.5-.9 0-.4-.1-.7-.3-1-.2-.3-.5-.4-.9-.5-.3 0-.7.1-1 .3-.3.2-.5.5-.5.9-.1.7.5 1.4 1.2 1.5m-2.8-3.5c.3 0 .7-.1 1-.3.3-.2.5-.5.5-.9 0-.3 0-.7-.2-1-.2-.3-.5-.5-.9-.5-.3 0-.7 0-1 .3-.3.2-.5.5-.5.9-.2.6.4 1.4 1.1 1.5m-2.6-3.6c.3.1.7 0 1-.2.3-.2.5-.5.6-.9.1-.3 0-.7-.2-1-.2-.3-.5-.5-.8-.6-.3-.1-.7 0-1 .2-.3.2-.5.5-.6.8-.2.8.3 1.5 1 1.7"/><path class="st0" d="M89.7 237.4l2-1.8c-.2-.3-.6-.4-.9-.4-.3 0-.7.1-1 .3-.3.2-.4.6-.5.9 0 .4.1.7.4 1m-9.9-13.7c.3.1.7 0 1-.2.3-.2.5-.5.6-.8.1-.4 0-.7-.2-1l-2.3 1.4c.3.3.5.5.9.6m-2.3-3.8c.3.1.7 0 1-.1.3-.2.5-.5.6-.8.1-.3 0-.7-.1-1-.2-.3-.4-.5-.8-.6-.3-.1-.7 0-1 .1-.3.2-.5.5-.6.8-.2.6.2 1.4.9 1.6m-2.1-4c.3.1.7.1 1-.1.3-.2.5-.5.7-.8.1-.3.1-.7-.1-1-.2-.3-.4-.5-.8-.7-.3-.1-.7-.1-1 .1-.3.2-.6.4-.7.8-.2.7.2 1.5.9 1.7m-2-4c.3.1.7.1 1-.1.3-.1.6-.4.7-.8.1-.3.1-.7 0-1-.1-.3-.4-.6-.8-.7-.3-.1-.7-.1-1 0-.3.1-.6.4-.7.7-.3.9.1 1.7.8 1.9"/><path class="st0" d="M79 223.1l2.3-1.4c-.2-.3-.5-.5-.8-.6-.3-.1-.7 0-1 .2-.3.2-.5.5-.6.8-.2.3-.1.7.1 1m-7.4-15.2c.3.1.7.1 1 0 .3-.1.6-.4.7-.7.1-.3.1-.7 0-1l-2.5 1c.2.3.5.5.8.7m-1.6-4.2c.3.1.7.2 1 0 .3-.1.6-.4.8-.7.2-.3.2-.7.1-1-.1-.3-.4-.6-.7-.8-.3-.1-.7-.2-1-.1-.3.1-.6.4-.8.7-.4.8 0 1.6.6 1.9m-1.5-4.2c.3.2.7.2 1 .1.3-.1.6-.4.8-.7.2-.3.2-.7.1-1-.1-.3-.3-.6-.6-.8-.3-.2-.7-.2-1-.1-.3.1-.6.3-.8.6-.3.7-.1 1.6.5 1.9m-1.2-4.3c.3.2.7.2 1 .1.3-.1.6-.3.8-.6.2-.3.2-.7.2-1-.1-.3-.3-.6-.6-.8-.3-.2-.7-.2-1-.1-.3.1-.6.3-.8.6-.5.6-.2 1.5.4 1.8m3.6 11.9l2.5-1c-.1-.3-.4-.6-.7-.7-.3-.1-.7-.1-1 0-.3.1-.6.4-.7.7-.2.3-.2.7-.1 1m-4.7-16.2c.3.2.7.2 1 .2.3-.1.6-.3.8-.6.2-.3.2-.7.2-1l-2.6.6c.1.3.3.6.6.8"/><path transform="rotate(-1.641 171.995 293.175) scale(1.00001)" class="st0" d="M170 283h4v20.3h-4z"/><path class="st0" d="M148.1 281.4l.7 3.7 7.2 1 1.7-3.4 4.1.6-10.1 19.1-3.1-.4-4.6-21.1 4.1.5zm2.7 14.8l3.5-7-5-.7 1.5 7.7zm-40.3-9.7l7.1-15.2 3.6 1.7-7.1 15.2 4.8 2.2-1.5 3.2-13.2-6.2 1.5-3.2zm-13-27.8l-1.1 3.6 5.9 4.2 3.1-2.2 3.4 2.4-18 12.3-2.5-1.8 5.8-20.8 3.4 2.3zM93 273.1l6.4-4.5-4.1-2.9-2.3 7.4z"/><path transform="rotate(-45.114 79.78 256.532)" class="st0" d="M69.6 254.6h20.3v4H69.6z"/><path class="st0" d="M78.6 240.3l-16.4 12-2.3-3.2 13.5-9.9-5.4-7.4 2.9-2.1zm-18.8-27.7c1.9.7 3.4 1.9 4.3 4 1 2.1 1 4 .3 5.9-1 2.7-3.3 3.8-6.5 5.3s-5.5 2.6-8.2 1.6c-1.9-.7-3.4-1.9-4.4-4-1-2.1-1-4-.3-5.9 1-2.7 3.3-3.8 6.5-5.3 3.3-1.4 5.6-2.6 8.3-1.6m-11.3 8.6c-.4.8-.4 1.8.1 2.8.5 1 1.2 1.6 2.1 1.9 1.1.3 2 .1 5.6-1.5 3.5-1.7 4.3-2.2 4.8-3.3.4-.8.4-1.8-.1-2.8-.5-1-1.2-1.6-2.1-1.8-1.1-.3-2.1-.1-5.6 1.5-3.6 1.5-4.3 2.1-4.8 3.2m6.8-30.6l-7 5.7.7 2.8 7.9-1.9.9 3.9-19.8 4.6-1.8-7.8c-1-4 1.2-7.1 4.5-7.8 2.8-.7 4.9.6 6.1 2.4l7.5-6.4 1 4.5zm-15.6 6.8l.9 3.6 5.2-1.2-.9-3.6c-.4-1.7-1.7-2.6-3.3-2.2-1.5.4-2.3 1.7-1.9 3.4m14.4-46.5l-11.8-1.2 7.3 4.6-.2 2.7-8.1 3.1 11.8 1.2-.4 4-20.2-2.1.4-3.8 11.4-4.2-10.4-6.4.4-3.9 20.2 2zm6.5-24.6h-3.8l-2.3 6.8 3 2.3-1.3 3.9-16.9-13.5 1-2.9 21.6-.6-1.3 4zm-15.1-.1l6.2 4.8 1.6-4.8h-7.8zm24.6-22.8c.5 1.8 0 3.8-1 5.6l-3.7 6.3L47.8 105l3.7-6.3c1.1-1.8 2.6-3.2 4.4-3.6 3.1-.8 5.4.8 8.1 2.3 2.6 1.5 5.3 2.8 6.1 6M57 98.9c-1.1.2-1.9.7-2.6 1.9l-1.5 2.6 11.4 6.7 1.5-2.6c.7-1.2.8-2.2.4-3.2-.4-1.1-1.6-1.9-4.3-3.5-2.6-1.5-3.8-2.1-4.9-1.9m21.5-3.8L63.3 81.5l9-10 2.6 2.4-6.3 7 3.6 3.2 5.3-6 2.7 2.4-5.4 6 3.7 3.3 6.3-7 2.6 2.3zM119.1 63l-2.9 1.6-9.3-9 2.7 12.6-2.9 1.6-14.5-15.2 3.6-2 8.9 9.7-2.9-13 2.6-1.4 9.4 9.4-3.4-12.7 3.7-2z"/><path transform="rotate(-17.636 130.33 47.927)" class="st0" d="M128.3 37.8h4v20.3h-4z"/><path class="st0" d="M157 52.6l-9.7-11.2 1.7 12.4-3.9.5-2.9-20.1 3.5-.5 9.8 11.2-1.8-12.3 3.9-.6 2.9 20.1zm13.6-.6l1.4-20.3 13.3 1-.2 3.5-9.4-.7-.3 4.8 8 .5-.3 3.6-8-.6-.3 4.9 9.4.7-.3 3.5zm-31.9 125.9l8.2 10.3 13.2-1-7.3 11.1 5 12.2L145 207l-10.1 8.5-.6-13.2-11.2-7 12.4-4.6z"/></svg>