<svg id="Layer_2" xmlns="http://www.w3.org/2000/svg" xmlns:xlink="http://www.w3.org/1999/xlink" viewBox="0 0 181 338"><style>.st0{fill:#fff}.st1{fill:none}.st2{fill:#231f20}</style><path class="st0" d="M-599-99.1h193v338h-193v-338zM-478.3 7c9.3-7.5 19.8-5.1 29.7-8.4 2.8 17.1 5.4 33.4 8 49.8-.4.2-.8.3-1.2.5-8.4-7.5-16.8-15-25.2-22.6-3.3-3-8.4-5.3-3.1-12-10.6 1.7-19.6 3.2-28.7 4.7l-1.2 1.2c7.4 2.1 5.3 7.3 5.1 11.6-1 24.8-1.8 49.6-3.5 74.4-.7 10.5 1.3 21.5-3.7 32.3 7.2-1.2 14.1-2.3 20.9-3.4.2-.4.3-.8.5-1.2-5.3-1.9-4.7-5.9-4.4-9.9l5.4-67.2c.5-6.2 1.1-12.4 1.7-19.6 14 12.5 27.2 24.2 40.2 36 1 .9 1.6 2.6 1.8 3.9 3.1 18.9 6.3 37.7 9.1 56.6.6 3.7-.2 7.5-.3 11.5 7.3.5 8.3-.5 8.2-8.4-.1-7.3.2-14.6 0-21.9-.3-12.1-.8-24.1-1.3-36.2-.1-3.4-1.5-7.3-.4-10.3 3.4-10 1-19.9.7-30.1-1.5 2-2.9 4.1-4.7 6.6-.6-1.7-1.1-2.6-1.2-3.5-2.1-13.5-4.1-27-6.4-40.4-.7-3.9.3-5.1 4.2-5.7 9.2-1.4 9.1-1.7 9.1-10 0-3.3-1-4.3-4.5-3.7-12.8 2.2-25.6 4.3-38.5 5.8-6.2.7-12.7 5-19.8-1.9 1.4 8.4 2.4 14.9 3.5 21.5zm59 229.2c-47.1 1.2-88.7-12.7-123.3-45-34.8-32.4-52.5-73-52.9-120.4-.5-48.5 17.5-89.8 53-122.9 35.4-33.1 78.3-46.2 127.3-43.7-7.2-3.5-33.1-2.7-50.3 1.1-37.6 8.2-68.8 27-93.6 56.5-49.4 58.9-52.1 145.1-6.4 207.5 23.5 32 54.7 53 93.1 63.3 17.4 4.5 35.1 6.4 53.1 3.6zm-1.2-12.6c-41.6 1.3-78.6-10.6-110.1-38-31.6-27.5-49.3-62.6-52.3-104.4-3.4-46.6 11.5-87.1 44.5-120.3 32.9-33.1 73.7-46.7 120-45.2-19.4-3.3-38.2-.8-56.6 4.6-31.8 9.4-57.9 27.5-78.2 53.6-40.7 52.3-43.4 125.8-7 181.5 38.5 58.9 104.5 74.8 139.7 68.2zm-57.2-128.1c9 4.1 12.4 10.6 10.7 20.4 6.6-7.7 13.8-7.9 22.3-4-5.7-8.7-3.2-15.4 3.2-22.2-10.2 2.6-15.8-2.4-20.3-10.4-.9 10.1-5.9 15.1-15.9 16.2zm-9.4-143.3c2.9 3.1 4.8 5.3 6.9 7.4.8.8 2.1 1.1 3.2 1.6.4-1.1 1.2-2.3 1-3.3-.9-5.9-2.1-11.8-3.3-18.5-6 4.1.2 9.4-2.3 13.6-2-2.3-3.7-4.3-5.6-6.2-.8-.8-2.1-1.2-3.2-1.7-.3 1.2-.8 2.3-.7 3.5.2 2.9.8 5.8 1.2 8.9-4.6-1.2-4.8-8.9-12.1-7.3 4.6 5.5 8.4 10 12.4 14.5.6.7 1.9.8 2.9 1.2.4-1.1 1.1-2.2 1-3.3-.2-3-.8-6-1.4-10.4zm-70.4 102.4c7.6-3.3 7.6-3.3 1.4-10 3 .4 5.4.9 7.7 1 .9 0 1.8-.9 2.7-1.3-.8-.8-1.4-2.1-2.3-2.3-4.6-.9-9.2-1.6-13.8-2.1-1.2-.1-2.6.6-3.8.9.8 1.3 1.3 2.9 2.3 3.8 2 1.8 4.4 3.2 6.6 4.7-3.2 4-10.4 1.1-11.3 8 6.7 1.1 13 2.1 19.4 3.1.2-2.3.2-2.3-8.9-5.8zm107.9-122c-.5 13.4.8 19 4.6 19.8v-11.8c2.4 3 3.9 5.1 5.7 7 1.5 1.6 3.3 3 5.8 5.2.7-14-.6-20.1-4.2-20.5V-57c-4.7-2.8-5.4-9.6-11.9-10.4zM-549.4-.8c5.7 3.8 11.1 7.4 17 11.4 2.2-4.6 7.6-8.1 4.5-12.8-2.4-3.6-7.1-6.8-11.3-7.7-5.9-1.3-7.1 5.1-10.2 9.1zm1.3 83.5c-2.6 1.9-4.8 3.5-6.9 5-.1-.5-.2-.9-.3-1.4-3.1.2-7.2-.7-9.1 1-4.5 3.8-1.2 8.7-.5 13.6 6.9-1.2 13.2-2.4 20-3.6-1.7-6.2-6.6-.7-9-3.2-1.4-5.3 9-4.5 5.8-11.4zm51.4 84.3c-4-1-7.5-1-9.7-2.7-2-1.6-2.7-4.9-4.6-8.6-2.4 7.1-4.3 12.7-6.1 18.4-.3 1.1.1 2.4.2 3.5 1.2-.2 2.6 0 3.5-.6 5.2-3 10.3-6.1 16.7-10zm-39.2-147.8c-.5-.4-1.1-.8-1.6-1.2-6-.3-11.9-.6-17.9-.7-1.1 0-2.5.7-3.2 1.5-.3.4.5 2.1 1.2 2.8 4.5 4.2 9.1 8.2 13.7 12.3.5.1 1 .2 1.6.3-2.7-7-2.5-12.8 6.2-15zm73.9 164c1.2 7.5 2.1 13.7 3.2 19.9.1.8.8 2 1.5 2.3.6.2 2-.3 2.4-.9 3.4-5.5 6.7-11.1 10.6-17.7-4.1 1-7 2.6-9.4 2.1-2.7-.6-4.9-3.2-8.3-5.7zm-89.8-56.9c6.8-.2 13-5 12.8-9.9-.2-4.2-3.4-7.4-7.3-7.3-6.7.1-13 5-12.8 10 .3 4.1 3.4 7.2 7.3 7.2zM-521.4-18c2.1-2.3 3.7-4 5.6-6.2-4.8-3.3-5.2 3-8.7 2.9-.6-.7-1.6-1.8-2.6-2.8 5.8-6.6 5.8-6.6 4.1-8.3-3 2.9-5.9 5.7-8.5 8.2l13.9 13.9c8.2-6.5 9-7.8 6.2-10.4-2 1.9-4 3.9-6.3 6-1.2-1.1-2.2-2-3.7-3.3zm28.6 207.2c2.3-4.3 4.5-8.2 6.4-12.2.5-1-.2-2.6-.4-4-.5 0-1 .1-1.6.1-2.6 4.7-5.2 9.4-7.9 14.2-1.5-.6-2.5-1.4-3.6-1.4-.7 0-1.4 1.1-2.1 1.7 4.2 2.1 8.4 4.2 12.6 6.2.3-.5.5-1.1.9-1.8-1.3-.8-2.6-1.6-4.3-2.8zm-51.7-43l-.3 1.8c1.3.1 2.9.8 3.8.2 5-3 9.8-6.2 14.6-9.4-5.2-10.1-6.1-11-9.2-9.1 1.5 2.5 3 5 4.5 7.6-4.8 3.2-9.1 6.1-13.4 8.9zm10.4 14.1c.1.5.3 1.1.4 1.6 1.3-.2 3.1.1 4-.7 3.7-3 7.3-6.3 10.7-9.7.8-.8.5-2.6.7-4l-1.5-.3c-4.7 4.5-9.5 8.8-14.3 13.1zm69.7-224.6h-1.3c-.3 1.1-1.1 2.3-.8 3.3 1.1 4.8 2.3 9.6 3.8 14.4.3.9 1.6 1.5 2.5 2.2.3-1.1 1.2-2.3.9-3.3-1-4.7-2.3-9.3-3.6-13.9-.4-.9-1-1.8-1.5-2.7zm30 252c-.7.2-1.3.4-2 .6 0 5.7-.1 11.5.1 17.2 0 .8 1.2 1.5 1.8 2.2.5-.7 1.3-1.4 1.4-2.1.3-4.9.6-9.9.6-14.8 0-1.1-1.2-2.1-1.9-3.1zm16-254.3c-.3 0-.6 0-.9-.1-.7 5.8-1.4 11.7-2.1 17.5.7.1 1.4.1 2.2.2.2-5.8.5-11.7.8-17.6z"/><path d="M-478.3 7c-1.1-6.6-2.1-13.2-3.4-21.4 7.1 6.9 13.6 2.6 19.8 1.9 12.9-1.5 25.7-3.6 38.5-5.8 3.5-.6 4.5.4 4.5 3.7 0 8.3.1 8.6-9.1 10-4 .6-4.9 1.8-4.2 5.7 2.3 13.4 4.3 26.9 6.4 40.4.2.9.6 1.8 1.2 3.5 1.8-2.6 3.3-4.6 4.7-6.6.3 10.2 2.7 20.1-.7 30.1-1 3 .3 6.8.4 10.3.5 12.1 1 24.1 1.3 36.2.2 7.3-.1 14.6 0 21.9.1 7.9-.9 8.9-8.2 8.4.1-3.9.8-7.8.3-11.5-2.8-18.9-6-37.8-9.1-56.6-.2-1.4-.8-3-1.8-3.9-13.1-11.8-26.2-23.5-40.2-36-.6 7.2-1.2 13.4-1.7 19.6l-5.4 67.2c-.3 4-.9 8 4.4 9.9-.2.4-.3.8-.5 1.2-6.8 1.1-13.6 2.2-20.9 3.4 5-10.9 2.9-21.8 3.7-32.3 1.7-24.8 2.4-49.6 3.5-74.4.2-4.4 2.3-9.6-5.1-11.6l1.2-1.2c9-1.5 18.1-3 28.7-4.7-5.3 6.7-.2 9 3.1 12 8.4 7.6 16.8 15.1 25.2 22.6.4-.2.8-.3 1.2-.5-2.6-16.3-5.3-32.7-8-49.8-10 3.2-20.5.9-29.8 8.3z"/><path d="M-419.3 236.2c-18 2.9-35.8 1-53.2-3.7-38.3-10.3-69.6-31.2-93.1-63.3-45.7-62.4-43-148.6 6.4-207.5 24.7-29.5 56-48.2 93.6-56.5 17.2-3.8 43.1-4.6 50.3-1.1-49-2.5-91.8 10.6-127.3 43.7C-578-19-596 22.3-595.5 70.8c.4 47.4 18.1 88 52.9 120.4 34.6 32.2 76.2 46.2 123.3 45z"/><path d="M-420.5 223.6c-35.3 6.6-101.3-9.3-139.8-68.2-36.4-55.6-33.8-129.1 7-181.5 20.4-26.2 46.4-44.2 78.2-53.6 18.4-5.4 37.3-8 56.6-4.6-46.3-1.5-87.1 12.1-120 45.2-32.9 33.2-47.9 73.7-44.5 120.3 3.1 41.8 20.7 76.8 52.3 104.4 31.6 27.4 68.6 39.3 110.2 38z"/><path d="M-477.7 95.5c10-1 15-6.1 15.9-16.2 4.5 8.1 10.1 13.1 20.3 10.4-6.4 6.7-8.9 13.5-3.2 22.2-8.5-3.9-15.7-3.7-22.3 4 1.7-9.8-1.7-16.4-10.7-20.4zm-9.4-143.3c.6 4.4 1.2 7.3 1.4 10.3.1 1.1-.6 2.2-1 3.3-1-.4-2.3-.5-2.9-1.2-4-4.5-7.8-9.1-12.4-14.5 7.3-1.5 7.4 6.2 12.1 7.3-.4-3.1-1-6-1.2-8.9-.1-1.1.5-2.3.7-3.5 1.1.6 2.4.9 3.2 1.7 1.9 1.8 3.6 3.9 5.6 6.2 2.5-4.3-3.7-9.6 2.3-13.6 1.2 6.7 2.4 12.6 3.3 18.5.2 1-.6 2.2-1 3.3-1.1-.5-2.3-.8-3.2-1.6-2.1-1.9-4-4.2-6.9-7.3zm-70.4 102.4c9.1 3.5 9.1 3.5 8.8 5.9-6.3-1-12.7-2-19.4-3.1.9-7 8.1-4.1 11.3-8-2.2-1.5-4.6-3-6.6-4.7-1.1-.9-1.6-2.5-2.3-3.8 1.3-.3 2.6-1 3.8-.9 4.6.5 9.2 1.2 13.8 2.1.9.2 1.5 1.5 2.3 2.3-.9.5-1.8 1.4-2.7 1.3-2.4-.1-4.7-.6-7.7-1 6.3 6.6 6.3 6.6-1.3 9.9zm107.9-122c6.5.8 7.1 7.6 11.8 10.4v-10.7c3.6.5 5 6.5 4.2 20.5-2.5-2.2-4.3-3.5-5.8-5.2-1.8-1.9-3.3-4-5.7-7v11.8c-3.7-.7-4.9-6.4-4.5-19.8zM-549.4-.8c3.1-4 4.2-10.4 10.1-9.1 4.2.9 9 4.1 11.3 7.7 3.1 4.7-2.3 8.2-4.5 12.8-5.7-4-11.2-7.6-16.9-11.4zm5.1-1.1c3.8 2.5 7.3 4.8 10.7 7.1 3.8-4.8 3.5-6.1-1.2-9.4-4.9-3.4-6.4-3.2-9.5 2.3zm-3.8 84.6c3.2 6.9-7.2 6.1-5.8 11.4 2.4 2.5 7.3-3 9 3.2-6.8 1.2-13.1 2.4-20 3.6-.7-4.9-4-9.8.5-13.6 1.9-1.6 6-.7 9.1-1 .1.5.2.9.3 1.4 2.1-1.5 4.3-3 6.9-5zm-8.3 12.8c-1.1-2.3-1.8-4.1-2.9-5.7-.3-.4-2.8 0-2.9.5-.5 1.8-.5 3.8-.8 6.3 2.6-.5 4.1-.7 6.6-1.1zm59.7 71.5c-6.4 3.9-11.4 7.1-16.6 10.1-1 .6-2.3.4-3.5.6-.1-1.2-.5-2.5-.2-3.5 1.8-5.7 3.7-11.3 6.1-18.4 1.8 3.7 2.5 7 4.6 8.6 2.1 1.5 5.6 1.5 9.6 2.6zm-39.2-147.8c-8.7 2.3-8.8 8-6.2 15-.5-.1-1-.2-1.6-.3-4.6-4.1-9.2-8.1-13.7-12.3-.7-.7-1.5-2.5-1.2-2.8.7-.8 2.1-1.6 3.2-1.5 6 .1 11.9.5 17.9.7.5.3 1 .8 1.6 1.2zm73.9 164c3.4 2.4 5.6 5.1 8.3 5.6 2.5.5 5.4-1.1 9.4-2.1-3.9 6.6-7.2 12.2-10.6 17.7-.4.6-1.8 1.2-2.4.9-.7-.3-1.4-1.4-1.5-2.3-1.1-6.1-2-12.3-3.2-19.8zm-89.8-56.9c-3.9.1-7.1-3-7.2-7.2-.2-4.9 6.1-9.8 12.8-10 3.9-.1 7.1 3.1 7.3 7.3.1 4.9-6 9.7-12.9 9.9zm10.7-9.1c-1.7-1.9-3-4.2-3.7-4-3.5 1-7 2.5-10.3 4.2-.4.2.2 4.1.7 4.1 2.1.3 4.5.3 6.5-.4 2.2-.7 4.1-2.3 6.8-3.9zM-521.4-18c1.4 1.3 2.5 2.3 3.7 3.3 2.2-2.1 4.3-4.1 6.3-6 2.8 2.5 2 3.9-6.2 10.4-4.6-4.6-9.2-9.3-13.9-13.9 2.6-2.5 5.6-5.4 8.5-8.2 1.8 1.7 1.8 1.7-4.1 8.3 1 1.1 2 2.2 2.6 2.8 3.6.1 4-6.2 8.7-2.9-1.9 2.1-3.5 3.9-5.6 6.2zm28.6 207.2c1.7 1.1 2.9 2 4.3 2.9-.3.7-.6 1.2-.9 1.8-4.2-2.1-8.4-4.2-12.6-6.2.7-.6 1.4-1.7 2.1-1.7 1.1 0 2.1.8 3.6 1.4 2.7-4.8 5.3-9.5 7.9-14.2.5 0 1-.1 1.6-.1.2 1.3.9 2.9.4 4-1.8 3.9-4 7.8-6.4 12.1zm-51.7-43c4.3-2.8 8.6-5.7 13.3-8.8-1.6-2.6-3.1-5.1-4.5-7.6 3.2-1.9 4.1-1 9.2 9.1-4.8 3.1-9.6 6.4-14.6 9.4-.9.5-2.5-.1-3.8-.2.2-.7.3-1.3.4-1.9zm10.4 14.1c4.8-4.3 9.5-8.6 14.3-13l1.5.3c-.2 1.3 0 3.2-.7 4-3.4 3.4-7 6.6-10.7 9.7-.9.7-2.6.5-4 .7-.1-.6-.2-1.1-.4-1.7zm69.7-224.6c.5.9 1.1 1.8 1.4 2.7 1.3 4.6 2.6 9.2 3.6 13.9.2 1-.6 2.2-.9 3.3-.9-.7-2.2-1.3-2.5-2.2-1.4-4.7-2.7-9.5-3.8-14.4-.2-1 .5-2.2.8-3.3h1.4zm30 252c.6 1 1.9 2 1.9 3 0 4.9-.3 9.9-.6 14.8 0 .7-.9 1.4-1.4 2.1-.6-.7-1.8-1.5-1.8-2.2-.2-5.7-.1-11.5-.1-17.2.7-.1 1.4-.3 2-.5zm16-254.3c-.3 5.9-.6 11.8-.9 17.6-.7-.1-1.4-.1-2.2-.2.7-5.8 1.4-11.7 2.1-17.5.3.1.7.1 1 .1z"/><path class="st0" d="M-544.3-1.9c3.1-5.4 4.5-5.7 9.6-2.3 4.7 3.2 4.9 4.6 1.2 9.4-3.5-2.3-7-4.6-10.8-7.1zm-12.1 97.4c-2.5.4-4 .6-6.6 1 .3-2.5.3-4.4.8-6.3.1-.4 2.6-.9 2.9-.5 1.2 1.6 1.9 3.5 2.9 5.8zm15.3 21.7c-2.7 1.6-4.6 3.2-6.8 3.9-2 .7-4.4.7-6.5.4-.5-.1-1.1-3.9-.7-4.1 3.3-1.7 6.7-3.2 10.3-4.2.6-.2 2 2.1 3.7 4z"/><path d="M-113.6-157.9c-2.6-16.3-5.3-32.7-8.1-49.8-9.9 3.1-20.4 1.1-29.7 7.9-1-6.1-2-12.4-3.2-20.2 7 6.3 13.4 2.1 19.6 1.4 11.4-1.3 22.7-3.5 34-5.2 2.5-.4 6.1-1.1 5.8 3.1-.3 3.2 3.8 8.1-3.4 9.3-7.8 1.3-7.7 1.7-6.4 9.4 2 12.1 3.8 24.3 5.8 36.4.4 2.2.3 5 4.8 2.5v18.8c.1 14.1.1 28.1.2 42.2 0 11.3.2 22.5 0 33.8-.1 6-1.4 7.2-7.2 7.1 5.6-6.6 1.3-13.4.4-19.9-2.2-16-5.1-31.8-7.8-47.7-.3-1.6-.8-3.4-1.9-4.4-13.1-11.8-26.2-23.5-40.3-36-.7 7.1-1.3 13.1-1.7 19.1-1.8 23.1-3.7 46.1-5.3 69.2-.2 2.9 1.5 5.9 2.5 9.8-5.4.9-12.1 2-19.2 3.2 4.8-10.5 2.8-21.2 3.5-31.6 1.7-26.3 2.6-52.6 3.5-78.9.1-2.8-1.8-5.6-3-9 8.1-1.3 17.1-2.8 27.7-4.5-4.7 5.7-1.4 8.3 1.9 11.1 8.9 7.7 17.6 15.7 26.3 23.5.3-.1.8-.4 1.2-.6z"/><path d="M-94.8 30.2c-18.2 2.1-36 .1-53.5-4.9-35.7-10.1-65-29.9-87.8-59.2-43.9-56.2-46.7-136-6.7-196.2 40.4-61 107.5-78.8 150.8-72.8-47-1.1-89.1 12-123.8 44.5-34.5 32.3-52.5 72.6-52.9 119.8-.4 47.6 16.6 88.6 51 121.7 34.2 33 75.7 47.4 122.9 47.1z"/><path d="M-95.6 17.4c-39 11.7-106.7-21.8-137.1-67.4-37.7-56.7-34.4-131.9 8.3-184.6 21.1-26.1 47.9-43.5 80.2-52.4 17.8-4.9 42.4-6.7 51.2-3.3-47.3-1-87.5 12.9-119.8 46.1-32.2 33.3-46.8 73.5-43.2 119.7 3.2 41.2 20.5 75.8 51.5 103.2 31 27.3 67.6 39.7 108.9 38.7z"/><path d="M-140.1-90.8c2.3-10-2.1-15.7-10.6-19.8 9.8-1.2 15-6.3 15.9-16.2 4.2 8.1 9.6 13 19.8 10.5-6.5 6.7-8.2 13.6-3.1 22-8.3-4.2-15.4-4-22 3.5zm-33-165.7c5-.4 5.7 6 10.2 8-.5-3.5-1-6.6-1.2-9.7-.1-1 .6-2 .9-2.9.8.4 1.9.6 2.5 1.2 2.2 2.2 4.2 4.6 6.4 7.1 2.4-4.5-3.7-9.5 1.9-14.1 1.3 6.8 2.4 12.6 3.3 18.5.2 1-.7 2.2-1.1 3.3-.9-.5-2.1-.8-2.8-1.5-2.1-2.1-4-4.3-6.9-6.1.4 3 .8 5.9 1.1 8.9.1 1-.4 2-.6 3.1-1.1-.4-2.6-.5-3.3-1.3-3.9-4.3-7.5-8.8-11.3-13.2.2-.4.5-.9.9-1.3zm-67.6 107.7c.4-2.9.4-2.9 11.4-7.5-2.6-2-5-3.6-7.1-5.4-1-.9-1.5-2.2-2.3-3.4 1.2-.4 2.5-1.3 3.7-1.1 4.6.5 9.2 1.2 13.8 2.1.8.2 1.5 1.2 2.3 1.9-1 .5-2 1.5-2.9 1.5-2.3 0-4.5-.6-7.3-1 1.9 2.5 3.4 4.5 4.9 6.5-2 1.2-4 2.4-6.3 3.7 3.2 1.2 6.3 2.3 9.3 3.5.1.1-.1 1.2-.3 2.2-6.4-1.1-12.6-2-19.2-3zm130.4-114.1c-.2-4.1-.4-7.6-.6-11.2 3.4 1.1 5.1 9.3 4.1 19.4-6-1-6.6-7.8-11.6-10.4v11.4c-3.4-1.7-4.8-9.6-4.1-19.8 6.5.7 7 8 12.2 10.6zm-112.1 55.8c3.1-4 4.3-10.3 10-9 4.2 1 9 4.1 11.4 7.7 3 4.5-2.2 8-4.6 12.4-5.6-3.7-10.9-7.2-16.8-11.1zm16.8 6.8c.6-2.9 2-6 1.2-6.8-2.3-2.4-5.3-4.3-8.5-5.4-1.1-.4-3.2 2.2-5.4 3.9 4.6 2.9 8.2 5.2 12.7 8.3zm-22.2 81.8c2.1-1.5 4.2-3 6.6-4.8 3 6.6-7.5 5.9-5.6 11.8 2.6 0 5.2 0 7.9.1.2 0 .4 1.1.8 2.3-6.5 1.2-12.8 2.4-19 3.5-3-6-3.4-11.9-.2-13.4 2.5-1.2 5.9-.6 8.9-.8.2.4.4.8.6 1.3zm-3 8.7c.4-.4.8-.7 1.2-1.1-.8-1.9-1.4-3.9-2.6-5.6-.3-.4-3 .1-3.3.7-.6 1.4-1 3.7-.2 4.5 1 1.1 3.2 1 4.9 1.5zm47.9 59.7c.6 7.6 3.9 11.9 12.9 9.3-.4.7-.8 1.4-1.1 2.2-5.3 3.2-10.6 6.5-15.9 9.7-.7.4-2.3.6-2.6.2-.5-.7-.8-2.1-.5-2.9 1.8-5.8 3.8-11.5 5.7-17.3.5-.5 1-.9 1.5-1.2zm-33.8-122.4c-4.6-4.2-9.3-8.3-13.9-12.6-.6-.6-1.2-2.1-.9-2.5.6-.8 1.8-1.5 2.7-1.4 6.1.2 12.1.5 18.9 1.3-6.5 3.4-9.6 7.9-4.5 15.6-.8-.1-1.6-.3-2.3-.4zm82.9 149.2c3.9 7.3 9.1 8 15.5 3.4 0 .5.1.9.1 1.4-3.2 5.4-6.3 10.8-9.6 16.2-.4.7-1.9 1.5-2.2 1.3-.8-.6-1.6-1.6-1.8-2.6-1.1-6-1.9-12.1-2.9-18.1.3-.5.6-1 .9-1.6zm-47.6-202.4c-3.7 3.7-6.4 6.5-9.2 9.3-4.7-4.8-9.1-9.4-13.9-14.3 2.6-2.1 5.8-4.7 9-7.4.9.9.9.9-4.6 7.7.9 1 1.8 2.1 3 3.5 2-1.8 3.8-3.4 5.6-5.1 1.9 1.9 1.9 1.9-2.8 7.6 1 1.1 2.1 2.2 2.9 3.1 3.9-.3 4.4-6.3 10-4.4zm-43.5 145.5c-4.1 0-7-3.1-7-7.4 0-4.6 6.6-9.5 12.8-9.5 3.9 0 7 3.4 7 7.6 0 4.7-6.4 9.3-12.8 9.3zm10.2-8.8c.3-.8.6-1.5.9-2.3-1.4-.7-3.1-2.3-4.3-2-3.5 1-6.9 2.5-10.1 4.2-.5.3.1 4.1.4 4.1 2.4.2 5 .3 7.3-.4 2.2-.6 3.9-2.3 5.8-3.6zm49.1 71.3c1.6 2 2.7 3.4 3.8 4.8-9.8-2.4-12.6-4.5-12.3-7.8 1.6.6 3.1 1.1 4.5 1.7 3.1-4.8 6.1-9.4 9.1-13.9 0 0 1.3.8 2.2 1.3-2.5 4.8-4.9 9.5-7.3 13.9zM-204.1-69c-1.1-1.9-2.3-3.5-3.1-5.2-.5-1-.4-2.2-.5-3.3 1 .5 2.3.7 2.9 1.5 1.9 2.5 3.4 5.3 5.1 7.9-6.6 6.5-15.2 10.9-18.6 8.8 4.8-3.3 9.3-6.4 14.2-9.7zm12.5 9.1c0 2.4.5 4.1-.1 4.7-3.7 3.6-7.5 7-11.4 10.4-.7.6-1.9.4-2.9.6.2-1.1.1-2.5.7-3.2 4-3.9 8.3-7.6 13.7-12.5zm59.4-192.6c-.4.5-.9 1.6-1.5 1.7-.7 0-1.8-.8-2-1.5-1.5-5.1-2.8-10.2-4-15.4-.2-.7.7-1.6 1-2.4.8.4 2 .7 2.2 1.3 1.5 5.2 2.8 10.5 4.3 16.3zm25.5 234.3V2.5c-3.3-4.9-2.8-18.5 0-20.7z"/><path class="st1" d="M-175.8-201.4c-3.8-4-6.7-7.1-10.5-11-1.3 2.5-3.4 5-2.9 6 1.6 2.9 4.1 5.6 6.8 7.4 1.1.6 3.9-1.3 6.6-2.4z"/><image width="336" height="338" id="Vector_Smart_Object_1_" xlink:href="ECE1D965E71CD7A4.png" transform="rotate(-8.106 -2751.777 -1120.584) scale(.9008)" overflow="visible" opacity=".9"/><image width="130" height="134" id="Vector_Smart_Object_1_1_" xlink:href="ECE1D965E71CD7AC.png" transform="rotate(-8.11 -933.137 2530.057)" overflow="visible"/><image width="336" height="338" id="Vector_Smart_Object_2_" xlink:href="ECE1D965E71CD7AF.png" transform="translate(234.95 -20.563)" overflow="visible" opacity=".9"/><path class="st2" d="M188.9 14.1c.3-.2.5-.6.5-.9 0-.3-.1-.7-.3-1-.4-.5-1.3-.6-1.9-.2-.3.2-.4.6-.5.9 0 .3.1.7.3 1 .2.3.5.4.9.5.3 0 .7-.1 1-.3m5.8.8c.3-.2.5-.5.5-.9.1-.3 0-.7-.2-1-.4-.6-1.3-.7-1.8-.3-.3.2-.5.5-.5.9-.1.3 0 .7.2 1 .2.3.5.5.9.5.2.1.6 0 .9-.2m5.7 1.1c.3-.2.5-.5.6-.9.1-.3 0-.7-.2-1-.4-.6-1.2-.8-1.8-.4-.3.2-.5.5-.6.9-.1.3 0 .7.2 1 .2.3.5.5.8.6.4.1.7 0 1-.2m5.7 1.3c.3-.2.5-.5.6-.8.1-.3 0-.7-.1-1-.4-.6-1.2-.8-1.8-.4-.3.2-.5.5-.6.8-.1.3 0 .7.2 1 .2.3.5.5.8.6.3 0 .6-.1.9-.2m5.7 1.5c.3-.2.5-.5.6-.8.1-.3.1-.7-.1-1-.3-.6-1.2-.8-1.8-.5-.3.2-.5.5-.6.8-.1.3 0 .7.1 1 .2.3.5.5.8.6.3.1.7 0 1-.1m3.8.1c-.1.3-.1.7.1 1 .2.3.4.5.8.6l.8-2.5c-.3-.1-.7-.1-1 .1-.4.2-.6.5-.7.8m7.3 3.5c.3-.2.6-.4.7-.8.1-.3.1-.7 0-1-.3-.6-1.1-.9-1.8-.6-.3.2-.6.4-.7.8-.1.3-.1.7 0 1 .2.3.4.6.7.7.5.1.8 0 1.1-.1m5.5 2.1c.3-.1.6-.4.7-.7.1-.3.1-.7 0-1-.3-.6-1.1-1-1.7-.7-.3.2-.6.4-.7.8-.1.3-.1.7 0 1 .1.3.4.6.7.7.3.1.7 0 1-.1m5.4 2.3c.3-.1.6-.4.7-.7.1-.3.2-.7.1-1-.3-.7-1.1-1-1.7-.7-.3.1-.6.4-.7.7-.1.3-.1.7 0 1 .1.3.4.6.7.7.2.1.6.1.9 0m5.3 2.6c.3-.1.6-.4.8-.7.2-.3.2-.7.1-1-.2-.7-1-1-1.7-.8-.3.1-.6.4-.8.7-.2.3-.2.7-.1 1 .1.3.4.6.7.7.3.2.6.2 1 .1m5.2 2.7c.3-.1.6-.3.8-.7.2-.3.2-.7.1-1-.2-.7-1-1.1-1.6-.9-.3.1-.6.3-.8.7-.2.3-.2.7-.1 1 .1.3.3.6.6.8.3.2.6.2 1 .1m5 2.9c.3-.1.6-.3.8-.6s.2-.7.2-1c-.2-.7-.9-1.1-1.6-1-.3.1-.6.3-.8.6-.2.3-.2.7-.2 1 .1.3.3.6.6.8.3.2.7.3 1 .2"/><path class="st2" d="M218.1 19.7c.1-.3.1-.7-.1-1-.2-.3-.4-.5-.8-.6l-.8 2.5c.3.1.7.1 1-.1.3-.2.6-.5.7-.8m.9-7.4l-.8 2.5c13.5 4.2 26.4 10.5 38.4 18l1.4-2.3c-12.1-7.6-25.2-13.9-39-18.2m34 23.8c-.2.3-.2.7-.2 1 .1.3.3.6.6.8l1.4-2.2c-.3-.2-.7-.3-1-.2-.3.1-.7.3-.8.6m-38.4-9.8C227.1 30.2 239 36 250.1 43l1.4-2.3c-11.3-7.1-23.4-13-36.2-17l-.7 2.6zm44.6 15.1c.3-.1.7-.3.9-.6.2-.3.3-.6.2-1-.1-.7-.9-1.2-1.6-1-.3.1-.7.3-.9.6-.2.3-.3.7-.2 1 .1.3.3.6.5.8.4.2.8.2 1.1.2m4.7 3.5c.3-.1.7-.3.9-.5.2-.3.3-.6.3-1-.1-.7-.8-1.2-1.5-1.1-.3.1-.7.3-.9.5-.2.3-.3.6-.3 1 .1.3.2.7.5.9.3.1.7.2 1 .2m4.6 3.6c.3 0 .7-.2.9-.5.2-.3.3-.6.3-1-.1-.7-.7-1.3-1.4-1.2-.3 0-.7.2-.9.5-.2.3-.3.6-.3 1 0 .3.2.7.5.9.2.2.6.3.9.3m4.5 3.8c.3 0 .7-.2.9-.5.2-.3.4-.6.3-1 0-.7-.7-1.3-1.4-1.3-.4 0-.7.2-.9.5-.2.3-.3.6-.3 1 0 .3.2.7.4.9.3.3.6.4 1 .4m4.3 3.9c.3 0 .7-.2.9-.4.2-.3.4-.6.4-1 0-.7-.7-1.3-1.4-1.3-.3 0-.7.2-.9.4-.2.3-.4.6-.4.9 0 .3.2.7.4.9.3.4.7.5 1 .5m4.2 4.2c.3 0 .7-.2.9-.4.3-.2.4-.6.4-.9 0-.7-.6-1.3-1.3-1.3-.3 0-.7.2-.9.4-.2.2-.4.6-.4.9 0 .3.1.7.4.9.2.2.5.4.9.4m-26.3-22.9c.2-.3.3-.7.2-1-.1-.3-.3-.6-.6-.8l-1.4 2.2c.3.2.6.3 1 .2.3-.1.6-.3.8-.6m2.8-6.9l-1.4 2.3c11.9 7.7 22.9 16.8 32.4 27.3l2-1.8c-9.7-10.7-20.9-19.9-33-27.8m26.7 31.8c-.3.2-.4.6-.4.9 0 .3.1.7.3.9l2-1.8c-.2-.3-.6-.4-.9-.4-.4 0-.8.1-1 .4M250.1 43c11 7.2 21.2 15.6 30 25.3l2-1.8c-8.9-9.9-19.3-18.5-30.5-25.8l-1.5 2.3zm39.2 26.1c.3 0 .7-.1 1-.3.3-.2.4-.6.5-.9.1-.7-.5-1.4-1.2-1.4-.3 0-.7.1-1 .3-.3.2-.4.6-.5.9 0 .3.1.7.3 1 .2.2.6.3.9.4m3.7 4.5c.3 0 .7-.1 1-.3.3-.2.5-.5.5-.9.1-.7-.5-1.4-1.2-1.5-.4 0-.7.1-1 .3-.3.2-.5.5-.5.9 0 .3.1.7.3 1 .2.3.6.5.9.5m3.5 4.7c.3 0 .7 0 1-.2.3-.2.5-.5.5-.9.1-.7-.4-1.4-1.1-1.5-.3 0-.7.1-1 .3-.3.2-.5.5-.5.9 0 .3 0 .7.2 1 .2.2.6.4.9.4m3.3 4.9c.3.1.7 0 1-.2.3-.2.5-.5.6-.8.1-.7-.4-1.4-1-1.6-.3-.1-.7 0-1 .2-.3.2-.5.5-.6.8-.1.3 0 .7.2 1 .1.3.5.5.8.6m3.1 4.9c.3.1.7 0 1-.2.3-.2.5-.5.6-.8.2-.7-.3-1.4-1-1.6-.3-.1-.7 0-1 .2-.3.2-.5.5-.6.8-.1.3 0 .7.1 1 .3.3.6.5.9.6m3 5.1c.3.1.7 0 1-.1.3-.2.5-.5.6-.8.2-.7-.2-1.5-.9-1.6-.3-.1-.7 0-1 .1-.3.2-.5.5-.6.8-.1.3 0 .7.1 1 .2.3.5.5.8.6"/><path class="st2" d="M286.4 64.3c.3-.2.4-.6.4-.9 0-.3-.1-.7-.4-.9l-2 1.8c.2.2.6.4.9.4.5 0 .9-.2 1.1-.4m4.6-5.9l-2 1.8c4.8 5.2 9.2 10.8 13.3 16.6 2 2.9 4 5.9 5.8 8.9.9 1.5 1.9 3 2.7 4.6l2.5 4.7 2.4-1.2-2.6-4.8c-.8-1.6-1.8-3.1-2.7-4.7-1.8-3.1-3.9-6.1-5.9-9.1-4.2-5.8-8.6-11.6-13.5-16.8m17.5 37.5c-.3.2-.5.5-.7.8-.1.3-.1.7.1 1l2.4-1.2c-.2-.3-.4-.5-.8-.7-.4 0-.7 0-1 .1m-28.4-27.6c4.5 4.8 8.5 10 12.3 15.3 1.8 2.7 3.7 5.4 5.3 8.3.8 1.4 1.7 2.8 2.5 4.2l2.3 4.3 2.4-1.2-2.4-4.4c-.8-1.5-1.7-2.9-2.5-4.3-1.7-2.9-3.6-5.6-5.4-8.4-3.9-5.4-7.9-10.7-12.5-15.6l-2 1.8zm31.1 35.3c.3.1.7.1 1-.1.3-.1.6-.4.7-.7.2-.6-.1-1.5-.8-1.7-.3-.1-.7-.1-1 .1-.3.2-.6.4-.7.8-.1.3-.1.7 0 1 .2.3.5.5.8.6m2.4 5.4c.3.1.7.1 1 0 .3-.1.6-.4.7-.7.3-.6-.1-1.5-.7-1.7-.3-.1-.7-.1-1 0-.3.1-.6.4-.7.7-.1.3-.1.7 0 1 .1.3.3.6.7.7m2.1 5.4c.3.1.7.1 1 0 .3-.1.6-.4.8-.7.3-.6 0-1.5-.6-1.8-.3-.1-.7-.1-1 0-.3.1-.6.4-.7.7-.1.3-.1.7 0 1 0 .4.2.7.5.8m2 5.6c.3.1.7.2 1 .1.3-.1.6-.4.8-.7.3-.6 0-1.5-.6-1.8-.3-.1-.7-.2-1 0-.3.1-.6.4-.8.7-.1.3-.2.7-.1 1 .1.2.4.5.7.7m1.7 5.6c.3.2.7.2 1 .1.3-.1.6-.3.8-.6.3-.6.1-1.5-.5-1.8-.3-.2-.7-.2-1-.1-.3.1-.6.3-.8.6-.2.3-.2.7-.1 1 .1.3.3.6.6.8m1.5 5.6c.3.2.7.2 1 .1.3-.1.6-.3.8-.6.4-.6.2-1.5-.4-1.8-.3-.2-.7-.2-1-.1-.3.1-.6.3-.8.6-.2.3-.2.7-.2 1 .1.4.3.7.6.8"/><path class="st2" d="M309.7 98.3c.3-.2.6-.4.7-.8.1-.3.1-.7-.1-1l-2.4 1.2c.2.3.5.5.8.6.3.1.7.1 1 0m5.9-4.6l-2.4 1.2c6.5 12.6 11.3 26.1 14.4 39.9l2.6-.6c-3.1-14-7.9-27.7-14.6-40.5m7.1 40.9c-.3.1-.6.3-.8.6-.2.3-.2.7-.2 1l2.6-.6c-.1-.3-.3-.6-.6-.8-.3-.3-.6-.3-1-.2m-20.2-34.1c6 11.6 10.4 24.1 13.3 36.9l2.6-.6c-3-13-7.4-25.7-13.6-37.6l-2.3 1.3zm20.9 42.2c.3.2.7.3 1 .2.3-.1.7-.3.9-.5.4-.6.2-1.4-.4-1.8-.3-.2-.7-.3-1-.2-.3.1-.7.3-.9.5-.2.3-.3.6-.2 1 .1.3.3.6.6.8m.9 5.8c.3.2.6.3 1 .2.3 0 .7-.2.9-.5.4-.5.3-1.4-.3-1.9-.3-.2-.6-.3-1-.2-.3.1-.7.2-.9.5-.2.3-.3.6-.3 1 .1.4.3.7.6.9m.7 5.8c.3.2.6.3 1 .3.3 0 .7-.2.9-.5.4-.5.4-1.4-.2-1.9-.3-.2-.6-.3-1-.3-.3 0-.7.2-.9.5-.2.3-.3.6-.3 1s.2.7.5.9m.5 5.8c.3.2.6.3 1 .3.3 0 .7-.2.9-.4.5-.5.4-1.4-.1-1.9-.3-.2-.6-.3-1-.3-.3 0-.7.2-.9.4-.2.3-.3.6-.3.9 0 .5.1.8.4 1m.2 5.9c.3.2.6.4 1 .4.3 0 .7-.2.9-.4.5-.5.4-1.4-.1-1.9-.3-.2-.6-.4-1-.3-.3 0-.7.2-.9.4-.2.3-.4.6-.3.9 0 .3.2.7.4.9m0 5.9c.3.2.6.4.9.4.3 0 .7-.1 1-.4.5-.5.5-1.4 0-1.9-.3-.2-.6-.4-.9-.4-.3 0-.7.1-1 .4-.2.2-.4.6-.4.9 0 .4.2.7.4 1"/><path class="st2" d="M323.3 137.1c.3-.1.7-.3.9-.6.2-.3.3-.7.2-1l-2.6.6c.1.3.3.6.6.8.2.2.6.3.9.2m6.9-2.8l-2.6.6c2.9 13.8 4.3 28.1 3.6 42.2l2.7.1c.7-14.4-.7-28.9-3.7-42.9m-3.6 41.2c-.3 0-.7.1-1 .3-.3.2-.4.6-.4.9l2.7.1c0-.3-.1-.7-.3-1-.3-.1-.6-.3-1-.3m-10.7-38.1c2.7 12.8 4 26 3.3 39.1l2.7.1c.6-13.3-.6-26.7-3.4-39.8l-2.6.6zm9.2 46.2c.2.3.6.4.9.5.3 0 .7-.1 1-.3.6-.4.6-1.3.1-1.9-.2-.3-.6-.4-.9-.5-.3 0-.7.1-1 .3-.3.2-.4.6-.4.9 0 .4.1.7.3 1m-.6 5.8c.2.3.6.5.9.5.3 0 .7-.1 1-.3.5-.4.6-1.3.2-1.9-.2-.3-.6-.4-.9-.5-.3 0-.7.1-1 .3-.3.2-.4.5-.5.9 0 .4.1.7.3 1m-.9 5.8c.2.3.5.5.9.5.3.1.7 0 1-.2.6-.4.7-1.3.3-1.8-.2-.3-.5-.5-.9-.5-.3-.1-.7 0-1 .2-.3.2-.5.5-.5.9s0 .6.2.9m-1 5.8c.2.3.5.5.9.6.3.1.7 0 1-.2.6-.4.8-1.2.4-1.8-.2-.3-.5-.5-.9-.6-.3-.1-.7 0-1 .2-.3.2-.5.5-.6.8-.1.3 0 .7.2 1m-1.3 5.7c.2.3.5.5.8.6.3.1.7 0 1-.1.6-.4.8-1.2.4-1.8-.2-.3-.5-.5-.8-.6-.3-.1-.7 0-1 .2-.3.2-.5.5-.6.8 0 .2 0 .6.2.9m-1.5 5.7c.2.3.5.5.8.6.3.1.7.1 1-.1.6-.3.8-1.2.5-1.8-.2-.3-.5-.5-.8-.6-.3-.1-.7 0-1 .1-.3.2-.5.5-.6.8-.1.3-.1.6.1 1m6.7-34.2c.3 0 .7-.1 1-.3.3-.2.4-.6.4-.9l-2.7-.1c0 .3.1.7.3.9.3.2.6.3 1 .4m7.4-1l-2.7-.1-.3 5.3c-.1 1.8-.4 3.5-.5 5.3-.3 3.5-.9 7-1.5 10.5-1.3 7-2.9 13.9-5.1 20.6l2.5.8c2.3-6.8 3.9-13.9 5.2-20.9.6-3.6 1.2-7.1 1.5-10.7.2-1.8.5-3.6.5-5.4l.4-5.4zm-14.3 38.9c-.3-.1-.7-.1-1 .1-.3.2-.5.4-.6.8l2.5.8c.1-.3.1-.7-.1-1-.1-.3-.4-.6-.8-.7m-.4-39.6l-.3 4.9c-.1 1.6-.3 3.3-.5 4.9-.3 3.3-.9 6.5-1.4 9.7-1.2 6.4-2.7 12.8-4.8 19.1l2.5.8c2.1-6.3 3.6-12.9 4.8-19.4.5-3.3 1.1-6.6 1.4-9.9.2-1.7.4-3.3.5-5l.3-5-2.5-.1zm-3.1 47c.2.3.4.6.8.7.3.1.7.1 1 0 .6-.3.9-1.1.6-1.8-.2-.3-.4-.6-.8-.7s-.7-.1-1 0c-.3.2-.6.4-.7.7 0 .4 0 .8.1 1.1M314 229c.1.3.4.6.7.7.3.1.7.1 1 0 .6-.3 1-1.1.7-1.7-.2-.3-.4-.6-.8-.7-.3-.1-.7-.1-1 0-.3.1-.6.4-.7.7 0 .3 0 .6.1 1m-2.3 5.3c.1.3.4.6.7.7.3.1.7.2 1 0 .7-.3 1-1.1.7-1.7-.1-.3-.4-.6-.7-.7-.3-.1-.7-.1-1 0-.3.1-.6.4-.7.7-.1.3-.1.7 0 1m-2.5 5.3c.1.3.4.6.7.8.3.2.7.2 1 .1.7-.2 1-1 .8-1.7-.1-.3-.4-.6-.7-.8-.3-.2-.7-.2-1-.1-.3.1-.6.4-.7.7-.2.3-.2.7-.1 1m-2.8 5.2c.1.3.3.6.7.8.3.2.7.2 1 .1.7-.2 1.1-1 .9-1.6-.1-.3-.3-.6-.7-.8-.3-.2-.7-.2-1-.1-.3.1-.6.3-.8.6-.1.3-.1.7-.1 1m-2.9 5.1c.1.3.3.6.6.8.3.2.7.2 1 .2.7-.2 1.1-.9 1-1.6-.1-.3-.3-.6-.6-.8s-.7-.2-1-.2c-.3.1-.6.3-.8.6-.2.3-.2.7-.2 1"/><path class="st2" d="M318.9 218.6c.3.1.7.1 1-.1.3-.2.5-.4.6-.8l-2.5-.8c-.1.3-.1.7.1 1 .1.4.4.6.8.7m7.4 1l-2.5-.8c-4.2 13.5-10.5 26.4-18 38.4l2.3 1.4c7.5-12.2 13.9-25.3 18.2-39m-23.8 33.9c-.3-.2-.7-.2-1-.2-.3.1-.6.3-.8.6l2.2 1.4c.2-.3.3-.7.2-1-.1-.3-.4-.6-.6-.8m9.7-38.4c-3.9 12.5-9.7 24.4-16.7 35.5l2.3 1.4c7.1-11.3 13-23.4 17-36.2l-2.6-.7zm-15 44.6c.1.3.3.7.6.9.3.2.6.3 1 .2.7-.1 1.2-.9 1-1.6-.1-.3-.3-.7-.6-.9-.3-.2-.7-.3-1-.2-.3.1-.6.3-.8.5-.2.4-.3.8-.2 1.1m-3.5 4.8c.1.3.3.7.5.9.3.2.6.3 1 .3.7-.1 1.2-.8 1.1-1.5-.1-.3-.3-.7-.5-.9-.3-.2-.6-.3-1-.3-.3.1-.7.2-.9.5-.2.3-.2.6-.2 1m-3.6 4.6c0 .3.2.7.5.9.3.2.6.3 1 .3.7-.1 1.3-.7 1.2-1.4 0-.3-.2-.7-.5-.9-.3-.2-.6-.3-1-.3-.3 0-.7.2-.9.5-.3.2-.4.5-.3.9m-3.8 4.4c0 .3.2.7.5.9.3.2.6.4 1 .3.7 0 1.3-.7 1.3-1.4 0-.4-.2-.7-.5-.9-.3-.2-.6-.3-1-.3-.3 0-.7.2-.9.4-.3.3-.4.7-.4 1m-4 4.4c0 .3.2.7.4.9.3.2.6.4 1 .4.7 0 1.3-.7 1.3-1.4 0-.3-.2-.7-.4-.9s-.6-.4-.9-.4c-.3 0-.7.2-.9.4-.4.3-.5.6-.5 1m-4.1 4.1c0 .3.2.7.4.9.2.2.6.4.9.4.7 0 1.3-.6 1.3-1.3 0-.3-.2-.7-.4-.9-.2-.2-.6-.4-.9-.4-.3 0-.7.1-.9.4-.3.2-.4.6-.4.9m22.8-26.3c.3.2.7.3 1 .2.3-.1.6-.3.8-.6l-2.2-1.4c-.2.3-.3.6-.2 1 .1.3.3.6.6.8m7 2.9l-2.3-1.4c-7.7 11.9-16.8 22.9-27.3 32.4l1.8 2c10.7-9.7 19.9-21 27.8-33m-31.8 26.6c-.2-.3-.6-.4-.9-.4-.3 0-.7.1-.9.3l1.8 2c.3-.2.4-.6.4-.9-.1-.4-.2-.7-.4-1m19.4-34.5c-7.2 11-15.6 21.2-25.3 30l1.8 2c9.9-8.9 18.5-19.3 25.8-30.5l-2.3-1.5zm-26.1 39.1c0 .3.1.7.3 1 .2.3.6.4.9.5.7.1 1.4-.5 1.4-1.2 0-.3-.1-.7-.3-1-.2-.3-.6-.4-.9-.5-.3 0-.7.1-1 .3-.2.3-.4.6-.4.9m-4.6 3.7c0 .3.1.7.3 1 .2.3.5.5.9.5.7.1 1.4-.5 1.5-1.2 0-.4-.1-.7-.3-1-.2-.3-.5-.5-.9-.5-.3 0-.7.1-1 .3-.2.3-.4.6-.5.9m-4.7 3.5c0 .3 0 .7.2 1 .2.3.5.5.9.5.7.1 1.4-.4 1.5-1.1 0-.3-.1-.7-.3-1-.2-.3-.5-.5-.9-.5-.3 0-.7 0-1 .2-.1.3-.3.6-.4.9m-4.8 3.3c-.1.3 0 .7.2 1 .2.3.5.5.8.6.7.1 1.4-.4 1.6-1 .1-.3 0-.7-.2-1-.2-.3-.5-.5-.8-.6-.3-.1-.7 0-1 .2-.4.2-.6.5-.6.8m-5 3.2c-.1.3 0 .7.2 1 .2.3.5.5.8.6.7.2 1.4-.3 1.6-1 .1-.3 0-.7-.2-1-.2-.3-.5-.5-.8-.6-.3-.1-.7 0-1 .1-.3.2-.5.5-.6.9m-5 2.9c-.1.3 0 .7.1 1 .2.3.5.5.8.7.7.2 1.5-.2 1.6-.9.1-.3 0-.7-.1-1-.2-.3-.5-.5-.8-.6-.3-.1-.7 0-1 .1-.3.1-.5.4-.6.7m28.8-19.4c.2.3.6.4.9.4.3 0 .7-.1.9-.4l-1.8-2c-.3.2-.4.6-.4.9.1.4.2.8.4 1.1"/><path class="st2" d="M280.2 291.5l-1.8-2c-5.2 4.8-10.8 9.2-16.6 13.3-2.9 2-5.9 4-8.9 5.8-1.5.9-3 1.9-4.6 2.7l-4.7 2.5 1.2 2.4 4.8-2.6c1.6-.8 3.1-1.8 4.7-2.7 3.1-1.8 6.1-3.9 9.1-5.9 5.8-4.2 11.5-8.6 16.8-13.5M242.6 309c-.2-.3-.5-.5-.8-.7-.3-.1-.7-.1-1 .1l1.2 2.4c.3-.2.5-.4.7-.8.1-.3.1-.7-.1-1m27.7-28.4c-4.8 4.5-10 8.5-15.3 12.3-2.7 1.8-5.4 3.7-8.3 5.3-1.4.8-2.8 1.7-4.2 2.5l-4.3 2.3 1.2 2.4 4.4-2.4c1.5-.8 2.9-1.7 4.3-2.5 2.9-1.7 5.6-3.6 8.4-5.4 5.4-3.9 10.7-8 15.6-12.5l-1.8-2zm-35.4 31.1c-.1.3-.1.7.1 1 .1.3.4.6.7.7.6.2 1.5-.1 1.7-.8.1-.3.1-.7-.1-1-.2-.3-.4-.6-.8-.7-.3-.1-.7-.1-1 0-.2.2-.5.5-.6.8m-5.4 2.4c-.1.3-.1.7 0 1 .1.3.4.6.7.7.6.3 1.5-.1 1.7-.7.1-.3.1-.7 0-1-.1-.3-.4-.6-.7-.7-.3-.1-.7-.1-1 0-.3.1-.5.4-.7.7m-5.4 2.2c-.1.3-.1.7 0 1 .1.3.4.6.7.8.6.3 1.5 0 1.8-.6.1-.3.1-.7 0-1s-.4-.6-.7-.7c-.3-.1-.7-.1-1 0-.4-.1-.6.2-.8.5m-5.5 1.9c-.1.3-.2.7-.1 1 .1.3.4.6.7.8.6.3 1.5 0 1.8-.6.1-.3.2-.7 0-1-.1-.3-.4-.6-.7-.8-.3-.1-.7-.2-1-.1-.3.2-.6.4-.7.7M213 320c-.2.3-.2.7-.1 1 .1.3.3.6.6.8.6.3 1.5.1 1.8-.5.2-.3.2-.7.1-1-.1-.3-.3-.6-.6-.8-.3-.2-.7-.2-1-.1-.4 0-.7.3-.8.6m-5.7 1.5c-.2.3-.2.7-.1 1 .1.3.3.6.6.8.6.4 1.5.1 1.8-.4.2-.3.2-.7.1-1-.1-.3-.3-.6-.6-.8-.3-.2-.7-.2-1-.2-.3.1-.6.3-.8.6"/><path class="st2" d="M240.3 310.2c.2.3.4.6.8.7.3.1.7.1 1-.1l-1.2-2.4c-.3.2-.5.5-.6.8-.2.4-.2.7 0 1m4.5 6l-1.2-2.4c-12.6 6.5-26.1 11.3-39.9 14.4l.6 2.6c14-3.2 27.7-8 40.5-14.6m-40.8 7.1c-.1-.3-.3-.6-.6-.8-.3-.2-.7-.2-1-.2l.6 2.6c.3-.1.6-.3.8-.6.2-.3.3-.7.2-1m34.1-20.2c-11.6 6-24.1 10.4-36.9 13.3l.6 2.6c13-3 25.7-7.4 37.6-13.6l-1.3-2.3zm-42.2 20.8c-.2.3-.3.7-.2 1s.3.7.5.9c.6.4 1.4.2 1.8-.4.2-.3.3-.7.2-1-.1-.3-.3-.7-.5-.9-.3-.2-.6-.3-1-.2-.3.2-.6.4-.8.6m-5.8.9c-.2.3-.3.6-.2 1 0 .3.2.7.5.9.6.4 1.4.3 1.9-.3.2-.3.3-.6.2-1-.1-.3-.2-.7-.5-.9-.3-.2-.6-.3-1-.3-.4.2-.7.4-.9.6m11.3-1c.1.3.3.7.6.9.3.2.7.3 1 .2l-.6-2.6c-.3.1-.6.3-.8.6-.2.2-.2.6-.2.9M185.5 65.9c-.3.2-.5.5-.5.9-.1.4 0 .7.2 1 .2.3.5.5.9.5.3.1.7 0 1-.2.3-.2.5-.5.5-.9.1-.3 0-.7-.2-1-.5-.6-1.4-.7-1.9-.3m4.3.8c-.3.2-.5.5-.6.8-.1.3 0 .7.2 1 .2.3.5.5.8.6.3.1.7 0 1-.2.3-.2.5-.5.6-.8.1-.3 0-.7-.2-1-.3-.6-1.2-.8-1.8-.4m4.4 1c-.3.2-.5.5-.6.8-.1.3 0 .7.1 1 .2.3.5.5.8.6l.7-2.6c-.3 0-.7 0-1 .2m4.3 1.1c-.3.2-.5.5-.6.8-.1.3-.1.7.1 1 .2.3.5.6.8.7.3.1.7.1 1-.1.3-.2.5-.5.7-.8.1-.3.1-.7-.1-1-.4-.6-1.3-.9-1.9-.6m4.2 1.4c-.3.2-.6.5-.7.8-.1.3-.1.7.1 1 .2.3.4.6.8.7.3.1.7.1 1 0 .3-.2.6-.4.7-.8.1-.3.1-.7 0-1-.4-.7-1.2-1-1.9-.7m4.2 1.5c-.3.2-.6.4-.7.7-.1.3-.1.7 0 1 .1.3.4.6.7.7.3.1.7.1 1 0 .3-.1.6-.4.7-.7.1-.3.1-.7 0-1-.2-.6-1-1-1.7-.7m-11.7-4.1l-.7 2.6c.3.1.7 0 1-.1.3-.2.5-.5.6-.8.1-.3 0-.7-.1-1-.1-.4-.5-.7-.8-.7m15.8 5.8c-.3.1-.6.4-.7.7-.1.3-.1.7 0 1 .1.3.4.6.7.7l1.1-2.4c-.4-.1-.7-.1-1.1 0m4.1 1.9c-.3.1-.6.4-.8.7-.2.3-.2.7-.1 1 .1.3.4.6.7.8.3.1.7.2 1 .1.3-.1.6-.4.8-.7.2-.3.2-.7.1-1-.2-.7-1.1-1.1-1.7-.9m3.9 2c-.3.1-.6.3-.8.6-.2.3-.2.7-.1 1 .1.3.3.6.6.8.3.2.7.2 1 .1.3-.1.6-.3.8-.6.2-.3.2-.7.1-1-.1-.6-.9-1.1-1.6-.9m3.9 2.2c-.3.1-.6.3-.8.6-.2.3-.2.7-.2 1 .1.3.3.6.6.8.3.2.7.2 1 .2.3-.1.6-.3.8-.6.2-.3.2-.7.2-1-.1-.6-.9-1.1-1.6-1m-10.8-6l-1.1 2.4c.3.1.7.2 1 0 .3-.1.6-.4.7-.7.1-.3.2-.7 0-1 0-.4-.3-.6-.6-.7m14.6 8.4c-.3.1-.7.3-.8.6-.2.3-.3.7-.2 1 .1.4.3.7.6.8l1.5-2.2c-.4-.2-.8-.3-1.1-.2m3.7 2.5c-.3.1-.7.3-.9.5-.2.3-.3.7-.2 1 .1.4.2.7.5.9.3.2.6.3 1 .2.3-.1.7-.3.9-.5.2-.3.3-.6.3-1-.2-.6-1-1.2-1.6-1.1m3.5 2.7c-.3 0-.7.2-.9.5-.2.3-.3.6-.3 1 0 .3.2.7.5.9.3.2.6.3 1 .3.3 0 .7-.2.9-.5.2-.3.3-.6.3-1-.1-.7-.8-1.3-1.5-1.2m3.5 2.8c-.3 0-.7.2-.9.5-.2.3-.3.6-.3 1 0 .3.2.7.5.9.3.2.6.3 1 .3.3 0 .7-.2.9-.4.2-.3.4-.6.3-1-.2-.7-.8-1.3-1.5-1.3"/><path class="st2" d="M227.7 82.1l-1.5 2.2c.3.2.6.3 1 .2.3-.1.7-.3.9-.6.2-.3.3-.7.2-1-.1-.3-.3-.6-.6-.8m13 10.8c-.4 0-.7.2-.9.4-.2.3-.4.6-.4 1s.2.7.4.9l1.8-1.9c-.2-.3-.6-.4-.9-.4m3.2 3.1c-.4 0-.7.1-.9.4-.2.2-.4.6-.4.9 0 .4.1.7.4.9.2.2.6.4.9.4.3 0 .7-.1.9-.4.3-.2.4-.6.4-.9 0-.6-.6-1.3-1.3-1.3m3 3.3c-.4 0-.7.1-1 .3-.3.2-.4.6-.4.9 0 .3.1.7.3 1 .2.3.6.4.9.4.3 0 .7-.1 1-.3.3-.2.4-.6.5-.9 0-.7-.6-1.4-1.3-1.4m2.9 3.3c-.3 0-.7.1-1 .3-.3.2-.4.6-.5.9 0 .3.1.7.3 1 .2.3.5.4.9.5.3 0 .7-.1 1-.3.3-.2.4-.5.5-.9.1-.7-.5-1.4-1.2-1.5"/><path class="st2" d="M241.6 93.3l-1.8 1.9c.2.2.6.4.9.4.3 0 .7-.2.9-.4.2-.2.4-.6.4-1 0-.3-.1-.7-.4-.9m11 12.8c-.3 0-.7.1-1 .3-.3.2-.5.5-.5.9-.1.4 0 .7.2 1l2.1-1.6c-.1-.3-.5-.5-.8-.6m2.6 3.6c-.3-.1-.7 0-1 .2-.3.2-.5.5-.6.9-.1.4 0 .7.2 1 .2.3.5.5.8.6.3.1.7 0 1-.2.3-.2.5-.5.6-.8.2-.8-.3-1.6-1-1.7m2.5 3.7c-.3-.1-.7 0-1 .2-.3.2-.5.5-.6.8-.1.3 0 .7.2 1 .2.3.5.5.8.6.3.1.7 0 1-.2.3-.2.5-.5.6-.8.1-.6-.3-1.4-1-1.6m2.3 3.8c-.3-.1-.7 0-1 .1-.3.2-.5.5-.6.8-.1.3 0 .7.1 1 .2.3.5.5.8.6.3.1.7 0 1-.1.3-.2.5-.5.6-.8.2-.6-.2-1.4-.9-1.6m-6.5-10.5l-2.1 1.6c.2.3.5.5.9.5.3 0 .7 0 1-.3.3-.2.5-.5.5-.9 0-.3-.1-.7-.3-.9m8.6 14.5c-.3-.1-.7-.1-1 .1-.3.2-.5.5-.7.8-.1.3-.1.7.1 1l2.4-1.2c-.2-.4-.4-.6-.8-.7m2 4c-.3-.1-.7-.1-1 .1-.3.1-.6.4-.7.8-.1.3-.1.7 0 1 .1.3.4.6.8.7.3.1.7.1 1 0 .3-.1.6-.4.7-.7.2-.9-.2-1.7-.8-1.9m1.8 4c-.3-.1-.7-.1-1 0-.3.1-.6.4-.7.7-.1.3-.1.7 0 1 .1.3.4.6.7.7.3.1.7.1 1 0 .3-.1.6-.4.7-.7.3-.5-.1-1.4-.7-1.7m1.6 4.2c-.3-.1-.7-.2-1 0-.3.1-.6.4-.8.7-.1.3-.2.7-.1 1 .1.3.4.6.7.8.3.1.7.2 1 .1.3-.1.6-.4.8-.7.3-.8 0-1.6-.6-1.9"/><path class="st2" d="M262.9 121.8l-2.4 1.2c.2.3.4.6.8.7.3.1.7.1 1-.1.3-.2.6-.4.7-.8.1-.3.1-.7-.1-1m6 15.8c-.3-.2-.7-.2-1-.1-.3.1-.6.4-.8.7-.2.3-.2.7-.1 1l2.5-.8c0-.3-.2-.6-.6-.8m1.3 4.3c-.3-.2-.7-.2-1-.1-.3.1-.6.3-.8.6-.2.3-.2.7-.2 1 .1.3.3.6.6.8.3.2.7.2 1 .1.3-.1.6-.3.8-.6.4-.6.2-1.5-.4-1.8m1.1 4.3c-.3-.2-.7-.2-1-.2-.4.1-.6.3-.8.6-.2.3-.2.7-.2 1 .1.3.3.6.6.8.3.2.7.3 1 .2.3-.1.7-.3.9-.6.3-.6.1-1.4-.5-1.8m.9 4.3c-.3-.2-.7-.3-1-.2-.3.1-.7.3-.9.6-.2.3-.3.7-.2 1 .1.3.3.6.6.9.3.2.6.3 1 .2.3-.1.7-.3.9-.5.3-.7.2-1.5-.4-2m-2.6-12.1l-2.5.8c.1.3.3.6.6.8.3.2.7.2 1 .1.3-.1.6-.3.8-.6.2-.4.2-.8.1-1.1m3.3 16.5c-.3-.2-.6-.3-1-.3-.3.1-.7.2-.9.5-.2.3-.3.6-.3 1l2.6-.3c0-.3-.1-.6-.4-.9m.5 4.5c-.3-.2-.6-.3-1-.3-.3 0-.7.2-.9.5-.2.3-.3.6-.3 1 0 .3.2.7.5.9.3.2.6.3 1 .3.3 0 .7-.2.9-.5.5-.6.4-1.5-.2-1.9m.4 4.4c-.3-.2-.6-.4-1-.3-.4 0-.7.2-.9.4-.2.3-.4.6-.4 1 0 .3.2.7.4.9.3.2.6.4 1 .3.3 0 .7-.2.9-.4.5-.5.5-1.4 0-1.9m.2 4.5c-.3-.2-.6-.4-1-.4-.3 0-.7.2-.9.4-.2.3-.4.6-.4.9 0 .3.1.7.4.9.2.2.6.4.9.4.3 0 .7-.1.9-.4.5-.4.5-1.3.1-1.8m-.6-12.5l-2.6.3c0 .3.2.7.5.9.3.2.7.3 1 .3.3 0 .7-.2.9-.5.2-.2.2-.6.2-1m.5 16.9c-.2-.2-.6-.4-.9-.4-.3 0-.7.1-1 .4-.3.2-.4.6-.4.9l2.7.1c0-.4-.2-.7-.4-1m-.2 4.5c-.2-.3-.6-.4-.9-.5-.3 0-.7.1-1 .3-.3.2-.4.6-.4.9 0 .3.1.7.3 1 .2.3.6.4.9.5.3 0 .7-.1 1-.3.5-.5.5-1.4.1-1.9m-.5 4.4c-.2-.3-.6-.5-.9-.5-.4 0-.7.1-1 .3-.3.2-.5.5-.5.9 0 .3.1.7.3 1 .2.3.5.5.9.5.3 0 .7-.1 1-.3.6-.4.7-1.3.2-1.9m-.6 4.4c-.2-.3-.5-.5-.9-.5-.3-.1-.7 0-1 .2-.3.2-.5.5-.5.9-.1.3 0 .7.2 1 .2.3.5.5.9.5.3.1.7 0 1-.2.6-.4.8-1.3.3-1.9"/><path class="st2" d="M274.3 173.7l-2.7-.1c0 .3.1.7.3 1 .2.2.6.4.9.4.3 0 .7-.1 1-.3.3-.3.4-.7.5-1m-2.4 16.7c-.2-.3-.5-.5-.8-.6-.3-.1-.7 0-1 .2-.3.2-.5.5-.6.8l2.6.6c0-.3-.1-.7-.2-1m-1 4.3c-.2-.3-.5-.5-.8-.6-.3-.1-.7 0-1 .1-.3.2-.5.5-.6.8-.1.3 0 .7.1 1 .2.3.5.5.8.6.3.1.7 0 1-.1.6-.3.8-1.2.5-1.8m-1.2 4.3c-.2-.3-.5-.5-.8-.6-.3-.1-.7-.1-1 .1-.3.2-.6.5-.7.8-.1.3-.1.7.1 1 .2.3.5.5.8.7.3.1.7.1 1-.1.7-.4.9-1.2.6-1.9m-1.3 4.3c-.2-.3-.5-.6-.8-.7-.3-.1-.7-.1-1 .1-.3.2-.6.4-.7.8-.1.3-.1.7 0 1 .2.3.4.6.8.7.3.1.7.1 1 0 .7-.4 1-1.3.7-1.9m3.6-11.9l-2.6-.6c-.1.3 0 .7.2 1 .2.3.5.5.8.6.3.1.7 0 1-.2.4-.1.5-.5.6-.8m-5.2 16.1c-.2-.3-.4-.6-.7-.7-.3-.1-.7-.1-1 0-.3.1-.6.4-.7.7l2.5 1c.1-.3.1-.7-.1-1m-1.7 4.1c-.1-.3-.4-.6-.7-.7-.3-.1-.7-.1-1 0-.3.1-.6.4-.7.7-.1.3-.2.7 0 1 .1.3.4.6.7.7.3.1.7.2 1 0 .7-.2 1-1.1.7-1.7m-1.8 4c-.1-.3-.4-.6-.7-.8-.3-.2-.7-.2-1-.1-.3.1-.6.4-.8.7-.1.3-.2.7-.1 1 .1.3.4.6.7.8.3.2.7.2 1 .1.7-.2 1.1-1 .9-1.7m-2.1 4c-.1-.3-.3-.6-.6-.8-.3-.2-.7-.2-1-.1-.3.1-.6.3-.8.6-.2.3-.2.7-.1 1 .1.3.3.6.6.8.3.2.7.2 1 .1.7-.1 1.1-.9.9-1.6m5.7-11.1l-2.5-1c-.1.3-.1.7 0 1 .1.3.4.6.7.7.3.1.7.1 1 0 .4-.1.6-.4.8-.7m-7.9 14.9c-.1-.3-.3-.6-.6-.8-.3-.2-.7-.2-1-.2-.3.1-.6.3-.8.6l2.3 1.4c.1-.2.2-.6.1-1m-2.4 3.8c-.1-.3-.3-.7-.6-.8-.3-.2-.7-.3-1-.2-.4.1-.7.3-.8.6-.2.3-.3.6-.2 1 .1.3.3.7.6.9.3.2.7.3 1 .2.7-.2 1.2-1 1-1.7m-2.5 3.7c-.1-.3-.3-.7-.5-.9-.3-.2-.7-.3-1-.2-.3.1-.7.2-.9.5-.2.3-.3.6-.2 1 .1.3.3.7.5.9.3.2.6.3 1 .3.7-.2 1.2-.9 1.1-1.6m-2.6 3.6c0-.3-.2-.7-.5-.9-.3-.2-.6-.3-1-.3-.3 0-.7.2-.9.5-.2.3-.3.6-.3 1 0 .3.2.7.5.9.3.2.6.3 1 .3.6-.1 1.2-.8 1.2-1.5m7.3-10l-2.3-1.4c-.2.3-.2.7-.2 1 .1.3.3.6.6.8.3.2.7.2 1 .2.5-.1.7-.3.9-.6m-10.2 13.4c0-.4-.2-.7-.5-.9-.3-.2-.6-.3-1-.3s-.7.2-.9.5l2 1.7c.3-.3.5-.6.4-1m-3 3.3c0-.4-.2-.7-.4-.9-.3-.2-.6-.4-1-.4s-.7.2-.9.4c-.2.2-.4.6-.4.9 0 .3.2.7.4.9.2.2.6.4 1 .4.8.1 1.4-.6 1.3-1.3m-3.1 3.2c0-.4-.1-.7-.4-.9-.3-.3-.6-.4-.9-.4-.3 0-.7.1-.9.4-.2.2-.4.6-.4.9 0 .3.1.7.4.9.2.3.6.4.9.4.7.1 1.3-.6 1.3-1.3m-3.2 3.1c0-.3-.1-.7-.3-1-.2-.3-.6-.4-.9-.4-.3 0-.7.1-1 .3-.3.2-.4.6-.4.9 0 .3.1.7.3 1 .2.3.6.4.9.5.7 0 1.3-.6 1.4-1.3"/><path class="st2" d="M248.3 238.9l-2-1.7c-.2.3-.4.6-.3 1 0 .3.2.7.5.9.3.2.6.4 1 .3.2-.1.5-.3.8-.5m-12.4 11.5c0-.3-.1-.7-.3-1-.2-.3-.6-.4-.9-.5-.4 0-.7.1-1 .3l1.7 2.1c.3-.3.5-.6.5-.9m-3.5 2.7c0-.3-.1-.7-.3-1-.2-.3-.5-.5-.9-.5-.4-.1-.7 0-1 .2-.3.2-.5.5-.5.9 0 .3 0 .7.3 1 .2.3.5.5.9.5.7.2 1.4-.4 1.5-1.1m-3.6 2.7c.1-.3 0-.7-.2-1-.2-.3-.5-.5-.9-.6-.3-.1-.7 0-1 .2-.3.2-.5.5-.6.8-.1.3 0 .7.2 1 .2.3.5.5.8.6.8.2 1.6-.3 1.7-1m-3.7 2.4c.1-.3 0-.7-.2-1-.2-.3-.5-.5-.8-.6-.3-.1-.7 0-1 .2-.3.2-.5.5-.6.8-.1.3 0 .7.2 1 .2.3.5.5.8.6.7.2 1.5-.3 1.6-1"/><path class="st2" d="M235.4 251.3l-1.7-2.1c-.3.2-.4.5-.5.9 0 .3.1.7.3 1 .2.3.5.4.9.5.4 0 .8-.1 1-.3m-14.1 9.2c.1-.3 0-.7-.1-1-.2-.3-.5-.5-.8-.6-.3-.1-.7 0-1 .1l1.3 2.3c.3-.1.5-.4.6-.8m-3.9 2.2c.1-.3.1-.7-.1-1-.2-.3-.5-.5-.8-.7-.3-.1-.7-.1-1 .1-.3.2-.6.4-.7.8-.1.3-.1.7.1 1 .2.3.4.6.8.7.7.2 1.5-.3 1.7-.9m-4 1.9c.1-.3.1-.7-.1-1-.2-.3-.4-.6-.8-.7-.3-.1-.7-.1-1 0-.3.1-.6.4-.7.8-.1.3-.1.7 0 1 .1.3.4.6.7.7.8.3 1.7-.1 1.9-.8m-4.1 1.8c.1-.3.1-.7 0-1-.1-.3-.4-.6-.7-.7-.3-.1-.7-.1-1 0-.3.1-.6.4-.7.7-.1.3-.1.7 0 1 .1.3.4.6.7.7.6.3 1.4 0 1.7-.7m11.4-5.1l-1.3-2.3c-.3.2-.5.4-.6.8-.1.3 0 .7.1 1 .2.3.5.5.8.6.3.2.7.1 1-.1m-15.5 6.7c.1-.3.2-.7 0-1-.1-.3-.4-.6-.7-.8-.3-.2-.7-.2-1-.1l.9 2.5c.3 0 .6-.2.8-.6m-4.2 1.5c.2-.3.2-.7.1-1-.1-.3-.4-.6-.7-.8-.3-.2-.7-.2-1-.1-.3.1-.6.3-.8.6-.2.3-.2.7-.1 1 .1.3.3.6.6.8.7.4 1.5.1 1.9-.5m-4.3 1.3c.2-.3.2-.7.1-1-.1-.4-.3-.6-.6-.8-.3-.2-.7-.2-1-.2-.3.1-.6.3-.8.6-.2.3-.2.7-.1 1 .1.3.3.6.6.8.6.4 1.4.2 1.8-.4m-4.3 1c.2-.3.2-.7.2-1-.1-.3-.3-.6-.6-.8-.3-.2-.7-.2-1-.2-.3.1-.6.3-.8.6-.2.3-.3.7-.2 1 .1.3.3.7.6.9.5.3 1.4.2 1.8-.5m12-3.1l-.9-2.5c-.3.1-.6.4-.8.7-.1.3-.2.7-.1 1 .1.3.4.6.7.8.4.1.8.1 1.1 0m-16.4 4c.2-.3.3-.7.2-1-.1-.3-.3-.7-.6-.9-.3-.2-.7-.3-1-.2l.5 2.6c.4 0 .7-.2.9-.5m-.9.6l-.5-2.6c-.3.1-.6.3-.9.6-.2.3-.3.6-.2 1 .1.3.3.7.5.9.4.1.8.1 1.1.1m97.1-98c.1-2.2 1-4 2.5-5.4 2.1-2 4.7-1.8 8.2-1.6 3.5.2 6 .2 8 2.4 1.4 1.5 2.1 3.4 2 5.6-.2 3.8-2.5 6.7-6.8 7.2l.2-4c1.6-.3 2.9-1.3 3-3.3.1-1.1-.3-2-.9-2.6-.8-.8-1.8-1.1-5.7-1.3-3.9-.2-4.9 0-5.8.7-.7.5-1.1 1.4-1.2 2.5-.1 2 1.1 3.1 2.7 3.6l-.2 4c-4.2-1-6.2-4.1-6-7.8m-4.3 27.1l3.8-.3 1.8-7-3.2-2.1 1-4 17.9 12.1-.8 3-21.5 2.2 1-3.9zm15-1.1l-6.5-4.3-1.2 4.9 7.7-.6zm-19 12.4l18.4 8.7-1.7 3.6-15.2-7.2-3.9 8.3-3.2-1.5z"/><path transform="rotate(-55.714 272.845 240.372)" class="st2" d="M270.8 230.2h4v20.3h-4z"/><path class="st2" d="M266.6 258.9l-3.6-3.5-5.5 5.9-2.6-2.5 5.5-5.8-6-5.7 2.7-2.8 14.8 13.9-9.2 9.7-2.5-2.4zm-33.7 9.5c.3-2 1.3-3.7 3.2-5 1.9-1.3 3.8-1.7 5.8-1.4 2.9.5 4.3 2.6 6.3 5.4 2 2.9 3.6 4.9 3.1 7.8-.3 2-1.3 3.7-3.2 5-1.9 1.3-3.8 1.7-5.8 1.4-2.9-.5-4.3-2.6-6.4-5.4-2-2.9-3.5-4.9-3-7.8m10.4 9.5c.8.2 1.8 0 2.7-.6.9-.6 1.4-1.5 1.5-2.4.1-1.1-.3-2-2.5-5.2-2.3-3.2-3-3.8-4.1-4.1-.8-.2-1.8 0-2.7.6-.9.6-1.4 1.5-1.4 2.4-.1 1.1.2 2 2.5 5.2 2.2 3.3 2.9 3.9 4 4.1m-31.3-1l6.9 5.8 2.6-1.2-3.3-7.4 3.6-1.6 8.2 18.6-7.3 3.2c-3.8 1.7-7.2.1-8.5-3-1.1-2.6-.3-4.9 1.3-6.4l-7.7-6.2 4.2-1.8zm9.6 14.1l3.4-1.5-2.2-4.9-3.4 1.5c-1.6.7-2.2 2.2-1.6 3.6.7 1.4 2.2 2 3.8 1.3m-33.7-7.4l10.3 10.6-2.4-12.2 3.9-.8 4 19.9-3.5.7-10.3-10.6 2.4 12.2-3.9.8-4-19.9zm11-225.4c-3-.8-5.1-2.1-6.5-4.5l3.2-1.8c.9 1.6 2.5 2.4 4.3 2.9 2.3.6 3.7.1 4.1-1.5.2-.7.2-1.3-.2-1.8-.3-.5-.7-.8-1.5-1.2l-2.3-1c-1.6-.7-2.7-1.6-3.4-2.7-.7-1.2-.8-2.6-.4-4.2 1-3.5 4.2-5.2 8.5-4.1 2.7.7 4.5 1.9 5.7 4l-3.1 1.7c-.9-1.5-2.4-2.1-3.7-2.4-2-.6-3.3.3-3.7 1.7-.1.5-.1 1.1.2 1.6.3.5.8.9 1.6 1.3l2.2 1c1.7.7 2.7 1.5 3.3 2.5.8 1.3.9 2.8.4 4.6-.8 3.8-4.6 5.1-8.7 3.9M183 13.4c.3-.2.4-.6.5-.9 0-.3-.1-.7-.3-1-.4-.6-1.3-.6-1.9-.1-.3.2-.4.6-.5.9 0 .3.1.7.3 1 .2.3.6.4.9.4.4 0 .8-.1 1-.3m1.2 312.1c-.2.3-.3.6-.3 1 0 .3.2.7.5.9.5.4 1.4.4 1.9-.2.2-.3.3-.6.3-1 0-.3-.2-.7-.5-.9-.3-.2-.6-.3-1-.3-.3.1-.6.3-.9.5M181 65.3c-.3.2-.5.6-.5.9 0 .3.1.7.3 1 .2.3.5.5.9.5.3 0 .7-.1 1-.3.3-.2.5-.5.5-.9 0-.3 0-.7-.3-1-.4-.5-1.3-.6-1.9-.2m2.6 208.1c.2-.3.3-.6.2-1-.1-.3-.2-.7-.5-.9-.3-.2-.6-.3-1-.3-.3 0-.7.2-.9.5-.2.3-.3.7-.3 1 0 .3.2.7.5.9.7.5 1.6.4 2-.2"/><path class="st1" d="M193.7 95l-2.5.6c-1.1-2.4-2.2-3.2-4.8-2.6l-23 5 11.6 53c.6 2.8 1.6 3.2 4.3 3.4l.6 2.5-22.6 5-.6-2.5c2.3-1.2 3.2-2.4 2.6-4.9l-11.6-53.1-23 5c-2.7.6-3.2 1.6-3.3 4.3l-2.5.6-4.4-19.9 2.5-.6c1.2 2.4 2.2 3.1 4.8 2.5l61.7-13.5c2.7-.6 3.2-1.6 3.3-4.3l2.5-.6 4.4 20.1z"/><path class="st1" d="M172.5 181.4l-5.2-23.8-41-32.6c-1.2-1.5-1.6-4 .8-5l-.5-2.5-27.4 6 .5 2.5c2.2-.1 3.7.7 4.3 3.3l.8 104.5c.6 2.7-.3 3.5-2.5 4.8l.5 2.5 20.7-4.5-.6-2.5c-2.8-.1-3.6-.6-4.2-3.3l2.3-90.2 51.5 40.8z"/><path class="st1" d="M172.5 181.4l-5.2-23.8 23.7-46.8c.4-1.9-.2-4.3-2.8-4.2l-.5-2.5 27.4-6 .6 2.5c-2 .9-3.1 2.2-2.5 4.8l42.9 95.3c.6 2.7 1.7 3.1 4.3 3.3l.5 2.5-20.7 4.5-.5-2.5c2.5-1.3 3-2 2.4-4.7l-39.8-81-29.8 58.6z"/><path class="st1" d="M193.1 233.6l-18.6-85.1-15.7 3.4 18.6 85.1c.6 2.5-.4 3.7-2.6 4.9l.6 2.5 22.6-5-.6-2.5c-2.7 0-3.7-.5-4.3-3.3M14.6 196.4c-.3-.2-.7-.3-1-.2-.3.1-.7.3-.9.5-.4.6-.2 1.4.4 1.8.3.2.7.3 1 .2.3-.1.7-.3.9-.5.2-.3.3-.6.2-1-.1-.3-.3-.6-.6-.8m-.9-5.8c-.3-.2-.6-.3-1-.2-.3 0-.7.2-.9.5-.4.5-.3 1.4.3 1.9.3.2.6.3 1 .2.3-.1.7-.2.9-.5.2-.3.3-.6.3-1-.1-.4-.3-.7-.6-.9m-.7-5.8c-.3-.2-.6-.3-1-.3s-.7.2-.9.5c-.4.5-.4 1.4.2 1.9.3.2.6.3 1 .3.3 0 .7-.2.9-.5.2-.3.3-.6.3-1s-.2-.7-.5-.9m-.5-5.8c-.3-.2-.6-.3-1-.3-.3 0-.7.2-.9.4-.5.5-.4 1.4.1 1.9.3.2.6.3 1 .3.3 0 .7-.2.9-.4.2-.3.3-.6.3-.9 0-.5-.1-.8-.4-1m-.2-5.9c-.3-.2-.6-.4-1-.4-.3 0-.7.2-.9.4-.5.5-.4 1.4.1 1.9.3.2.6.4 1 .3.3 0 .7-.2.9-.4.2-.3.4-.6.3-.9 0-.3-.1-.7-.4-.9m0-5.9c-.3-.2-.6-.4-.9-.4-.3 0-.7.1-1 .4-.5.5-.5 1.4 0 1.9.3.2.6.4.9.4.3 0 .7-.1 1-.4.2-.2.4-.6.4-.9 0-.4-.2-.7-.4-1m2.4 34.8c-.3.1-.7.3-.9.6-.2.3-.3.7-.2 1l2.6-.6c-.1-.3-.3-.6-.6-.8-.2-.2-.5-.3-.9-.2m-6.9 2.8l2.6-.6c-2.9-13.8-4.3-28.1-3.6-42.2l-2.7-.1c-.7 14.4.7 28.9 3.7 42.9m3.6-41.2c.3 0 .7-.1 1-.3.3-.2.4-.6.4-.9l-2.7-.1c0 .3.1.7.3 1 .3.1.6.3 1 .3m10.7 38.1c-2.7-12.8-4-26-3.3-39.1l-2.7-.1c-.6 13.3.6 26.7 3.4 39.8l2.6-.6zm-9.2-46.2c-.2-.3-.6-.4-.9-.5-.3 0-.7.1-1 .3-.6.4-.6 1.3-.1 1.9.2.3.6.4.9.5.3 0 .7-.1 1-.3.3-.2.4-.6.4-.9 0-.4-.1-.7-.3-1m.6-5.8c-.2-.3-.6-.5-.9-.5-.3 0-.7.1-1 .3-.5.4-.6 1.3-.2 1.9.2.3.6.4.9.5.3 0 .7-.1 1-.3.3-.2.4-.5.5-.9 0-.4-.1-.7-.3-1m.9-5.8c-.2-.3-.5-.5-.9-.5-.3-.1-.7 0-1 .2-.6.4-.7 1.3-.3 1.8.2.3.5.5.9.5.3.1.7 0 1-.2.3-.2.5-.5.5-.9.1-.3 0-.6-.2-.9m1-5.8c-.2-.3-.5-.5-.9-.6-.3-.1-.7 0-1 .2-.6.4-.8 1.2-.4 1.8.2.3.5.5.9.6.3.1.7 0 1-.2.3-.2.5-.5.6-.8.1-.3 0-.7-.2-1m1.3-5.7c-.2-.3-.5-.5-.8-.6-.3-.1-.7 0-1 .1-.6.4-.8 1.2-.4 1.8.2.3.5.5.8.6.3.1.7 0 1-.2.3-.2.5-.5.6-.8 0-.2 0-.6-.2-.9m1.5-5.7c-.2-.3-.5-.5-.8-.6-.3-.1-.7-.1-1 .1-.6.3-.8 1.2-.5 1.8.2.3.5.5.8.6.3.1.7 0 1-.1.3-.2.5-.5.6-.8.1-.3.1-.6-.1-1m-6.6 34.2c-.3 0-.7.1-1 .3-.3.2-.4.6-.4.9l2.7.1c0-.3-.1-.7-.3-.9-.4-.2-.7-.3-1-.4"/><path class="st1" d="M4.1 161.9l2.7.1.3-5.3c.1-1.8.4-3.5.5-5.3.3-3.5.9-7 1.5-10.5 1.3-7 2.9-13.9 5.1-20.6l-2.5-.8c-2.3 6.8-3.9 13.9-5.2 20.9-.5 3.6-1.2 7.2-1.5 10.8-.2 1.8-.5 3.6-.5 5.4l-.4 5.3zM18.4 123c.3.1.7.1 1-.1.3-.2.5-.4.6-.8l-2.5-.8c-.1.3-.1.7.1 1 .1.3.4.6.8.7m.4 39.6l.3-4.9c.1-1.6.3-3.3.5-4.9.3-3.3.9-6.5 1.4-9.7 1.2-6.4 2.7-12.8 4.8-19.1l-2.5-.8c-2.1 6.3-3.6 12.9-4.8 19.4-.5 3.3-1.1 6.6-1.4 9.9-.2 1.7-.4 3.3-.5 5l-.3 5 2.5.1zm3.1-47c-.2-.3-.4-.6-.8-.7-.3-.1-.7-.1-1 0-.6.3-.9 1.1-.6 1.8.2.3.4.6.8.7.3.1.7.1 1 0 .3-.2.6-.4.7-.7 0-.4 0-.8-.1-1.1m2.1-5.5c-.1-.3-.4-.6-.7-.7-.3-.1-.7-.1-1 0-.6.3-1 1.1-.7 1.7.2.3.4.6.8.7.3.1.7.1 1 0 .3-.1.6-.4.7-.7 0-.3 0-.6-.1-1m2.3-5.3c-.1-.3-.4-.6-.7-.7-.3-.1-.7-.2-1 0-.7.3-1 1.1-.7 1.7.1.3.4.6.7.7.3.1.7.1 1 0 .3-.1.6-.4.7-.7.1-.3.1-.7 0-1m2.5-5.3c-.1-.3-.4-.6-.7-.8-.3-.2-.7-.2-1-.1-.7.2-1 1-.8 1.7.1.3.4.6.7.8.3.2.7.2 1 .1.3-.1.6-.4.7-.7.2-.3.2-.7.1-1m2.8-5.2c-.1-.3-.3-.6-.7-.8-.3-.2-.7-.2-1-.1-.7.2-1.1 1-.9 1.6.1.3.3.6.7.8.3.2.7.2 1 .1.3-.1.6-.3.8-.6.1-.3.2-.7.1-1m2.9-5.1c-.1-.3-.3-.6-.6-.8-.3-.2-.7-.2-1-.2-.7.2-1.1.9-1 1.6.1.3.3.6.6.8.3.2.7.2 1 .2.3-.1.6-.3.8-.6.2-.3.2-.7.2-1"/><path class="st1" d="M19.2 120.5c-.3-.1-.7-.1-1 .1-.3.2-.5.4-.6.8l2.5.8c.1-.3.1-.7-.1-1-.2-.4-.5-.6-.8-.7m-7.4-1l2.5.8c4.2-13.5 10.5-26.4 18-38.4L30 80.5c-7.6 12.2-14 25.3-18.2 39m23.8-33.9c.3.2.7.2 1 .2.3-.1.6-.3.8-.6l-2.2-1.4c-.2.3-.3.7-.2 1 0 .3.3.6.6.8M25.8 124c3.9-12.5 9.7-24.4 16.7-35.5L40.2 87c-7.1 11.3-13 23.4-17 36.2l2.6.8zm15-44.6c-.1-.3-.3-.7-.6-.9-.3-.2-.6-.3-1-.2-.7.1-1.2.9-1 1.6.1.3.3.7.6.9.3.2.7.3 1 .2.3-.1.6-.3.8-.5.2-.4.3-.8.2-1.1m3.5-4.8c-.1-.3-.3-.7-.5-.9-.3-.2-.6-.3-1-.3-.7.1-1.2.8-1.1 1.5.1.3.3.7.5.9.3.2.6.3 1 .3.3-.1.7-.2.9-.5.2-.3.3-.6.2-1M48 70c0-.3-.2-.7-.5-.9-.3-.2-.6-.3-1-.3-.7.1-1.3.7-1.2 1.4 0 .3.2.7.5.9.3.2.6.3 1 .3.3 0 .7-.2.9-.5.2-.2.3-.5.3-.9m3.7-4.4c0-.3-.2-.7-.5-.9-.3-.2-.6-.4-1-.3-.7 0-1.3.7-1.3 1.4 0 .4.2.7.5.9.3.2.6.3 1 .3.3 0 .7-.2.9-.4.3-.3.5-.7.4-1m4-4.4c0-.3-.2-.7-.4-.9-.3-.2-.6-.4-1-.4-.7 0-1.3.7-1.3 1.4 0 .3.2.7.4.9.3.2.6.4.9.4.3 0 .7-.2.9-.4.4-.3.5-.6.5-1m4.1-4.1c0-.3-.2-.7-.4-.9-.2-.3-.6-.4-.9-.4-.7 0-1.3.6-1.3 1.3 0 .3.2.7.4.9s.6.4.9.4c.3 0 .7-.1.9-.4.3-.2.4-.6.4-.9M37 83.4c-.3-.2-.7-.3-1-.2-.3.1-.6.3-.8.6l2.2 1.4c.2-.3.3-.6.2-1-.1-.3-.3-.6-.6-.8"/><path class="st1" d="M30 80.5l2.3 1.4C40 70.1 49.1 59.1 59.6 49.6l-1.8-2C47.1 57.2 37.9 68.5 30 80.5m31.8-26.6c.2.3.6.4.9.4.3 0 .7-.1.9-.3l-1.8-2c-.3.2-.4.6-.4.9.1.4.2.7.4 1M42.4 88.4c7.2-11 15.6-21.2 25.3-30l-1.8-2C56 65.4 47.5 75.8 40.2 87l2.2 1.4zm26.1-39.1c0-.3-.1-.7-.3-1-.2-.3-.6-.4-.9-.5-.7-.1-1.4.5-1.4 1.2 0 .3.1.7.3 1 .2.3.6.4.9.5.3 0 .7-.1 1-.3.2-.3.4-.6.4-.9m4.6-3.7c0-.3-.1-.7-.3-1-.2-.3-.5-.5-.9-.5-.7-.1-1.4.5-1.5 1.2 0 .4.1.7.3 1 .2.3.5.5.9.5.3 0 .7-.1 1-.3.3-.3.4-.6.5-.9m4.7-3.5c0-.3 0-.7-.2-1-.2-.3-.5-.5-.9-.5-.7-.1-1.4.4-1.5 1.1 0 .3 0 .7.3 1 .2.3.5.5.9.5.3 0 .7 0 1-.2.1-.3.3-.6.4-.9m4.8-3.3c.1-.3 0-.7-.2-1-.2-.3-.5-.5-.8-.6-.7-.1-1.4.4-1.6 1-.1.3 0 .7.2 1 .2.3.5.5.8.6.3.1.7 0 1-.2.4-.2.6-.5.6-.8m5-3.2c.1-.3 0-.7-.2-1-.2-.3-.5-.5-.8-.6-.7-.2-1.4.3-1.6 1-.1.3 0 .7.2 1 .2.3.5.5.8.6.3.1.7 0 1-.1.3-.2.5-.5.6-.9m5-2.9c.1-.3 0-.7-.1-1-.2-.3-.5-.5-.8-.7-.7-.2-1.5.2-1.6.9-.1.3 0 .7.1 1 .2.3.5.5.8.6.3.1.7 0 1-.1.3-.1.5-.4.6-.7M63.8 52.1c-.2-.3-.6-.4-.9-.4-.3 0-.7.1-.9.4l1.8 2c.3-.2.4-.6.4-.9-.1-.4-.2-.8-.4-1.1"/><path class="st1" d="M57.8 47.6l1.8 2c5.2-4.8 10.8-9.2 16.6-13.3 2.9-2 5.9-4 8.9-5.8 1.5-.9 3-1.9 4.6-2.7l4.7-2.5-1.2-2.4-4.8 2.6c-1.6.8-3.1 1.8-4.7 2.7-3.1 1.8-6.1 3.9-9.1 5.9-5.8 4.2-11.5 8.6-16.8 13.5m37.6-17.5c.2.3.5.5.8.7.3.1.7.1 1-.1L96 28.3c-.3.2-.5.4-.7.8-.1.3-.1.7.1 1M67.8 58.5c4.8-4.5 10-8.5 15.3-12.3 2.7-1.8 5.4-3.7 8.3-5.3 1.4-.8 2.8-1.7 4.2-2.5l4.3-2.3-1.2-2.4-4.4 2.3c-1.5.8-2.9 1.7-4.3 2.5-2.9 1.7-5.6 3.6-8.4 5.4-5.4 3.9-10.7 7.9-15.6 12.5l1.8 2.1zm35.3-31.1c.1-.3.1-.7-.1-1-.1-.3-.4-.6-.7-.7-.6-.2-1.5.1-1.7.8-.1.3-.1.7.1 1 .2.3.4.6.8.7.3.1.7.1 1 0 .2-.2.5-.5.6-.8m5.4-2.4c.1-.3.1-.7 0-1-.1-.3-.4-.6-.7-.7-.6-.3-1.5.1-1.7.7-.1.3-.1.7 0 1 .1.3.4.6.7.7.3.1.7.1 1 0 .3-.1.5-.4.7-.7m5.4-2.2c.1-.3.1-.7 0-1-.1-.3-.4-.6-.7-.8-.6-.3-1.5 0-1.8.6-.1.3-.1.7 0 1 .1.3.4.6.7.7.3.1.7.1 1 0 .4.1.7-.2.8-.5m5.5-1.9c.1-.3.2-.7.1-1-.1-.3-.4-.6-.7-.8-.6-.3-1.5 0-1.8.6-.1.3-.2.7 0 1 .1.3.4.6.7.8.3.1.7.2 1 .1.3-.2.6-.4.7-.7m5.6-1.8c.2-.3.2-.7.1-1-.1-.3-.3-.6-.6-.8-.6-.3-1.5-.1-1.8.5-.2.3-.2.7-.1 1 .1.3.3.6.6.8.3.2.7.2 1 .1.4 0 .7-.3.8-.6m5.7-1.5c.2-.3.2-.7.1-1-.1-.3-.3-.6-.6-.8-.6-.4-1.5-.2-1.8.4-.2.3-.2.7-.1 1 .1.3.3.6.6.8.3.2.7.2 1 .2.3-.1.6-.3.8-.6"/><path class="st1" d="M97.7 28.9c-.2-.3-.4-.6-.8-.7-.3-.1-.7 0-1 .1l1.2 2.4c.3-.2.5-.5.6-.8.2-.4.2-.7 0-1m-4.5-6l1.2 2.4c12.6-6.5 26.1-11.3 39.9-14.4l-.6-2.6c-14 3.2-27.7 8-40.5 14.6m40.8-7.1c.1.3.3.6.6.8.3.2.7.2 1 .2l-.6-2.6c-.3.1-.6.3-.8.6-.2.3-.3.7-.2 1M99.9 36c11.6-6 24.1-10.4 36.9-13.3l-.6-2.6c-13 3-25.7 7.4-37.6 13.6l1.3 2.3zm42.2-20.8c.2-.3.3-.7.2-1-.1-.3-.3-.7-.5-.9-.6-.4-1.4-.2-1.8.4-.2.3-.3.7-.2 1 .1.3.3.7.5.9.3.2.6.3 1 .2.3-.2.6-.4.8-.6m5.8-.9c.2-.3.3-.6.2-1 0-.3-.2-.7-.5-.9-.5-.4-1.4-.3-1.9.3-.2.3-.3.6-.2 1 .1.3.2.7.5.9.3.2.6.3 1 .3.4-.2.7-.4.9-.6m5.9-.7c.2-.3.3-.6.3-1 0-.3-.2-.7-.5-.9-.5-.4-1.4-.4-1.9.2-.2.3-.3.6-.3 1 0 .3.2.7.5.9.3.2.6.3 1 .3.3-.1.6-.3.9-.5m5.8-.5c.2-.3.3-.6.3-1 0-.3-.2-.7-.4-.9-.5-.5-1.4-.4-1.9.1-.2.3-.3.6-.3 1 0 .3.2.7.4.9.3.2.6.3.9.3.4 0 .8-.2 1-.4m5.9-.2c.2-.3.4-.6.4-1 0-.3-.2-.7-.4-.9-.5-.5-1.4-.4-1.9.1-.2.3-.4.6-.3 1 0 .3.2.7.4.9.3.2.6.4.9.3.3 0 .6-.2.9-.4m5.8-.1c.2-.3.4-.6.4-.9 0-.3-.1-.7-.4-1-.5-.5-1.4-.5-1.9 0-.2.3-.4.6-.4.9 0 .3.1.7.4 1 .2.2.6.4.9.4.4 0 .8-.1 1-.4"/><path class="st1" d="M136.6 15.3c-.1-.3-.3-.7-.6-.9-.3-.2-.7-.3-1-.2l.6 2.6c.3-.1.6-.3.8-.6.2-.2.2-.6.2-.9m-2.9-7l.6 2.6c13.8-2.9 28.1-4.3 42.2-3.6l.1-2.7c-14.4-.6-28.8.7-42.9 3.7m41.3 3.6c0 .3.1.7.3 1 .2.3.6.4.9.4l.1-2.7c-.3 0-.7.1-1 .3-.1.4-.3.7-.3 1m-38.1 10.8c12.8-2.7 26-4 39.1-3.3l.1-2.7c-13.3-.6-26.7.6-39.8 3.4l.6 2.6zm40.7-10.6c0-.3-.1-.7-.3-1-.2-.3-.6-.4-.9-.4l-.1 2.7c.3 0 .7-.1.9-.3.2-.3.4-.7.4-1m-1-7.4l-.1 2.7 5.3.3c1.8.1 3.5.4 5.3.5 3.5.3 7 .9 10.5 1.5 7 1.3 13.9 2.9 20.6 5.1l.8-2.5c-6.8-2.3-13.9-3.9-20.9-5.2-3.6-.6-7.1-1.2-10.7-1.5-1.8-.2-3.6-.5-5.4-.5l-5.4-.4zm-.6 14.7l4.9.3c1.6.1 3.3.3 4.9.5 3.3.3 6.5.9 9.7 1.4 6.4 1.2 12.8 2.7 19.1 4.8l.8-2.5c-6.3-2.1-12.9-3.6-19.4-4.8-3.3-.5-6.6-1.1-9.9-1.4-1.7-.2-3.3-.4-5-.5l-5-.3-.1 2.5zm2.4 306.6c-.2.3-.3.6-.3 1 0 .3.2.7.4.9.5.5 1.4.4 1.9-.1.2-.3.3-.6.3-1 0-.3-.2-.7-.4-.9-.3-.2-.6-.3-.9-.3-.4 0-.8.2-1 .4m-5.9.2c-.2.3-.4.6-.4 1 0 .3.2.7.4.9.5.5 1.4.4 1.9-.1.2-.3.4-.6.3-1 0-.3-.2-.7-.4-.9-.3-.2-.6-.4-.9-.3-.3 0-.6.2-.9.4m-5.8.1c-.2.3-.4.6-.4.9 0 .3.1.7.4 1 .5.5 1.4.5 1.9 0 .2-.3.4-.6.4-.9 0-.3-.1-.7-.4-1-.2-.2-.6-.4-.9-.4-.4 0-.8.1-1 .4m37.6 4.5l-.6-2.6c-13.8 2.9-28.1 4.3-42.2 3.6l-.1 2.7c14.4.6 28.8-.7 42.9-3.7m-41.3-3.6c0-.3-.1-.7-.3-1-.2-.3-.6-.4-.9-.4l-.1 2.7c.3 0 .7-.1 1-.3.1-.4.3-.7.3-1m38.2-10.8c-12.8 2.7-26 4-39.1 3.3l-.1 2.7c13.3.6 26.7-.6 39.8-3.4l-.6-2.6zm-46.2 9.3c-.3.2-.4.6-.5.9 0 .3.1.7.3 1 .4.6 1.3.6 1.9.1.3-.2.4-.6.5-.9 0-.3-.1-.7-.3-1-.2-.3-.6-.4-.9-.4-.4 0-.8.1-1 .3m-5.8-.7c-.3.2-.5.6-.5.9 0 .3.1.7.3 1 .4.5 1.3.6 1.9.2.3-.2.4-.6.5-.9 0-.3-.1-.7-.3-1-.2-.3-.5-.4-.9-.5-.4 0-.8.1-1 .3m-5.8-.8c-.3.2-.5.5-.5.9-.1.3 0 .7.2 1 .4.6 1.3.7 1.8.3.3-.2.5-.5.5-.9.1-.3 0-.7-.2-1-.2-.3-.5-.5-.9-.5-.3-.1-.7 0-.9.2m-5.8-1.1c-.3.2-.5.5-.6.9-.1.3 0 .7.2 1 .4.6 1.2.8 1.8.4.3-.2.5-.5.6-.9.1-.3 0-.7-.2-1-.2-.3-.5-.5-.8-.6-.4-.1-.7 0-1 .2m-5.7-1.3c-.3.2-.5.5-.6.8-.1.3 0 .7.1 1 .4.6 1.2.8 1.8.4.3-.2.5-.5.6-.8.1-.3 0-.7-.2-1-.2-.3-.5-.5-.8-.6-.3 0-.6.1-.9.2m-5.7-1.5c-.3.2-.5.5-.6.8-.1.3-.1.7.1 1 .3.6 1.2.8 1.8.5.3-.2.5-.5.6-.8.1-.3 0-.7-.1-1-.2-.3-.5-.5-.8-.6-.3-.1-.7 0-1 .1m34.2 6.7c0 .3.1.7.3 1 .2.3.6.4.9.4l.1-2.7c-.3 0-.7.1-.9.3-.2.3-.4.7-.4 1m1 7.4l.1-2.7-5.3-.3c-1.8-.1-3.5-.4-5.3-.5-3.5-.3-7-.9-10.5-1.5-7-1.3-13.9-2.9-20.6-5.1l-.8 2.5c6.8 2.3 13.9 3.9 20.9 5.2 3.6.6 7.1 1.2 10.7 1.5 1.8.2 3.6.5 5.4.5l5.4.4zm-39-14.2c.1-.3.1-.7-.1-1-.2-.3-.4-.5-.8-.6l-.8 2.5c.3.1.7.1 1-.1.4-.2.6-.5.7-.8m39.6-.5l-4.9-.3c-1.6-.1-3.3-.3-4.9-.5-3.3-.3-6.5-.9-9.7-1.4-6.4-1.2-12.8-2.7-19.1-4.8l-.8 2.5c6.3 2.1 12.9 3.6 19.4 4.8 3.3.5 6.6 1.1 9.9 1.4 1.7.2 3.3.4 5 .5l5 .3.1-2.5zm-46.9-3c-.3.2-.6.4-.7.8-.1.3-.1.7 0 1 .3.6 1.1.9 1.8.6.3-.2.6-.4.7-.8.1-.3.1-.7 0-1-.2-.3-.4-.6-.7-.7-.4-.1-.8 0-1.1.1m-5.5-2.1c-.3.1-.6.4-.7.7-.1.3-.1.7 0 1 .3.6 1.1 1 1.7.7.3-.2.6-.4.7-.8.1-.3.1-.7 0-1-.1-.3-.4-.6-.7-.7-.3-.1-.7 0-1 .1m-5.4-2.3c-.3.1-.6.4-.7.7-.1.3-.2.7 0 1 .3.7 1.1 1 1.7.7.3-.1.6-.4.7-.7.1-.3.1-.7 0-1-.1-.3-.4-.6-.7-.7-.3-.1-.7-.1-1 0m-5.3-2.6c-.3.1-.6.4-.8.7-.2.3-.2.7-.1 1 .2.7 1 1 1.7.8.3-.1.6-.4.8-.7.2-.3.2-.7.1-1-.1-.3-.4-.6-.7-.7-.3-.2-.6-.2-1-.1m-5.2-2.7c-.3.1-.6.3-.8.7-.2.3-.2.7-.1 1 .2.7 1 1.1 1.6.9.3-.1.6-.3.8-.7.2-.3.2-.7.1-1-.1-.3-.3-.6-.6-.8-.3-.2-.6-.2-1-.1m-5-2.9c-.3.1-.6.3-.8.6-.2.3-.2.7-.2 1 .2.7.9 1.1 1.6 1 .3-.1.6-.3.8-.6.2-.3.2-.7.2-1-.1-.3-.3-.6-.6-.8-.3-.2-.7-.3-1-.2"/><path class="st1" d="M119.9 319.4c-.1.3-.1.7.1 1 .2.3.4.5.8.6l.8-2.5c-.3-.1-.7-.1-1 .1-.3.2-.5.5-.7.8m-.9 7.4l.8-2.5c-13.5-4.2-26.4-10.5-38.4-18l-1.4 2.3c12.1 7.6 25.2 13.9 39 18.2M85 303c.2-.3.2-.7.2-1-.1-.3-.3-.6-.6-.8l-1.4 2.2c.3.2.7.3 1 .2.4-.1.7-.3.8-.6m38.4 9.8c-12.5-3.9-24.4-9.7-35.5-16.7l-1.4 2.3c11.3 7.1 23.4 13 36.2 17l.7-2.6zm-44.6-15.1c-.3.1-.7.3-.9.6-.2.3-.3.6-.2 1 .1.7.9 1.2 1.6 1 .3-.1.7-.3.9-.6.2-.3.3-.7.2-1-.1-.3-.3-.6-.5-.8-.4-.2-.7-.2-1.1-.2m-4.7-3.5c-.3.1-.7.3-.9.5-.2.3-.3.6-.3 1 .1.7.8 1.2 1.5 1.1.3-.1.7-.3.9-.5.2-.3.3-.6.3-1-.1-.3-.2-.7-.5-.9-.3-.1-.7-.2-1-.2m-4.6-3.6c-.3 0-.7.2-.9.5-.2.3-.3.6-.3 1 .1.7.7 1.3 1.4 1.2.3 0 .7-.2.9-.5.2-.3.3-.6.3-1 0-.3-.2-.7-.5-.9-.2-.2-.6-.3-.9-.3m-4.5-3.8c-.3 0-.7.2-.9.5-.2.3-.4.6-.3 1 0 .7.7 1.3 1.4 1.3.4 0 .7-.2.9-.5.2-.3.3-.6.3-1 0-.3-.2-.7-.4-.9-.3-.3-.6-.4-1-.4m-4.3-3.9c-.3 0-.7.2-.9.4-.2.3-.4.6-.4 1 0 .7.7 1.3 1.4 1.3.3 0 .7-.2.9-.4.2-.3.4-.6.4-.9 0-.3-.2-.7-.4-.9-.3-.4-.7-.5-1-.5m-4.1-4.2c-.3 0-.7.2-1 .4-.2.2-.4.6-.4.9 0 .7.6 1.3 1.3 1.3.3 0 .7-.2.9-.4.2-.2.4-.6.4-.9 0-.3-.1-.7-.4-.9-.2-.2-.5-.4-.8-.4"/><path class="st1" d="M82.8 301.6c-.2.3-.3.7-.2 1 .1.3.3.6.6.8l1.4-2.2c-.3-.2-.6-.3-1-.2-.3.1-.6.3-.8.6m-2.8 6.9l1.4-2.3c-11.9-7.7-22.9-16.8-32.4-27.3l-2 1.8c9.7 10.7 20.9 19.9 33 27.8m-26.6-31.8c.3-.2.4-.6.4-.9 0-.3-.1-.7-.3-.9l-2 1.8c.2.3.6.4.9.4.4 0 .7-.1 1-.4m34.5 19.4c-11-7.2-21.2-15.6-30-25.3l-2 1.8c8.9 9.9 19.3 18.5 30.5 25.8l1.5-2.3zM48.7 270c-.3 0-.7.1-1 .3-.3.2-.4.6-.5.9-.1.7.5 1.4 1.2 1.4.3 0 .7-.1 1-.3.3-.2.4-.6.5-.9 0-.3-.1-.7-.3-1-.2-.2-.6-.3-.9-.4m-3.7-4.5c-.3 0-.7.1-1 .3-.3.2-.5.5-.5.9-.1.7.5 1.4 1.2 1.5.4 0 .7-.1 1-.3.3-.2.5-.5.5-.9 0-.3-.1-.7-.3-1-.2-.3-.5-.5-.9-.5m-3.5-4.7c-.3 0-.7 0-1 .2-.3.2-.5.5-.5.9-.1.7.4 1.4 1.1 1.5.3 0 .7-.1 1-.3.3-.2.5-.5.5-.9 0-.3 0-.7-.2-1-.2-.2-.5-.4-.9-.4m-3.3-4.9c-.3-.1-.7 0-1 .2-.3.2-.5.5-.6.8-.1.7.4 1.4 1 1.6.3.1.7 0 1-.2.3-.2.5-.5.6-.8.1-.3 0-.7-.2-1-.1-.3-.5-.5-.8-.6m-3.1-4.9c-.3-.1-.7 0-1 .2-.3.2-.5.5-.6.8-.2.7.3 1.4 1 1.6.3.1.7 0 1-.2.3-.2.5-.5.6-.8.1-.3 0-.7-.1-1-.3-.3-.6-.5-.9-.6m-3-5.1c-.3-.1-.7 0-1 .1-.3.2-.5.5-.7.8-.2.7.2 1.5.9 1.6.3.1.7 0 1-.1.3-.2.5-.5.6-.8.1-.3 0-.7-.1-1-.1-.3-.4-.5-.7-.6m19.5 28.9c-.3.2-.4.6-.4.9 0 .3.1.7.4.9l2-1.8c-.2-.3-.6-.4-.9-.4-.5 0-.8.2-1.1.4m-4.6 5.9l2-1.8c-4.8-5.2-9.2-10.8-13.3-16.6-2-2.9-4-5.9-5.8-8.9-.9-1.5-1.9-3-2.7-4.6l-2.5-4.7-2.4 1.2 2.6 4.8c.8 1.6 1.8 3.1 2.7 4.7 1.8 3.1 3.9 6.1 5.9 9.1 4.2 5.8 8.6 11.6 13.5 16.8m-17.4-37.5c.3-.2.5-.5.7-.8.1-.3.1-.7-.1-1l-2.4 1.2c.2.3.4.5.8.7.3 0 .6 0 1-.1m28.3 27.6c-4.5-4.8-8.5-10-12.3-15.3-1.8-2.7-3.7-5.4-5.3-8.3-.8-1.4-1.7-2.8-2.5-4.2l-2.3-4.3-2.4 1.2 2.4 4.4c.8 1.5 1.7 2.9 2.5 4.3 1.7 2.9 3.6 5.6 5.4 8.4 3.9 5.4 8 10.7 12.5 15.6l2-1.8zm-31.1-35.3c-.3-.1-.7-.1-1 .1-.3.1-.6.4-.7.7-.2.6.1 1.5.8 1.7.3.1.7.1 1-.1.3-.2.6-.4.7-.8.1-.3.1-.7 0-1-.2-.3-.5-.5-.8-.6m-2.3-5.4c-.3-.1-.7-.1-1 0-.3.1-.6.4-.7.7-.3.6.1 1.5.7 1.7.3.1.7.1 1 0 .3-.1.6-.4.7-.7.1-.3.1-.7 0-1-.2-.3-.4-.6-.7-.7m-2.2-5.4c-.3-.1-.7-.1-1 0-.3.1-.6.4-.8.7-.3.6 0 1.5.6 1.8.3.1.7.1 1 0 .3-.1.6-.4.7-.7.1-.3.1-.7 0-1 0-.4-.2-.7-.5-.8m-2-5.6c-.3-.1-.7-.2-1-.1-.3.1-.6.4-.8.7-.3.6 0 1.5.6 1.8.3.1.7.2 1 0 .3-.1.6-.4.8-.7.1-.3.2-.7.1-1-.1-.2-.4-.5-.7-.7m-1.7-5.6c-.3-.2-.7-.2-1-.1-.3.1-.6.3-.8.6-.3.6-.1 1.5.5 1.8.3.2.7.2 1 .1.3-.1.6-.3.8-.6.2-.3.2-.7.1-1-.1-.3-.3-.6-.6-.8m-1.5-5.6c-.3-.2-.7-.2-1-.1-.3.1-.6.3-.8.6-.4.6-.1 1.5.4 1.8.3.2.7.2 1 .1.3-.1.6-.3.8-.6.2-.3.2-.7.2-1-.1-.4-.3-.7-.6-.8m11.2 32.9c-.3.2-.6.4-.7.8-.1.3-.1.7.1 1l2.4-1.2c-.2-.3-.5-.5-.8-.6-.3-.1-.7-.1-1 0"/><path class="st1" d="M22.4 245.4l2.4-1.2c-6.5-12.6-11.3-26.1-14.4-39.9l-2.6.6c3.2 14 8 27.7 14.6 40.5m-7.1-40.9c.3-.1.6-.3.8-.6.2-.3.2-.7.2-1l-2.6.6c.1.3.3.6.6.8.3.3.6.3 1 .2m20.2 34.1c-6-11.6-10.4-24.1-13.3-36.9l-2.6.6c3 13 7.4 25.7 13.6 37.6l2.3-1.3zm30.3-50c.3.2.7.3 1 .2.3-.1.7-.3.9-.6.2-.3.3-.7.2-1-.1-.3-.3-.6-.6-.9-.3-.2-.6-.3-1-.2-.3.1-.7.3-.9.5-.3.7-.2 1.6.4 2m-.7-4.4c.3.2.6.3 1 .2.4-.1.7-.2.9-.5.2-.3.3-.6.3-1 0-.3-.2-.7-.5-.9-.3-.2-.7-.3-1-.3-.3 0-.7.2-.9.5-.5.6-.3 1.5.2 2m-.5-4.5c.3.2.6.3 1 .3.3 0 .7-.2.9-.5.2-.3.3-.6.3-1 0-.3-.2-.7-.5-.9-.3-.2-.6-.3-1-.3-.3 0-.7.2-.9.5-.4.6-.4 1.5.2 1.9m1.5 12.4l2.6-.6c-.1-.3-.3-.6-.6-.8-.3-.2-.7-.3-1-.2-.3.1-.7.3-.9.6-.1.3-.1.6-.1 1m-1.9-16.8c.3.2.6.4 1 .3.3 0 .7-.2.9-.4.2-.3.4-.6.4-1l-2.7.1c0 .4.2.8.4 1m-.1-4.5c.3.2.6.4 1 .4s.7-.2.9-.4c.3-.3.4-.6.4-.9 0-.3-.1-.7-.4-.9-.2-.2-.6-.4-.9-.4-.3 0-.7.1-1 .4-.5.4-.5 1.4 0 1.8m0-4.4c.2.2.6.4.9.4.4 0 .7-.1 1-.4.2-.2.4-.6.4-.9 0-.3-.1-.7-.3-1-.2-.2-.6-.4-.9-.4-.3 0-.7.1-1 .3-.5.6-.6 1.5-.1 2m.2-4.5c.2.3.6.4.9.5.3 0 .7-.1 1-.3.3-.2.4-.6.4-.9 0-.3-.1-.7-.3-1-.2-.3-.6-.4-.9-.5-.3 0-.7.1-1 .3-.5.5-.5 1.4-.1 1.9"/><path class="st1" d="M63.8 174.4l2.7-.1c0-.3-.2-.7-.4-.9-.3-.2-.6-.4-1-.4-.3 0-.7.2-.9.4-.3.2-.4.6-.4 1m1-16.9c.2.3.6.5.9.5.3 0 .7-.1 1-.3.3-.2.5-.5.5-.9l-2.6-.3c-.1.4-.1.7.2 1m.6-4.4c.2.3.5.5.9.5.3.1.7 0 1-.2.3-.2.5-.5.5-.9.1-.3 0-.7-.2-1-.2-.3-.5-.5-.9-.5-.3-.1-.7 0-1 .2-.6.4-.7 1.3-.3 1.9m.8-4.4c.2.3.5.5.8.6.4.1.7 0 1-.2.3-.2.5-.5.6-.8.1-.3 0-.7-.2-1-.2-.3-.5-.5-.8-.6-.3-.1-.7 0-1 .2-.6.3-.8 1.2-.4 1.8m.9-4.3c.2.3.5.5.8.6.3.1.7 0 1-.1.3-.2.5-.5.6-.8.1-.3 0-.7-.1-1-.2-.3-.5-.5-.8-.6-.3-.1-.7 0-1 .1-.6.3-.8 1.2-.5 1.8"/><path class="st1" d="M64.5 156.5l2.6.3c0-.3-.1-.7-.3-1-.2-.3-.5-.5-.9-.5-.3 0-.7.1-1 .3-.2.2-.4.6-.4.9m3.8-16.4c.2.3.5.5.8.6.3.1.7.1 1-.1.3-.2.6-.5.7-.8l-2.5-.8c-.2.4-.2.8 0 1.1m1.3-4.3c.2.3.5.6.8.7.3.1.7.1 1-.1.3-.2.6-.4.7-.8.1-.3.1-.7 0-1-.2-.3-.4-.6-.8-.7-.3-.1-.7-.1-1 0-.7.4-1 1.3-.7 1.9m1.6-4.2c.2.3.4.6.7.7.3.1.7.1 1 0 .3-.1.6-.4.7-.7.1-.3.1-.7 0-1-.1-.3-.4-.6-.7-.7-.3-.1-.7-.1-1 0-.7.2-1 1.1-.7 1.7m1.7-4.1c.1.3.4.6.7.7.3.1.7.1 1 0 .3-.1.6-.4.7-.7.1-.3.1-.7 0-1-.1-.3-.4-.6-.7-.7-.3-.1-.7-.2-1 0-.6.2-1 1.1-.7 1.7"/><path class="st1" d="M68.2 139l2.5.8c.1-.3.1-.7-.1-1-.2-.3-.5-.5-.8-.7-.3-.1-.7-.1-1 .1-.3.2-.5.5-.6.8m6.5-15.5c.1.3.4.6.7.8.3.2.7.2 1 .1.3-.1.6-.4.8-.7l-2.4-1.2c-.1.3-.2.6-.1 1m2.1-4c.1.3.3.6.6.8.3.2.7.2 1 .1.3-.1.6-.3.8-.6.2-.3.2-.7.1-1-.1-.3-.3-.6-.6-.8-.3-.2-.7-.2-1-.1-.7.1-1.1.9-.9 1.6m2.2-3.8c.1.3.3.6.6.8.3.2.7.2 1 .2.3-.1.6-.3.8-.6.2-.3.2-.7.2-1-.1-.3-.3-.6-.6-.8-.3-.2-.7-.2-1-.2-.7.1-1.2.9-1 1.6m2.4-3.8c.1.3.3.7.6.8.3.2.7.3 1 .2.3-.1.7-.3.8-.6.2-.3.3-.6.2-1-.1-.3-.3-.7-.6-.9-.3-.2-.7-.3-1-.2-.7.2-1.2 1-1 1.7"/><path class="st1" d="M74.8 122.5l2.4 1.2c.1-.3.2-.7.1-1-.1-.3-.4-.6-.7-.8-.3-.2-.7-.2-1-.1-.4.1-.6.3-.8.7m9.1-14.3c.1.3.3.7.5.9.3.2.7.3 1 .2.4-.1.7-.2.9-.5l-2.1-1.6c-.3.3-.4.7-.3 1m2.7-3.6c0 .3.2.7.5.9.3.2.6.3 1 .3s.7-.2.9-.5c.2-.3.3-.6.3-1 0-.3-.2-.7-.5-.9-.3-.2-.6-.3-1-.3-.7.1-1.3.8-1.2 1.5m2.8-3.4c0 .4.2.7.5.9.3.2.6.3 1 .3.3 0 .7-.2.9-.5.2-.3.3-.6.3-1 0-.3-.2-.7-.5-.9-.3-.2-.6-.4-1-.3-.7.1-1.3.8-1.2 1.5m3-3.3c0 .4.2.7.4.9.3.2.6.4 1 .4.3 0 .7-.2.9-.4.2-.2.4-.6.4-.9 0-.3-.2-.7-.4-.9-.2-.2-.6-.4-1-.4-.7-.1-1.4.6-1.3 1.3m-8.2 9.3l2.1 1.6c.2-.3.3-.6.2-1-.1-.3-.3-.7-.5-.9-.3-.2-.6-.3-1-.3-.3.1-.6.3-.8.6m11.3-12.5c0 .4.1.7.4.9.2.2.6.4.9.4.4 0 .7-.1.9-.4l-1.8-1.9c-.3.3-.4.6-.4 1m3.2-3.1c0 .3.1.7.3 1 .2.3.6.4.9.4.4 0 .7-.1 1-.3.3-.2.4-.6.4-.9 0-.4-.1-.7-.3-1-.2-.3-.6-.4-.9-.5-.7 0-1.4.6-1.4 1.3m3.4-2.9c0 .3.1.7.3 1 .2.3.6.4.9.5.3 0 .7-.1 1-.3.3-.2.4-.6.5-.9 0-.3-.1-.7-.3-1-.2-.3-.5-.4-.9-.5-.7-.1-1.4.5-1.5 1.2m3.5-2.7c0 .3.1.7.3 1 .2.3.5.5.9.5.3 0 .7 0 1-.2.3-.2.5-.5.5-.9 0-.3 0-.7-.3-1-.2-.3-.5-.5-.9-.5-.7-.2-1.4.4-1.5 1.1"/><path class="st1" d="M95.9 93.8l1.8 1.9c.2-.2.4-.6.4-.9 0-.3-.1-.7-.4-.9-.2-.3-.6-.4-.9-.4-.3-.2-.7 0-.9.3m13.3-10.5c-.1.3 0 .7.2 1 .2.3.5.5.9.6.4.1.7 0 1-.2l-1.5-2.2c-.3.2-.6.5-.6.8m3.7-2.4c-.1.3 0 .7.2 1 .2.3.5.5.8.6.4.1.7 0 1-.2.3-.2.5-.5.6-.8.1-.3 0-.7-.2-1-.2-.3-.5-.5-.8-.6-.7-.2-1.5.3-1.6 1m3.8-2.3c-.1.3 0 .7.1 1 .2.3.5.5.8.6.3.1.7 0 1-.1.3-.2.5-.5.6-.8.1-.3 0-.7-.1-1-.2-.3-.5-.5-.8-.6-.6-.3-1.4.2-1.6.9m3.9-2.2c-.1.3-.1.7.1 1 .2.3.5.5.8.7.3.1.7.1 1-.1.3-.2.5-.4.7-.8.1-.3.1-.7-.1-1-.2-.3-.4-.6-.8-.7-.7-.2-1.5.3-1.7.9"/><path class="st1" d="M109.8 82.5l1.5 2.2c.3-.2.5-.5.6-.8.1-.3 0-.7-.2-1-.2-.3-.5-.5-.8-.6-.5-.1-.9 0-1.1.2m14.8-8c-.1.3-.1.7.1 1 .1.3.4.6.7.7.3.1.7.1 1 0l-1.1-2.4c-.3.1-.6.3-.7.7m4.1-1.8c-.1.3-.1.7 0 1 .1.3.4.6.7.7.3.1.7.1 1 0 .3-.1.6-.4.7-.7.1-.3.1-.7 0-1-.1-.3-.4-.6-.7-.7-.6-.3-1.4 0-1.7.7m4.1-1.6c-.1.3-.2.7 0 1 .1.3.4.6.7.8.3.1.7.2 1 .1.3-.1.6-.4.8-.7.1-.3.2-.7.1-1-.1-.3-.4-.6-.7-.8-.7-.4-1.6-.1-1.9.6m4.2-1.5c-.2.3-.2.7-.1 1 .1.3.4.6.7.8.3.2.7.2 1 .1.3-.1.6-.3.8-.6.2-.3.2-.7.1-1-.1-.3-.3-.6-.6-.8-.6-.4-1.5-.1-1.9.5m-11.7 4.1l1.1 2.4c.3-.1.6-.4.7-.8.1-.3.1-.7 0-1-.1-.3-.4-.6-.7-.7-.4-.1-.8 0-1.1.1m16-5.4c-.2.3-.2.7-.1 1 .1.3.3.6.6.8.3.2.7.2 1 .2l-.7-2.6c-.3.1-.6.3-.8.6m4.3-1c-.2.3-.2.7-.2 1 .1.3.3.6.6.8.3.2.7.2 1 .2.3-.1.6-.3.8-.6.2-.3.3-.7.2-1-.1-.3-.3-.7-.6-.9-.5-.3-1.4-.1-1.8.5m4.4-.9c-.2.3-.3.7-.2 1 .1.4.3.7.6.9.3.2.7.3 1 .2.3-.1.6-.3.9-.6.2-.3.3-.6.2-1-.1-.3-.3-.7-.5-.9-.7-.4-1.6-.2-2 .4m4.4-.7c-.2.3-.3.6-.2 1 .1.3.2.7.5.9.3.2.6.3 1 .3.3 0 .7-.2.9-.5.2-.3.3-.7.3-1 0-.3-.2-.7-.5-.9-.7-.5-1.6-.4-2 .2m-12.3 2l.7 2.6c.3-.1.6-.3.8-.6.2-.3.2-.7.1-1-.1-.3-.3-.6-.6-.8-.2-.2-.6-.2-1-.2m16.7-2.6c-.2.3-.3.6-.3 1 0 .3.2.7.5.9.3.2.6.3 1 .3l-.2-2.6c-.4 0-.8.2-1 .4m4.5-.3c-.2.3-.4.6-.3 1 0 .3.2.7.4.9.3.2.6.4 1 .4.3 0 .7-.2.9-.4.2-.3.4-.6.3-1 0-.3-.2-.7-.4-.9-.6-.6-1.5-.5-1.9 0m4.4-.2c-.2.3-.4.6-.4 1s.2.7.4.9c.3.2.6.4.9.4.3 0 .7-.1.9-.4.2-.2.4-.6.4-.9 0-.3-.1-.7-.4-1-.4-.5-1.3-.5-1.8 0m4.5 0c-.2.3-.4.6-.4.9 0 .3.1.7.4 1 .2.2.6.4.9.4.3 0 .7-.1 1-.3.2-.2.4-.6.4-.9 0-.3-.1-.7-.3-1-.6-.5-1.5-.6-2-.1"/><path class="st1" d="M159.7 64.7l.2 2.6c.3 0 .7-.2.9-.5.2-.3.3-.6.3-1 0-.3-.2-.7-.5-.9-.2-.2-.5-.3-.9-.2m16.9.2c-.3.2-.4.6-.5.9 0 .3.1.7.3 1 .2.3.6.4.9.4l.2-2.6c-.3-.1-.6.1-.9.3m1-.3l-.2 2.6c.3 0 .7-.1 1-.3.3-.2.4-.6.5-.9 0-.3-.1-.7-.3-1-.3-.3-.7-.4-1-.4m1.6 209.4c.2-.3.3-.6.3-1s-.2-.7-.5-.9c-.3-.2-.6-.3-1-.3-.3 0-.7.2-.9.5-.2.3-.3.6-.3 1 0 .3.2.7.5.9.5.4 1.4.3 1.9-.2m-4.4.3c.2-.3.4-.6.3-1 0-.3-.2-.7-.4-.9-.3-.2-.6-.4-1-.4-.3 0-.7.2-.9.4-.2.3-.4.6-.3 1 0 .3.2.7.4.9.5.6 1.4.5 1.9 0m-4.5.2c.2-.3.4-.6.4-1s-.2-.7-.4-.9c-.3-.3-.6-.4-.9-.4v2.7c.3 0 .7-.2.9-.4m-4.5 0c.2-.2.4-.6.4-.9 0-.3-.1-.7-.4-1-.2-.3-.6-.4-.9-.4-.3 0-.7.1-.9.3-.2.2-.4.6-.4.9 0 .3.1.7.3 1 .5.5 1.4.6 1.9.1m-4.4-.3c.3-.2.4-.6.5-.9 0-.4-.1-.7-.3-1-.2-.3-.6-.4-.9-.4-.3 0-.7.1-1 .3-.3.2-.4.6-.5.9 0 .3.1.7.3 1 .4.5 1.4.6 1.9.1m-4.4-.4c.3-.2.5-.6.5-.9 0-.3-.1-.7-.3-1-.2-.3-.5-.5-.9-.5-.3 0-.7.1-1 .3-.3.2-.5.5-.5.9 0 .3.1.7.3 1 .4.5 1.3.6 1.9.2m12.3 1.1v-2.7c-.3 0-.7.1-.9.4-.2.2-.4.6-.4.9 0 .3.1.7.4 1 .2.2.6.4.9.4m-16.8-1.7c.3-.2.5-.5.5-.9.1-.3 0-.7-.2-1-.2-.3-.5-.5-.9-.5l-.4 2.6c.4.1.8 0 1-.2m-4.3-.8c.3-.2.5-.5.6-.8.1-.3 0-.7-.2-1-.2-.3-.5-.5-.8-.6-.3-.1-.7 0-1 .2-.3.2-.5.5-.6.8-.1.3 0 .7.2 1 .3.6 1.2.8 1.8.4m-4.4-1c.3-.2.5-.5.6-.8.1-.4 0-.7-.1-1-.2-.3-.5-.5-.8-.6-.3-.1-.7 0-1 .1-.3.2-.5.5-.6.8-.1.3 0 .7.1 1 .3.6 1.2.9 1.8.5m-4.3-1.1c.3-.2.5-.5.6-.8.1-.3.1-.7-.1-1-.2-.3-.5-.6-.8-.7-.3-.1-.7-.1-1 .1-.3.2-.5.5-.7.8-.1.3-.1.7.1 1 .4.6 1.3.9 1.9.6m12 3.1l.4-2.6c-.3-.1-.7 0-1 .2-.3.2-.5.5-.5.9-.1.3 0 .7.2 1 .3.3.6.4.9.5m-16.2-4.5c.3-.2.6-.5.7-.8.1-.3.1-.7-.1-1-.2-.3-.4-.6-.8-.7l-.9 2.5c.4.2.7.2 1.1 0m-4.2-1.5c.3-.2.6-.4.7-.7.1-.3.1-.7 0-1-.1-.3-.4-.6-.7-.7-.3-.1-.7-.1-1 0-.3.1-.6.4-.7.7-.1.3-.1.7 0 1 .2.6 1 1 1.7.7m-4.1-1.7c.3-.1.6-.4.7-.7.1-.3.1-.7 0-1-.1-.3-.4-.6-.7-.7-.3-.1-.7-.1-1 0-.3.1-.6.4-.7.7-.1.3-.2.7 0 1 .2.6 1 .9 1.7.7m-4.1-1.9c.3-.1.6-.4.8-.7.2-.3.2-.7.1-1-.1-.3-.4-.6-.7-.8-.3-.1-.7-.2-1-.1-.3.1-.6.4-.8.7-.2.3-.2.7-.1 1 .2.7 1.1 1.1 1.7.9"/><path class="st1" d="M134.2 269l.9-2.5c-.3-.1-.7-.1-1 0-.3.2-.6.4-.7.8-.1.3-.1.7 0 1 .2.3.5.5.8.7m-15.2-7.2c.3-.1.6-.3.8-.6.2-.3.2-.7.1-1-.1-.3-.3-.6-.6-.8l-1.3 2.3c.3.1.6.2 1 .1m-3.9-2.2c.3-.1.6-.3.8-.6.2-.3.2-.7.2-1-.1-.3-.3-.6-.6-.8-.3-.2-.7-.2-1-.2-.3.1-.6.3-.8.6-.2.3-.2.7-.2 1 .1.6.9 1.1 1.6 1m-3.8-2.4c.3-.1.7-.3.8-.6.2-.3.3-.7.2-1-.1-.3-.3-.7-.6-.8-.3-.2-.6-.3-1-.2-.3.1-.7.3-.9.6-.2.3-.3.7-.2 1 .3.6 1 1.1 1.7 1m-3.6-2.5c.3-.1.7-.3.9-.5.2-.3.3-.7.2-1-.1-.3-.2-.7-.5-.9-.3-.2-.6-.3-1-.2-.3.1-.7.3-.9.5-.2.3-.3.6-.3 1 .1.6.9 1.2 1.6 1.1m10.3 6.9l1.3-2.3c-.3-.2-.7-.2-1-.1-.3.1-.6.3-.8.6-.2.3-.2.7-.1 1 0 .4.2.7.6.8m-13.9-9.6c.3 0 .7-.2.9-.5.2-.3.3-.6.3-1s-.2-.7-.5-.9l-1.7 2.1c.3.2.6.3 1 .3m-3.4-2.8c.4 0 .7-.2.9-.5.2-.3.3-.6.3-1s-.2-.7-.5-.9c-.3-.2-.6-.4-.9-.3-.3 0-.7.2-.9.5-.2.3-.4.6-.3 1 0 .6.6 1.2 1.4 1.2m-3.4-3c.4 0 .7-.2.9-.4.2-.3.4-.6.4-1 0-.3-.2-.7-.4-.9-.2-.2-.6-.4-.9-.4-.3 0-.7.2-.9.4-.2.2-.4.6-.4 1 0 .7.6 1.3 1.3 1.3m-3.1-3.1c.4 0 .7-.1.9-.4.2-.2.4-.6.4-.9 0-.3-.1-.7-.4-.9-.2-.2-.6-.4-.9-.4-.3 0-.7.1-.9.4-.3.2-.4.6-.4.9-.1.6.5 1.3 1.3 1.3m8.9 8.6l1.7-2.1c-.3-.2-.6-.3-1-.3-.3 0-.7.2-.9.5-.2.3-.3.6-.3 1 .1.3.3.7.5.9m-12-11.9c.4 0 .7-.1 1-.3.3-.2.4-.6.4-.9 0-.4-.1-.7-.3-1l-2 1.8c.2.2.5.4.9.4m-2.9-3.3c.3 0 .7-.1 1-.3.3-.2.4-.6.5-.9 0-.4-.1-.7-.3-1-.2-.3-.5-.4-.9-.5-.3 0-.7.1-1 .3-.3.2-.5.5-.5.9-.1.7.5 1.4 1.2 1.5m-2.8-3.5c.3 0 .7-.1 1-.3.3-.2.5-.5.5-.9 0-.3 0-.7-.2-1-.2-.3-.5-.5-.9-.5-.3 0-.7 0-1 .3-.3.2-.5.5-.5.9-.1.6.4 1.4 1.1 1.5m-2.6-3.6c.3.1.7 0 1-.2.3-.2.5-.5.6-.9.1-.3 0-.7-.2-1-.2-.3-.5-.5-.8-.6-.3-.1-.7 0-1 .2-.3.2-.5.5-.6.8-.2.8.3 1.5 1 1.7"/><path class="st1" d="M90.2 239.4l2-1.8c-.2-.3-.6-.4-.9-.4-.3 0-.7.1-1 .3-.3.2-.4.6-.5.9 0 .4.1.7.4 1m-9.9-13.7c.3.1.7 0 1-.2.3-.2.5-.5.6-.8.1-.4 0-.7-.2-1l-2.3 1.4c.3.3.6.5.9.6m-2.3-3.8c.3.1.7 0 1-.1.3-.2.5-.5.6-.8.1-.3 0-.7-.1-1-.2-.3-.4-.5-.8-.6-.3-.1-.7 0-1 .1-.3.2-.5.5-.6.8-.2.6.2 1.4.9 1.6m-2.1-4c.3.1.7.1 1-.1.3-.2.5-.5.7-.8.1-.3.1-.7-.1-1-.2-.3-.4-.5-.8-.7-.3-.1-.7-.1-1 .1-.3.2-.6.4-.7.8-.2.7.2 1.5.9 1.7m-2-4c.3.1.7.1 1-.1.3-.1.6-.4.7-.8.1-.3.1-.7 0-1-.1-.3-.4-.6-.8-.7-.3-.1-.7-.1-1 0-.3.1-.6.4-.7.7-.2.9.2 1.7.8 1.9"/><path class="st1" d="M79.5 225.1l2.3-1.4c-.2-.3-.5-.5-.8-.6-.3-.1-.7 0-1 .2-.3.2-.5.5-.6.8-.2.3-.1.7.1 1m-7.4-15.2c.3.1.7.1 1 0 .3-.1.6-.4.7-.7.1-.3.1-.7 0-1l-2.5 1c.3.3.5.5.8.7m-1.6-4.2c.3.1.7.2 1 0 .3-.1.6-.4.8-.7.2-.3.2-.7.1-1-.1-.3-.4-.6-.7-.8-.3-.1-.7-.2-1-.1-.3.1-.6.4-.8.7-.3.8 0 1.6.6 1.9m-1.4-4.2c.3.2.7.2 1 .1.3-.1.6-.4.8-.7.2-.3.2-.7.1-1-.1-.3-.3-.6-.6-.8-.3-.2-.7-.2-1-.1-.3.1-.6.3-.8.6-.4.7-.2 1.6.5 1.9m-1.3-4.3c.3.2.7.2 1 .1.3-.1.6-.3.8-.6.2-.3.2-.7.2-1-.1-.3-.3-.6-.6-.8-.3-.2-.7-.2-1-.1-.3.1-.6.3-.8.6-.4.6-.2 1.5.4 1.8m3.6 11.9l2.5-1c-.1-.3-.4-.6-.7-.7-.3-.1-.7-.1-1 0-.3.1-.6.4-.7.7-.2.3-.2.7-.1 1m-4.7-16.2c.3.2.7.2 1 .2.3-.1.6-.3.8-.6.2-.3.2-.7.2-1l-2.6.6c.1.3.3.6.6.8"/><path transform="rotate(-1.621 172.543 295.053)" class="st1" d="M170.5 285h4v20.3h-4z"/><path class="st1" d="M148.6 283.4l.7 3.7 7.2 1 1.7-3.4 4.1.6-10.1 19.1-3.1-.4-4.6-21.1 4.1.5zm2.7 14.8l3.5-7-5-.7 1.5 7.7zm-40.3-9.7l7.2-15.2 3.5 1.7-7.1 15.2 4.8 2.2-1.5 3.2-13.2-6.2 1.5-3.2zm-13-27.8l-1.1 3.6 5.9 4.2 3.1-2.2 3.4 2.4L91.4 281l-2.5-1.8 5.8-20.8 3.3 2.3zm-4.5 14.4l6.4-4.5-4.1-2.9-2.3 7.4z"/><path transform="rotate(-45.114 80.302 258.533)" class="st1" d="M70.1 256.6h20.3v4H70.1z"/><path class="st1" d="M79.2 242.3l-16.4 12-2.4-3.2 13.6-9.9-5.5-7.4 2.9-2.1zm-18.9-27.7c1.9.7 3.4 1.9 4.3 4 1 2.1 1 4 .3 5.9-1 2.7-3.3 3.8-6.5 5.3s-5.5 2.6-8.2 1.6c-1.9-.7-3.4-1.9-4.4-4-1-2.1-1-4-.3-5.9 1-2.7 3.3-3.8 6.5-5.3 3.3-1.4 5.6-2.6 8.3-1.6m-11.2 8.6c-.4.8-.4 1.8.1 2.8.5 1 1.2 1.6 2.1 1.9 1.1.3 2 .1 5.6-1.5 3.5-1.7 4.3-2.2 4.8-3.3.4-.8.4-1.8-.1-2.8-.5-1-1.2-1.6-2.1-1.8-1.1-.3-2.1-.1-5.6 1.5-3.6 1.5-4.4 2.1-4.8 3.2m6.7-30.6l-7 5.7.7 2.8 7.9-1.9.9 3.9-19.8 4.7-1.8-7.8c-1-4 1.2-7.1 4.5-7.8 2.8-.7 4.9.6 6.1 2.4l7.5-6.4 1 4.4zm-15.6 6.8l.9 3.6 5.2-1.2-.9-3.6c-.4-1.7-1.7-2.6-3.3-2.2-1.5.4-2.3 1.7-1.9 3.4m14.5-46.5l-11.8-1.2 7.2 4.6-.2 2.7-8.1 3.1 11.8 1.2-.4 4-20.2-2.1.4-3.8 11.4-4.2-10.4-6.4.4-3.9 20.2 2zm6.4-24.6h-3.8l-2.3 6.8 3 2.3-1.3 3.9-16.9-13.5 1-2.9 21.6-.6-1.3 4zm-15.1-.1l6.2 4.8 1.6-4.8H46zm24.6-22.8c.5 1.8 0 3.8-1 5.6l-3.7 6.3L48.3 107l3.7-6.3c1.1-1.8 2.6-3.2 4.4-3.6 3.1-.8 5.4.8 8.1 2.3 2.6 1.5 5.3 2.8 6.1 6m-13.1-4.5c-1.1.2-1.9.7-2.6 1.9l-1.5 2.6 11.4 6.7 1.5-2.6c.7-1.2.8-2.2.4-3.2-.4-1.1-1.6-1.9-4.3-3.5-2.6-1.5-3.7-2.1-4.9-1.9M79 97.1L63.9 83.5l8.9-10 2.6 2.4-6.3 7 3.6 3.2 5.4-6 2.6 2.4-5.4 6 3.7 3.3 6.3-7 2.6 2.3zM119.6 65l-2.9 1.6-9.2-9 2.6 12.6-2.9 1.6-14.5-15.2 3.6-2 8.9 9.7-2.9-13 2.6-1.4 9.4 9.4-3.4-12.7 3.7-2z"/><path transform="rotate(-17.636 130.853 49.927)" class="st1" d="M128.9 39.8h4v20.3h-4z"/><path class="st1" d="M157.5 54.6l-9.7-11.2 1.8 12.4-4 .5-2.9-20.1 3.6-.5 9.7 11.2-1.8-12.3 3.9-.6 2.9 20.1zm13.6-.6l1.4-20.3 13.4 1-.3 3.5-9.4-.7-.3 4.8 8 .5-.3 3.6-8-.6-.3 4.9 9.4.7-.3 3.5zm-31.9 125.9l8.2 10.3 13.2-1-7.3 11.1 5 12.2-12.7-3.5-10.1 8.5-.7-13.2-11.2-7 12.4-4.6z"/><path class="st2" d="M202.4 166l8.2 10.3 13.2-.9-7.3 11 5 12.3-12.8-3.5-10.1 8.5-.6-13.2-11.2-7 12.4-4.7z"/></svg>