<svg id="Layer_1" xmlns="http://www.w3.org/2000/svg" viewBox="0 0 389.16 199.1"><style> #Layer_1 .st0{fill:#fff !important;}</style><path class="st0" d="M49.27 37.84h.36l.45.27.36-.27.82.27h1.09l.82-.73 2.72.45 2.54.27 1.9.36 1.36-1.09h.64v.45l2.36.27 2.27.36 1.9 1.27.54 2.27.27.27.36-.27v1.63l1.27.27-1.27 2.27.45.45v4.71l-.82.64 1.18 3.54-.36 1.09.36.45h.45l-.82 1.45.36 1.63-1.45 2.99-3.54-.27-.82-6.26.45-.36-.45-.45-.36-1.45-.45-1.63V51.6l.45-2.72-1.09-.82-.82-1.91-.82-.63-1.09.27h-.54l-.6-.79-1.27 3.08-.63.82-.82-1.09v-2l.82-.81-.45-1.09-1.18.36-1.09 2.36-.45 3.08v1.9l.82 1.09-.82.82v4.17l.45.54-.82.73.36 3.08v.82h-.36l-.27.27.27.36.36 3.54-1.18.82v1.09l-.27.36.27.45.54.82-.82.64.27 2.72.54 1.9h-.54v5.44l2.45 1.45.27-.27 3.08 1.63 1.63-1.63 1.9 1.09 1.9.54.36-.54 1.54.82.82.82.36 3.08-1.91.27-.82.82-.36-.36-.82.82-3.54-.45-4.17-.36-3.81-.45-3.54-.27h-.36l-.72.72h-1.18l-1.09.82v-.45l-1.9-1.09-2.45.27-1.45.82-2.36-.36-.36-.45-1.09-1.45.27-1.9.82-1.91 3.54-.82 1.09 1.09 1.99-.27h.73l.36-.54 1.63-.27 1.45 1.09h.72l.82-.82v-2.18l.36-3.54.82-.63-.82-1.63.45-1.9-.82-.82-.45-2.27.82-.82v-6.53l-.82-1.45.45-.54L48.4 59l.36-1.27 1.63-2.18v-1.18l-.36-.45-.45-1.18h-.36v-7.19l-.82-1.27-3.45-.36v-.27h-1.18l-2.27 1.09-.45 1.9 1.27 1.18-.45 1.54h-1.45l-1.27.63-.36 5.17-.27.36 1.09 1.9-.45 2.27-1.18 1.27.54.27-2.45 1.9-2.72-1.09-1.45-2.72V57.7l1.45-1.9-.27-2.54-.36-1.27 1.09-1.45-.41-1.64v-1.09h.45v-6.17l-.72-.82 3.81-2.99 2.27-.45v.45h3.17l.36-.45.82.73 1.09-1.09 1.09.36 3.53.46zm8.89 16.05l-.82-.36-.82-1.9 1.63.36v1.9zm54.77-12.15v1.63l1.09 3.08v1.54l.82 1.18.82 4.17-.36.45 1.45 2.72.54 1.9 1.09 5.35 1.45 1.54-.36.36 1.18 2.36-.36 1.18.82.82v.27l-.45.36.82.82v3.81l.27.45.82 1.18v1.9l.82.36.27 1.54.54 2 1.9 1.9h3.36l1.27.82 1.99.63.64 1.9-.36 1.27v.64h-.82l-.27.45-.54.36-2.54 1.63-3.54-.54h-3.53l-1.09-.27h-1.18l-.72.82v-.52l-5.35-.27-3.17-2.72v-.82l1.9-1.09-.36-.36 1.18-.82v-.82l3.54-1.09.27-2.72-.72-.82-.73-1.45h-.73l-.82-1.09-11.25.64-.63.82.27 3.54 2 .72v.36l.27.27h.82v1.36l1.09 1.45h.54l.27-.36 1.18 2.27-.72 1.09.36.45h-1.63l-.27.82-2.72 1.18-7.25-.54-.45-.27h-1.18l-1.9 1.9-1.09-.82-.54.54-2.54-1.63h-1.63l-1.54-1.63-.64-.64.64-1.63v-2.18l1.27-.82h1.09l1.45-.54.82-.63.45.36.36-.36 1.9.36 2.72-3.54V78l.36-1.09.45-1.18.36-1.54.27-.82 1.63-2.27-.36-.45 1.18-1.18v-3.36l.27-1.54 1.18-1.63-.36-1.18h.36l.45-2.18.27.27h.54l1.09-1.9v-3.36l.82-1.9.36-1.63 1.09-1.91.45-1.63.64-1.09-.27-.36 1.09-.45h1.18v.45l.45.36h.27l.82-.82-.82-1.45-.27.27-1.18-1.45.36-1.9v-.82l1.09-.45 2.72.82 1.14 1.11zm-1.91 7.43l-.82-1.18-.36.36-.27.82.27.27-.82.82-.73.82-.72.82.36 4.99-1.09 1.9h-.82l-.36 1.9v3.08l-.82.82v3.81h-.45v1.9h.82l2.36.82 3.9-1.63.64.82.45-.27h.36l1.09-1.63-.27-2.72-.36-.36v-1.54l-2.36-1.45v-.82l-.36-1.09 1.09-1.99h.36l-1.45-5.08-.45-.36v-.82l.81-3.01zm65.29-10.25l2.72.36 2.72.45v.36l.82.73-.45 2.81-1.46 1.37h-1.27l-3.08 1.18-.82-.63-.27.27-.81-.82-1.9.82v.36h-.82L170.51 45l-1.9.82h-.27v1.63l.73 2.54-.45 1.99-.27.45.73 1.09-.73.82.27 7.26.45 9.25.73 6.17-.36.45.36.36 1.27 5.44 2.27-.54h1.09v.54l3.54.27 4.17.54 2.72 2.99-2.27 3.36-1.9 1.36h-3.17l-6.17.27v-.26h-5.44l-.64.27H164l-.63-.82-1.63.54v.27h-1.09l.27-.27-1.09-.82-3.08.82-1.09-.54-2.45.82-.82-.27-.63-.54-.82-.82h-2.99l-.45-2.54-.82-.45.45-1.18V86l3.36-1.27 1.9-.36h1.36l2.99-1.09h1.45l.82.82.45-.54.63.54.54.27.82-1.09-.54-.54h.54l.27-1.45v-2.72l-.27-3.54h.27v-1.09l-.27-.27.63-.82v-3.08l.45-.45v-.63l-.82-.82.82-1.91-.45-1.63v-9.97l.73-2.36-.73-.64.45-1.99.27-.45-.73-.82v-1.91l-3.45-.36h-.72l-.82.82.45.36h-1.27v-.36l-3.9-.45-2.54-.36-1.63-1.54v-3.08h.36l.45-.36 2.27-1.09 6.62-.45h-.36l-.45.45 4.62.36 1.09-.82h4.35l2.63.45.72-.82 2.45-.45 1.09.82 2.28-.39zm40.98.55l.27-.27v.27l2.45.82h.63l1.9-1.54 4.35.45 2.27.27 2.36 1.18v.82l.36.27v1.63l-1.63.82-.63 1.09-1.63-.28-.27.27v.36l-2.45-1.18h-4.99l-.27-.27h-.45v7.98l.45 7.71v.54l.27.27.36 4.63.82 1.99v1.45h-.36l-.82 3.17.36.27-.63.82-.45 2.72-.36.36 1.09 1.63-.27 2.99v1.18l1.45 2.18h5.44l4.62.54 1.18-.82h.82l.27-.36 1.09-1.27 2-1.09.45-6.89v-2l-.82-1.09.36-.45v-1.18l1.09-1.09v-1.9l1.9-1.18 1.99-.45 1.54 1.63v1.09l.82.82-.45 1.9v.36l-.36.45.82.82v2.54l.36.54-.82.73.45 3.08v1.45l-.45-.36v2.27l.45 1.63.36 2.72-3.08 4.63h-6.07l-1.27.63-1.18-.27-3.81-.36h-1.18l-.27.36h-3.54l-2.27-.82-.82.82h-6.53v-.36l-.82-.82-.36.36-1.54.45-.36.36-.82-.82-1.09.82-6.26.27-1.45-1.09-3.08.82h-1.27l-.63-1.63.36-.27v-.36l-.82-.82h.45l.36-2.72.27-1.09h9.61l1.27-.54.36-.27.82.82 1.9-.54h.82l.63-.63-.36-4.26-.27-.36.63-.82-.36-2.27v-2.72l.36-1.09v-8.53l.82-1.63-.82-2.72 1.27-.63-.45-.45v-.82l.82-.63-.82-1.27-.36-4.17-.45-1.18V48.8l.45.36 1.45-2.72v-1.18l-1.09-.82-1.18-.27h-.27l-.45.27-1.16.56-.82-.82-4.62.27-1.45.82V45l-.82-.54h-1.09v-.27h-1.63l-2.27 1.09-1.09-1.63.36-.27v-.82l-.82-.82.82-.63-.36-.45h.36l.27-1.18 1.27-.73v.45l1.18.27.82.36h1.09l.27-.36 2.81-.73 6.89.45.72-.82 2.81.36 1.92.74zm60.39-.27v.27l.64.82h1.63l1.54.82h.63v.63l2.45.82 1.09-.27 3.08 2.18.82.82 3.08 2.27 1.09 4.35 1.9 2.72v.63l-.27.45 1.9 1.18.27 4.62.82 1.09v2.27l-.82 1.27.82.63v2.72l-1.09.82-.82 1.63v1.09l.45.36v1.63l-1.27 1.9-.27 2.72-2 2.27-.27-.36-1.91 4.53-1.36 1.27-.27-.45-.36.45v.64h-.73l-.54.45v.82l-.27-.45-.82 1.09-.36-.27-.82 1.09-.73.82.45.27-2.72.54-.82 1.09H281l-.27.36-2.81.45h-3.45l-2.63-.82-2.72-2.27h-1.63l-1.9-1.54-.82-.82.54-.36v-.82l-1.63-.27-.82-.82-1.41-3.53.36-.27-2.27-2.45-.82-2.54v-1.27l-.82-.73.82-1.54-.82-2-.27-1.9-.54-2.72v-1.09h.54l.27-5.8 1.18-4.99 2.36-4.62h.36l.45-1.18v-1.09h.63l.82-.82V46.9l1.09-1.63v-1.09l2.45-1.9.27-.54 1.18.82 4.35-2.72 1.45-1.09 1.9.45h1.29zm2.54 6.89l-2.27-.82-.27.36h-1.9l-3.26.82h-1.45l-2.99 2.36v1.91l-1.63.63.36.54-.73.82-1.27 2.54-.27 4.62.82 6.26.27 6.89.82 2.72h.36l2.36 2.27-.45.36 2.36 3.17 2 1.45-.54.45 1.63 1.45 1.63.82-.54.36h.82l.36-.36 1.91.82.82-.45.45-.36h.36l1.09.36 2.72-1.45.82-1.63h.36l-.36-.27 1.9-2v-2.36l2-4.53v-2.72l1.36-1.9v-1.63l-.63-1.9v-2.72h.36l-.36-1.45.63-1.63-1.09-.82V55.7l-1.09-.45-2-4.17-.27-.36.27-.45-1.54-1.09h-1.18l-.82-.82.54-.36-1.18-1.91h-1.29zm49.69-6.35h2.72l1.18-.45h.82l1.36 1.54h.82l.82-1.09 1.18.36 1.54.27 3.08.45 1.63.82h1.91l1.45 1.45-.18-.18.36-.45.27.36-.45.27 2.99 4.35v.64l.54.45 1.09 6.17-.82 1.9.54 1.09h-.54l-1.09 2.72-1.63.82.45.36h-1.09l-.45 1.27-3.08 2.27-.27-.36-1.36 1.45v1.18l.82.73v1.18l.54.45.64 1.09.45-.27.36 2.27.73 2.18-.27 2.45.27.36.36.73-.63.82.27 4.72 1.63 1.09 1.45.36.82.72.27-.27 1.63-.82-.27-.45h1.36l.54.45.27-.45 1.63 1.54.36-.27.27 1.09v.82l-.63.64h-1.63l-.27.45v.82h-2.45l-1.09-.82-1.18.82-4.63-1.27v-.66l-.27-.45-1.63-2.27v-2.72l-.36-.36v-3.54l.36-5.44v-.27l-.82-.82.45-.36-.45-.45h-.82l.54-.36-.54-.27h-1.09V69.3l-2.27-1.45h-.82l.36-.45-2.63-1.18-.45-.27-.27.27-1.63.45-.82-.73-3.08.27-.73-.82-1.45.82-.82.82v1.09l-.36 5.8V77l.36.45.27 4.63.54.36.27 1.9v.36l.82.82 2.27-.36v.82l4.35.27.73.82v1.9l-1.54 1.45-1.99-1.09h-1.9l-.82.82v.27l-2.18-1.09-1.63.45-3.08.36h-7.7l-1.09-.36-.82-.82.36-.45-.63-.64.63-1.27.45-.36 2.72-.72 3.36-1.18h1.63l1.09-1.9v-1.91l.36-.36-.36-.45.36-7.26.45-.45-1.09-.82V69.3l-.54-.36.82-1.54v-3.08l-.27-.36-.54-5.44-.73-.82.45-2.54.82-1.27-.54-1.9-1.9-1.45-.27-.54v-1.45l1.09-.72-1.09-1.18-.54.35h-2.54l-2.72-1.18h-.45l-.36.36-1.63-2.54.82-3.26 4.72-.64h2.18l.54.36h.73l.36-.36 3.9-.45.27-.36 5.44.36v.45zm11.88 6.89l-1.9-1.63-1.09 1.63-3.9-.45-1.45.82-1.27-1.18-.64.82-1.63.82h-1.09l-.45.36-.36 12.61 3.08-.72.73.72.82 1.18 1.45.82v.45l.82-.82 2.45-1.09h2.18l.82-1.27 2.72-.36 1.45-1.09.54-2.45 1.09-.27v-2.27l-.45-.54V50l.82-.63-1.18-1.27-.27.45h-.54l-1.45-1.09v-.82h-1.3zM84.27 113.8l1.09-2.63h5.62l1.09.82 1.45-.82v-.27l.45-.54 2 1.18h3.35l.45 1.54 1.18.36 1.9 2.45-.36.73v4.17l1.18 3.9-.82 1.63.27.27.54 1.18.73 1.54v2.72l.36 3.08 1.09 1.9v1.9l.82.82.82 1.45 1.18 1.63 1.54-2.45v.54l.36.27 1.54-1.9.36-1.9.82-.82-1.18-1.9.73-3.08h.45v-4.62l1.09-1.45.82-.82h.82v3.08l-.82 1.09.36 1.9-.82.82.82.82h-.36l-.82 1.9v.36l-.82.82.54.45-.82.63 1.45 1.63-.64.73.27.36-.82.82.54.27-.82.82.82 1.9-.54 1.18-.73 1.9.45.45v1.18h-.45l-.73 2.72.36 2.72v.63l1.09 1.27-.27.36v.27l2.27.54.73-.82h2.81l.27.27h.45l.36-1.09h.86v-4.62l.27-.36-.82-1.63v-2.99l.82-2.27-.82-.82.82-2.27-.27-1.91.82-.82-.54-5.44-.27-.36h.82v-4.89l.63-.82-.36-8.16-1.63-2.63h-.27l-.36.64h-.45l-.27 1.99-.54 2.36v.82l-.27-.45-.36 1.91-2.72-1.45h-.82l-.27-.45 1.09-3.08h.36l.45-1.9v-1.99l.27.36.36-.36v-.73h.45l1.18-1.45 3.81-.54 3.08.82.82-.82h.82l1.9 1.99 1.9-.82h.36l.45.45v.82l-1.9.27-3.26 1.63-1.09 2.27-.82 3.54v1.09l-.64.82 1.09.63.82 4.35.64 1.9v1.18h-.27l-.82.72.45 3.08.36 1.18v3.44l.82 1.99-.54 3.36-.27 3.54v2.72l.27 1.45.82 1.27v1.9l1.09.64 2.81-.27v.27l1.09.54 1.27 2.72h.36v.64l-2 1.27.36.27-4.99-.27-.82.64-1.45.82H124v-.36l-1.54-.45-1.45-.64-3.9 1.45h-1.09l-2.45-1.9v-.82l-.27-.36-1.18 1.18-.45-.36-.82 1.09-.63.82h-2.72l.36-.45v-.36l-2.27-1.09-1.18.36-1.27 1.54h-1.9l-6.44.36-.45.45h-1.09l-1.99-1.63-2.18-.73-2.81.45v-.45l-.73-.82-.36-2.63.36.36 1.54-2.27.36.36.27-.36v-.45h.82l.82.82.36-.36 1.54-.82.36-3.81.45-.45-.45-.36-.64-2.27v-1.9l.64-1.27v-3.9l.45-5.26v-.82l-.45-.27-.36-2.45-.27-.36.64-.72v-1.18l1.27-1.54-.82-1.18.82-2.99v-1.63l-.45-.36-.82-1.54v-.36l.82-.82-.82-1.9-1.09-1.09-.36.27v-.27H87.1l-2.83-2.09zm12.79 5.08h-.82v2.72l-1.09 1.18v5.71l.27.36v1.63l-.27 3.54.27 2.54.82.82.54.45-.54.36-.27 2.18 1.9.82v.81l-1.09 1.09.27 2.45.36 2.54.45 1.99.27-.36 1.18.82v1.45l.82 1.27-.82.63 1.27 1.27h1.09l1.45-.45.82.82.45 1.9h.72l-.36-.36v-1.91l-1.09-1.9.27-.45.45-2.27-.73-.82v-.82l-.54-2.72-.27-3.81-2.72-3.45 1.54-.73.36-2.72-1.09-3.45-.36-.45.36-1.9.27-1.18-.27.36-.36-.36v-.27l.36-.45h.27l-.27-.36v-1.63l-.82-.82v-.27l.45-.36.36-1.9-.36-.45v-.82h-.82l-2.68-2.27zm0 8.97h.64v.63h-.64v-.63zm16.23 28.75h-.45l-.73.45.36.36.82-.81zm56.31-43.62v1.63l1.09 3.08v1.54l.82 1.18.82 4.17-.36.45 1.45 2.72.54 1.9 1.09 5.35 1.45 1.54-.36.36 1.18 2.36-.36 1.18.82.82v.27l-.45.36.82.82v3.81l.27.45.82 1.18v1.9l.82.36.27 1.54.54 2 1.9 1.9h3.36l1.27.82 1.99.63.63 1.9-.36 1.27v.63h-.82l-.27.45-.54.36-2.54 1.63-3.54-.54h-3.53l-1.09-.27h-1.18l-.72.82v-.54l-5.35-.27-3.17-2.72v-.82l1.9-1.09-.36-.36 1.18-.82v-.82l3.54-1.09.27-2.72-.72-.82-.73-1.45h-.73l-.82-1.09-11.25.63-.63.82.27 3.54 2 .72v.36l.27.27h.82v1.36l1.09 1.45h.54l.27-.36L165 160l-.72 1.09.36.45h-1.63l-.27.82-2.72 1.18-7.25-.54-.45-.27h-1.18l-1.9 1.9-1.09-.82-.54.54-2.54-1.63h-1.63l-1.54-1.63-.64-.63.64-1.63v-2.18l1.27-.82h1.09l1.45-.54.82-.64.45.36.36-.36 1.9.36 2.72-3.54v-2.27l.36-1.09.45-1.18.36-1.54.27-.82 1.63-2.27-.36-.45 1.18-1.18v-3.36l.27-1.54 1.18-1.63-.36-1.18h.36l.45-2.18.27.27h.54l1.09-1.9v-3.36l.82-1.9.36-1.63 1.09-1.9.45-1.63.63-1.09-.27-.36 1.09-.45H165v.45l.45.36h.27l.82-.82-.82-1.45-.27.27-1.18-1.45.36-1.9v-.82l1.09-.45 2.72.82 1.16 1.14zm-1.9 7.44l-.82-1.18-.36.36-.27.82.27.27-.82.82-.73.82-.72.82.36 4.99-1.09 1.9h-.82l-.36 1.9v3.08l-.82.82v3.81h-.45v1.9h.82l2.36.82 3.9-1.63.64.82.45-.27h.36l1.09-1.63-.27-2.72-.36-.36v-1.54l-2.36-1.45v-.82l-.36-1.09 1.09-1.99h.36l-1.45-5.08-.45-.36v-.82l.81-3.01zm45.6-10.43h6.61l.36-.36v.36l2.72.45h.27l.45 1.09 1.18-.45 1.91.82.36-.36v.36h1.09l.82-.82 1.09.45v.36l2.45.82 2.72.82.63 1.36h1.27l-.45.54 1.9.82 1.63 4.17.27 1.9 1.18 2.27 1.27 1.27h.27l.82 1.45v4.99l.82 1.54-.82 1.99.36 6.08h-.36v1.54l-.45-.27-.36 2.27v.82h-.27l-.82 2.99-.45 1.18-.36.45v.63l-1.91 1.9.27.54-1.09 1.09.45.27h-.72l-.54.54v1.09l-1.91.82-4.17 3.81h-1.9l-.82.82h-4.17l-.82.64h-.82l-.82-.64-2.18 1.18-2-1.63-1.54.82h-4.99l-1.45.27-1.63.54-.27.27v-.27l-.54-.54h-1.09l.27-.27h-2.18l-.36.27-2.72-.27v-.36l-1.09-.45-1.63-2.27.82-1.54v-1.18l2.99-1.63h3.9l2.99.54h1.18l.82-1.18-.36-3.81.82-.82v-4.99l-.45-4.35.45-2.18.36-.54v-.27l-.36-.36v-5.71l.63-5.17v-4.17l1.27-1.18v-.45l-.82-.27-.73-.82-1.18-1.9v-1.45h-1.63l-1.09.63-1.09-.63-4.72-.54-1.54-.27-.63-.82.27-1.9 1.18-2.27 1.54-.45.36-.36 1.54.82 2.27-1.27 2.72.45 1.18-.82v.36l1.57.8zm7.26 6.89l-.27-1.18-.82.82-.36 3.9-1.63 3.54h.82l.36.27v.36l.45 1.54-.82.82v3.36l.82 1.36-.82 1.36h.36l.45 3.54-.82.82h-.27l.27.36-.27 9.61 1.09 5.44-.82 1.45H221l.82.82.36-.36h.27l2.45.36 1.09.27 2.27-.64 1.9-1.9h.82v-.82l1.09-.82.54-1.09h1.09l1.63-1.09v-1.27l-.45-.73-.36-.45v-1.09l.82-.82.27-.36h.82l-.45-.45v-.36l.82-.73-.36-.36 1.18-1.09.27-3.54.82-1.18.45-3.54-1.54-1.09v-.82l.27-.27v-2.45l-.27-3.35-.36.27-.82-.72-1.54-3.9-3.08-2.99-2.27-.36-1.27-1.09-1.45.27v.36l-1.91.45-1.18-1.09h-.73l-1.18-.54-.82 3.54h-.45l-.27-1.09-.36-.45v-.82l.36-.36.27.37zm3.9 21.67l.45 2.72h-.82l-.36.27-2.72.36-.73-.63h-.36l.63-.82v-1.9h.45v-.82l3.08.27.38.55zm50.41-26.93h6.07l1.18-.64h1.9l.82 1.09 1.54.36h1.18l.82-.82.64.82 1.9-1.09 3.17.27 2.63 1.27.45 1.18.82 3.81v3.36l.63.82v4.72l.82 1.54-1.45 1.45-1.27-.27-2-3.54-.27-2.72-.82-1.99.45-.27v-.82l-.45-.36-.82-1.54-1.45-1.18h-.82l-.27-1.09-1.27-1.09-.36.27-1.9-1.63.27-.27h-1.45l-.72.82-3.9.27-.82 1.18h-3.36l-.45.45v.27h-.82v-.27h-1.45l-1.63.82v9.98l-.73 1.09.73 2.36 1.18 1.99 2.36.27v.36h2.27l1.09-1.9h1.36l1.45-1.18v-2.72h.45l.64-1.45v-.82l1.27-.27h.63l1.63 1.45.27-.36v1.9l.54 2.72.27 2.63-1.09 1.9v4.62L287 141l.54 1.9v1.18l-4.35 1.9-1.09-2.72v-4.62l-1.18-1.45-.27.27-.82-.82-6.89-.27-1.63 1.9.82 2.27.27 3.54-.73.82v4.62l1.54 1.9-.27 2.27-.54.27 1.63 1.63 4.17.36 1.09.82 2.81-.82 1.9-.36h1.09v.36l3.26.82.64-1.18 1.9-1.09v-1.18h.45l.82-1.9.63-.82-.27-2.36 1.9-2v-2.18l.82-.82v-1.18h2.18l-.09-.27.27-.36.36.36-.54.27.54.36h1.09l.82 2.72v.82h-.45l-1.18 3.08.36 7.35-.63.82v1.45l-.54-.36-.27 1.9-.45 1.18-.63.82-1.63-.82h-2.72l-.36-.36-2.36 1.18-1.45.27-1.18-.82-3.54.54h-9.61l-1.54.27h-2.63l-2.36.54-1.18-1.36-.82.82-2.72-.27h-1.45l-2.36.27-.63-1.45h-.82l-.82-1.27.82-2.99 1.91-1.45 2.72.63 3.36-.36 1.63-.27.82-.82-.45-.54 1.54-2.18v-6.9l.36-2.45.45-.36v-.27l-.45-.45-.82-1.45.45-14.33v-2.36l-.45-5.35-.36-1.09h-2.99l-.45.27h-3.08l.45-.27-3.17-.54h-1.18l-.73-2.18 1.27-1.99 1.9-1.09h7.26l.45-.45 5.8 1.54 1.91-.42zm35.86 2.54c0 1.77-1.39 3.15-3.19 3.15-1.79 0-3.21-1.39-3.21-3.15 0-1.73 1.42-3.12 3.21-3.12 1.8 0 3.19 1.39 3.19 3.12zm-5.61 0c0 1.39 1.03 2.49 2.43 2.49 1.37 0 2.37-1.1 2.37-2.47 0-1.39-1.01-2.51-2.39-2.51-1.38 0-2.41 1.12-2.41 2.49zm1.92 1.63h-.72v-3.12c.29-.06.68-.09 1.2-.09.59 0 .86.09 1.08.23.17.13.3.38.3.68 0 .34-.27.61-.65.72v.04c.3.11.48.34.57.76.1.48.15.66.23.78h-.78c-.1-.11-.15-.4-.25-.76-.06-.34-.25-.49-.65-.49h-.34v1.25zm.02-1.77h.34c.4 0 .72-.13.72-.46 0-.29-.21-.48-.66-.48-.19 0-.32.02-.4.04v.9z"/></svg>